<?xml version="1.0" encoding="UTF-8" standalone="no"?>
<!-- Created with Inkscape (http://www.inkscape.org/) -->

<svg
   xmlns:dc="http://purl.org/dc/elements/1.1/"
   xmlns:cc="http://creativecommons.org/ns#"
   xmlns:rdf="http://www.w3.org/1999/02/22-rdf-syntax-ns#"
   xmlns:svg="http://www.w3.org/2000/svg"
   xmlns="http://www.w3.org/2000/svg"
   xmlns:sodipodi="http://sodipodi.sourceforge.net/DTD/sodipodi-0.dtd"
   xmlns:inkscape="http://www.inkscape.org/namespaces/inkscape"
   width="16in"
   height="6.5in"
   viewBox="0 0 1440 585"
   id="svg2"
   version="1.1"
   inkscape:version="0.91 r13725"
   sodipodi:docname="Albertsvg2.svg">
  <defs
     id="defs4" />
  <sodipodi:namedview
     id="base"
     pagecolor="#ffffff"
     bordercolor="#666666"
     borderopacity="1.0"
     inkscape:pageopacity="0.0"
     inkscape:pageshadow="2"
     inkscape:zoom="0.35"
     inkscape:cx="1248.3905"
     inkscape:cy="257.85714"
     inkscape:document-units="px"
     inkscape:current-layer="layer1"
     showgrid="false"
     units="in"
     width="15in"
     inkscape:window-width="1440"
     inkscape:window-height="897"
     inkscape:window-x="-8"
     inkscape:window-y="-8"
     inkscape:window-maximized="1"
     showguides="false" />
  <metadata
     id="metadata7">
    <rdf:RDF>
      <cc:Work
         rdf:about="">
        <dc:format>image/svg+xml</dc:format>
        <dc:type
           rdf:resource="http://purl.org/dc/dcmitype/StillImage" />
        <dc:title />
      </cc:Work>
    </rdf:RDF>
  </metadata>
  <g
     inkscape:label="Layer 1"
     inkscape:groupmode="layer"
     id="layer1"
     transform="translate(0,-467.3622)">
    <flowRoot
       xml:space="preserve"
       id="flowRoot4188"
       style="font-style:normal;font-weight:normal;font-size:40px;line-height:125%;font-family:sans-serif;letter-spacing:0px;word-spacing:0px;fill:#000000;fill-opacity:1;stroke:none;stroke-width:1px;stroke-linecap:butt;stroke-linejoin:miter;stroke-opacity:1"
       transform="matrix(2.4608923,0,0,2.1888795,-21.455531,453.04217)"><flowRegion
         id="flowRegion4190"><rect
           id="rect4192"
           width="437.14285"
           height="85.714287"
           x="25.714285"
           y="25" /></flowRegion><flowPara
         id="flowPara4194">VAR</flowPara></flowRoot>    <flowRoot
       xml:space="preserve"
       id="flowRoot4204"
       style="font-style:normal;font-weight:normal;font-size:40px;line-height:125%;font-family:sans-serif;letter-spacing:0px;word-spacing:0px;fill:#000000;fill-opacity:1;stroke:none;stroke-width:1px;stroke-linecap:butt;stroke-linejoin:miter;stroke-opacity:1"
       transform="matrix(1.4568148,0,0,1.805622,58.24755,398.69709)"><flowRegion
         id="flowRegion4206"><rect
           id="rect4208"
           width="834.28571"
           height="300"
           x="22.857143"
           y="96.428574" /></flowRegion><flowPara
         id="flowPara4210"
         style="font-size:90px">アルバート</flowPara></flowRoot>    <flowRoot
       transform="matrix(2.0327126,0,0,2.2993835,344.80307,702.93119)"
       style="font-style:normal;font-weight:normal;font-size:40px;line-height:125%;font-family:sans-serif;letter-spacing:0px;word-spacing:0px;fill:#000000;fill-opacity:1;stroke:none;stroke-width:1px;stroke-linecap:butt;stroke-linejoin:miter;stroke-opacity:1"
       id="flowRoot4220"
       xml:space="preserve"
       inkscape:transform-center-x="98.731759"
       inkscape:transform-center-y="-512.43402"><flowRegion
         id="flowRegion4222"><rect
           y="25"
           x="25.714285"
           height="85.714287"
           width="437.14285"
           id="rect4224" /></flowRegion><flowPara
         id="flowPara4226">=TRUE</flowPara></flowRoot>    <flowRoot
       xml:space="preserve"
       id="flowRoot4228"
       style="font-style:normal;font-weight:normal;font-size:40px;line-height:125%;font-family:sans-serif;letter-spacing:0px;word-spacing:0px;fill:#000000;fill-opacity:1;stroke:none;stroke-width:1px;stroke-linecap:butt;stroke-linejoin:miter;stroke-opacity:1"
       transform="matrix(0.84432793,-0.53582679,0.53582679,0.84432793,26.771829,866.35273)"><flowRegion
         id="flowRegion4230"><rect
           id="rect4232"
           width="697.14288"
           height="185.71428"
           x="674.28571"
           y="319.28571" /></flowRegion><flowPara
         id="flowPara4234">Welcome! Take a seat, have a snack, relax a bit, &amp; enjoy!</flowPara></flowRoot>    <path
       style="fill:#241f1c"
       id="path6377"
       d="m 1147.0254,795.08656 c 1.4349,-13.41127 3.0923,-26.77646 3.7697,-40.25453 0.5897,-13.0092 -2.7851,-25.63648 -5.423,-38.25213 -2.5687,-12.33946 -4.0363,-24.86275 -5.7202,-37.34217 -0.8685,-3.72562 -0.5797,-8.01982 -1.9486,-11.55665 0.051,1.13535 -0.9749,-1.87837 -1.0271,-2.49867 0.067,-4.62941 3.8731,-3.12695 6.159,0.21196 5.0505,10.02016 8.8624,20.62535 13.0825,31.01362 5.917,13.78948 12.2343,27.38597 17.4478,41.46387 3.5477,10.15429 6.5299,20.49715 9.3679,30.86897 0.826,2.25464 4.9176,13.91659 -4.03,7.35525 -3.4094,-2.40161 -6.6572,-3.25522 -10.7816,-3.06952 -12.6383,1.36699 -24.2042,6.53619 -35.5902,11.85297 -15.2252,7.19394 -29.7091,15.82685 -44.1122,24.51893 -7.0103,3.49398 -12.7078,9.47602 -19.8444,12.70484 -1.0807,-1.49455 -2.8578,-2.67978 -3.2422,-4.48363 -0.223,-1.0467 1.0841,-1.84903 1.7076,-2.71887 4.7927,-6.68687 10.7196,-12.70796 15.9776,-19.02384 16.2548,-20.32879 33.5976,-39.7276 50.8055,-59.24167 17.7785,-20.48658 34.2109,-42.09829 50.098,-64.07009 2.1294,-4.70924 12.3249,-14.85494 12.7202,-20.19575 -0.4853,1.77553 0.6702,0.9706 1.3623,1.86966 0.1542,0.20035 -0.456,0.22355 -0.6621,0.37012 -1.2542,0.89231 -1.5309,1.30905 -2.7038,2.51447 -7.2487,7.25603 -11.4247,16.57712 -15.5903,25.78035 -10.2974,23.97422 -23.2874,46.60803 -36.668,68.95736 -7.619,15.03276 -19.7711,28.44768 -25.794,44.28356 0.012,0.2613 -0.01,1.04161 0.036,0.78392 0.067,-0.38107 0.02,-0.77341 0.03,-1.16011 -0.3875,-0.22135 -1.1856,-0.21839 -1.1625,-0.66404 0.022,-0.42297 0.8192,-0.22048 1.216,-0.36852 1.4796,-0.55199 1.6939,-0.74743 3.0888,-1.53508 4.2128,-2.89095 6.8674,-7.48368 9.5771,-11.7035 5.9734,-9.90269 11.8644,-19.85347 18.0938,-29.59832 7.6748,-10.5236 15.2317,-21.06311 22.197,-32.07145 0.094,-0.19853 2.9019,1.13466 2.8076,1.33318 l 0,0 c -6.1255,11.44961 -12.4535,22.75694 -20.1068,33.28083 -6.2665,9.74862 -12.5,19.51819 -18.7565,29.27335 -3.0749,4.71876 -5.9706,9.75601 -10.2871,13.46248 -4.6378,3.20071 -12.0508,6.33135 -12.6701,-2.42641 3.476,-16.7741 16.1609,-31.74772 23.6738,-46.80175 13.2342,-22.24435 26.5495,-44.47763 37.8811,-67.77491 4.9487,-9.56356 9.9113,-19.25174 17.914,-26.68059 3.3196,-3.02175 9.4768,-7.56382 11.7933,-0.93361 -0.2979,8.79426 -7.9422,16.0854 -11.5126,23.59477 -14.9822,22.90901 -31.2655,44.98016 -49.4468,65.47205 -17.4163,19.38653 -35.1239,38.51049 -52.289,58.12333 -4.6461,5.11585 -9.4279,10.04036 -14.2088,15.0241 -0.9055,0.94393 -1.7899,1.90825 -2.6628,2.88241 -0.5703,0.63643 -0.8141,1.88357 -1.6662,1.9485 -1.6579,0.12634 -3.1802,-0.97202 -4.7703,-1.45803 6.1846,-4.66591 12.1832,-9.59525 18.8251,-13.62587 14.4055,-9.08127 28.9726,-18.00686 44.4153,-25.23768 12.9911,-5.87519 26.4167,-11.46138 40.9472,-11.21862 4.7785,0.46331 8.9902,1.73936 12.7531,4.84792 1.9817,1.70681 2.2789,1.26315 -1.7542,3.88381 -0.1232,0.08 -2.4524,-6.58561 -2.505,-6.82007 -3.371,-10.11877 -6.4955,-20.32097 -10.1211,-30.35426 -5.2909,-14.02056 -11.7647,-27.51707 -17.5285,-41.34251 -3.9255,-10.24277 -7.4707,-20.62609 -11.4559,-30.84228 -1.889,-3.68306 2.662,-3.12231 1.9791,-2.35663 -0.081,1.07829 -1.2391,-1.2726 0.4721,0.62813 2.3442,3.81469 2.226,8.70034 3.3726,12.90835 2.0595,12.35502 3.5962,24.79428 5.9031,37.10919 2.4917,12.9936 5.7003,25.98605 5.4287,39.31129 -0.6313,13.63587 -2.2308,27.24588 -5.4362,40.53533 -0.034,0.24215 -3.459,-0.24496 -3.4245,-0.48711 z"
       inkscape:connector-curvature="0" />
    <path
       style="fill:#241f1c"
       id="path6379"
       d="m 1197.3203,628.24146 c 10.0679,-11.20461 21.5289,-21.00004 33.829,-29.65163 7.8532,-4.85334 15.5836,-9.75336 22.4443,-15.95315 4.5204,-4.34735 9.2758,-8.45278 13.5354,-13.06192 0.3213,-0.37071 0.6549,-0.73106 0.9638,-1.11213 0.286,-0.35293 0.3186,-1.06094 0.7682,-1.12575 0.1247,-0.018 -0.1851,0.28205 -0.092,0.36655 3.3168,3.00086 3.7672,1.05011 2.2329,3.79493 -3.2479,6.43338 -6.7434,12.722 -10.3348,18.96981 -8.5289,14.60641 -14.805,30.38444 -21.6235,45.82768 -5.5235,13.42755 -12.8287,25.96466 -19.4574,38.83736 -0.1146,0.34663 -0.124,1.33134 -0.3439,1.03988 -0.3933,-0.52139 -0.039,-1.34637 -0.3287,-1.93155 -0.1992,-0.40181 -1.2232,-0.43219 -1.0472,-0.84463 0.415,-0.97217 7.1872,-5.1616 8.192,-5.85182 7.9724,-4.72878 14.1426,-11.50247 20.1463,-18.4311 8.345,-10.23929 16.5344,-20.59258 25.1997,-30.56534 4.858,-4.69566 9.0158,-10.31835 14.4211,-14.44034 1.0864,1.28367 2.7004,2.26487 3.2592,3.85102 0.2559,0.72612 -0.821,1.30294 -1.2092,1.96778 -0.5456,0.93443 -1.0759,1.87788 -1.5916,2.82915 -2.5403,4.68596 -4.9246,9.45689 -7.3173,14.21883 -7.6728,15.47556 -15.6149,30.79681 -22.6981,46.55607 -5.7571,15.26307 -13.0704,31.51997 -11.351,48.20121 0.5091,0.96805 0.7936,2.093 1.5274,2.90415 4.4862,4.95947 15.3307,-2.60494 18.978,-4.84567 15.1457,-11.08558 25.6993,-26.82277 35.1742,-42.74106 5.1594,-9.83276 10.8363,-20.28559 10.8208,-31.67714 1.4837,-0.67327 -2.0671,-3.8192 -2.2612,-2.60917 -0.048,0.29567 0.7019,0.30621 0.6655,0.60345 -0.059,0.48429 -0.6324,0.74885 -0.8824,1.16783 -0.4844,0.81161 -0.876,1.67508 -1.3139,2.51262 -4.588,13.98706 -4.2959,29.10333 -4.4062,43.66825 1.1171,8.27487 -1.3478,22.23259 3.4164,29.49611 0.1481,0.2189 -2.9475,2.31314 -3.0956,2.09424 l 0,0 c -0.9053,-0.91211 -2.0253,-1.65252 -2.7158,-2.73634 -5.2606,-8.25727 -3.7742,-19.71794 -4.794,-28.8877 0.056,-15.46162 0.3026,-31.63082 6.503,-46.05998 0.7245,-1.15032 1.2948,-2.41371 2.1736,-3.45095 4.6972,-5.5438 11.1085,-2.26457 12.0778,4.08282 0.5737,12.35573 -4.6734,23.84087 -10.1365,34.65624 -9.6194,17.00634 -20.7762,33.47483 -37.1596,44.67957 -7.8817,4.57414 -20.7285,11.74947 -28.2664,2.28006 -1.0334,-1.29815 -1.5295,-2.94498 -2.2942,-4.41747 -0.3405,-1.93043 -0.9078,-3.83436 -1.0217,-5.7913 -0.9224,-15.85032 5.9342,-31.31666 11.487,-45.71703 7.3279,-15.79053 15.5121,-31.14403 23.7042,-46.50039 3.1886,-5.78538 6.2571,-11.77752 10.1618,-17.12833 0.4599,-0.63032 0.6816,-1.80043 1.4613,-1.82871 1.6998,-0.0616 3.2302,1.06666 4.8453,1.6 -4.0478,5.22347 -8.9539,9.74643 -13.1395,14.8546 -8.5186,10.13448 -16.7796,20.48082 -25.3679,30.55659 -6.4167,7.09743 -13.0102,14.07574 -21.2997,19.03216 -3.3716,2.21714 -16.163,12.83399 -15.2045,1.7977 4.9448,-13.56317 12.6783,-26.01265 18.0297,-39.41788 7.0837,-15.57788 13.9233,-31.38475 23.2304,-45.80218 3.82,-6.14172 7.5415,-12.33749 11.2037,-18.57385 3.617,-5.53673 8.1152,-1.2466 3.5169,2.43525 -4.1957,4.84878 -8.9738,9.119 -13.6463,13.49911 -7.0333,6.13542 -14.7697,11.21917 -22.5015,16.42721 -12.0203,8.84956 -23.2146,18.69333 -34.6853,28.23043 -0.1332,0.16846 -2.5155,-1.71569 -2.3823,-1.88415 z"
       inkscape:connector-curvature="0" />
    <path
       style="fill:#241f1c"
       id="path6381"
       d="m 1314.4362,595.80984 c 2.8393,-13.70864 5.8473,-27.37004 7.9313,-41.21879 1.3621,-9.32536 0.8885,-18.45845 -2.6927,-27.18433 -0.7376,-1.64345 -1.5769,-3.23583 -2.546,-4.75367 -0.1991,-0.31184 -1.0545,-0.91707 -0.6873,-0.8715 1.0497,0.13026 2.083,0.36912 3.1244,0.55369 4.3721,11.02236 6.9611,22.59207 9.4872,34.14182 4.4245,20.76725 6.5016,41.89851 7.9806,63.04652 1.1091,8.94147 0.1235,18.04258 0.9036,26.9901 -0.9107,-0.69637 -2.3166,-1.02063 -2.7322,-2.08911 -0.3521,-0.90552 0.5807,-1.85496 0.8334,-2.79311 0.368,-1.36629 0.7144,-2.73881 1.0285,-4.11852 1.3644,-5.99462 2.3522,-12.05504 3.3439,-18.11914 1.7821,-12.06889 2.7586,-24.23044 3.8481,-36.37475 0.5332,-3.01811 -1.0166,-9.71611 4.7874,-6.57245 0.2973,0.161 1.7224,4.91716 1.9425,5.61702 4.4897,16.00202 7.2977,32.41692 10.2512,48.75391 3.7456,20.70237 5.7081,41.64047 7.1441,62.60887 0.237,5.45824 0.7268,10.91417 0.6789,16.38264 -0.024,2.71444 -0.2562,3.54106 -0.3473,3.50611 -1.7516,-0.67195 -3.188,-1.97883 -4.7821,-2.96824 -1.546,-18.84446 -0.8182,-37.80886 -0.3124,-56.68515 0.865,-31.84857 2.689,-63.65699 5.5435,-95.38711 1.8072,-21.07564 5.6365,-41.88087 11.6985,-62.13519 0.744,-2.25458 1.4881,-4.50917 2.2321,-6.76375 0.073,-0.32277 4.6381,0.71547 4.5647,1.03824 l 0,0 c -0.4907,2.27292 -0.9814,4.54583 -1.4721,6.81875 -3.9238,20.38423 -7.1583,40.89884 -8.586,61.6309 -2.4171,31.67014 -4.5192,63.36357 -6.3182,95.07497 -1.1084,18.68359 -2.1585,37.3748 -2.5056,56.09115 -1.4378,1.01415 -2.7586,2.21877 -4.3134,3.04244 -0.054,0.0285 -0.1395,-0.85653 -0.3596,-3.02833 -0.5472,-5.39883 -1.0594,-10.80111 -1.5976,-16.20084 -2.0866,-20.75707 -4.3914,-41.50025 -7.7365,-62.09868 -2.6231,-16.26093 -4.9153,-32.58294 -8.0108,-48.76232 -0.5789,-2.83462 -2.8346,-6.27582 1.9326,-6.67787 0.099,-0.008 -0.058,6.28879 -0.034,6.9456 -0.4358,12.33455 -1.1749,24.67381 -3.1768,36.86951 -1.1046,6.20785 -2.2151,12.39867 -3.9692,18.46516 -0.1767,0.61131 -2.2146,7.00429 -2.6521,7.34665 -1.233,0.9649 -2.9892,0.93281 -4.4839,1.39922 -2.9045,-7.59154 -1.1328,-19.5135 -2.931,-27.43103 -1.8892,-20.92239 -4.0846,-41.83234 -7.8202,-62.51997 -2.0659,-11.57213 -4.1395,-23.14858 -7.3282,-34.47611 0.8049,-0.95434 1.4492,-2.07158 2.4148,-2.86301 0.3139,-0.25728 3.6846,5.62384 3.9853,6.29858 4.0528,9.12235 5.0328,18.82918 3.7588,28.73993 -1.8815,14.0198 -4.6251,27.98404 -9.3642,41.34627 -0.043,0.18779 -2.6991,-0.42729 -2.6557,-0.61508 z"
       inkscape:connector-curvature="0" />
    <path
       style="fill:#241f1c"
       id="path6383"
       d="m 1212.2703,751.44387 c 4.0815,7.9102 7.9849,16.07229 9.3495,24.93491 -0.884,8.43258 -4.8709,0.99137 -5.637,-2.50357 -0.3004,-7.28606 -0.3033,-14.53384 -1.2207,-21.78348 -1.0211,-5.36866 -1.5746,-11.05848 -3.6231,-16.12226 0.7536,0.46184 1.8015,0.63033 2.2607,1.38552 0.5022,0.82578 0.2087,1.9218 0.3333,2.88021 0.1602,1.2328 0.3342,2.46387 0.5213,3.69289 0.6713,4.41145 1.5944,8.75307 2.5319,13.11389 1.3183,5.42279 2.2595,10.88415 2.5817,16.44796 0.1721,0.52441 0.964,2.74915 -1.4968,-0.82302 -0.218,-0.31636 0.025,-0.76792 0.036,-1.15196 0.042,-1.56186 -0.3651,-1.46464 1.5178,-0.0228 -0.049,2.97023 -1.9969,0.95745 -1.3839,-1.22769 1.2573,0.46156 2.8183,4.52675 -0.3488,1.32968 0.062,-0.50189 0.253,-0.97076 0.419,-1.43648 0.017,-0.10566 1.5114,0.13657 1.4943,0.24223 l 0,0 c -0.021,0.49264 -0.021,0.99712 -0.1542,1.48419 -4.2429,2.04028 -1.0471,-1.43368 0.1793,-1.38673 -0.1534,2.06138 -2.8146,3.86291 -1.9613,0.77082 0.613,-0.36156 1.1589,-0.87526 1.839,-1.08469 0.4353,-0.13404 0.074,6.77751 -1.8568,3.6941 -2.392,-5.0653 -2.9927,-10.85572 -4.4618,-16.20681 -0.6938,-3.41575 -3.7897,-17.49586 -2.6041,-20.41309 0.4586,-1.12859 1.6201,-1.8197 2.4302,-2.72955 4.122,4.21645 3.4548,11.99363 5.0283,17.24033 0.7858,7.23103 0.672,14.42975 0.5344,21.69004 0.127,0.80387 1.4616,3.97117 1.4281,4.09594 -0.8749,3.26099 -1.3838,-0.17868 -1.1914,-0.7174 -2.0417,-8.48041 -5.8832,-16.35738 -8.9894,-24.47368 -0.065,-0.17286 2.3797,-1.09232 2.4447,-0.91946 z"
       inkscape:connector-curvature="0" />
    <path
       style="fill:#241f1c"
       id="path6385"
       d="m 1336.6877,677.23291 c 1.1085,9.71815 1.5565,19.53225 1.134,29.30744 -1.0481,-1.81033 0.269,2.3699 -0.3854,2.09463 -1.0044,-0.42251 -2.125,-0.88152 -2.7423,-1.7795 -0.443,-0.64435 -0.3659,-7.64774 -0.4029,-8.63018 -0.1708,-7.50662 -0.5866,-14.98999 -1.3778,-22.45695 -0.031,-4.09604 -1.8241,-8.41692 -1.1017,-12.52633 0.9209,0.23076 1.9989,0.12857 2.7628,0.69227 1.1459,0.84551 2.6463,12.74948 2.8938,14.38145 0.5686,6.02835 1.9716,11.97973 2.2522,18.03333 -3.1571,-1.09188 -1.4696,-2.70576 -1.9795,-5.57119 4.8541,2.5815 -0.9749,3.45393 0.04,0.13322 1.57,-2.47299 2.0499,0.96707 1.4332,2.48929 -4.3905,-3.86153 1.2494,-3.675 0.2794,-0.68567 -0.035,0.14809 -2.129,-0.34296 -2.0943,-0.49104 l 0,0 c 0.739,-3.09361 5.7245,-0.74956 -0.1174,0.7581 0.2391,-1.69039 2.5827,-4.55109 2.612,-1.62286 -0.6851,3.36119 -5.9233,1.73189 -0.1712,-1.07206 0.4028,1.10642 1.1476,4.73936 0.2707,5.64291 -0.6018,0.62021 -1.5626,0.73888 -2.3439,1.10833 -3.4891,-5.12781 -2.3104,-12.54665 -3.6647,-18.33247 -0.1133,-0.98395 -2.028,-13.89505 -1.9126,-14.07617 0.4404,-0.6916 1.4047,-0.84608 2.1071,-1.26913 0.5576,4.051 1.3822,8.06005 1.896,12.11916 0.8412,7.52912 1.26,15.08583 1.3395,22.66255 0.022,0.83984 0.4365,8.02381 0.091,8.57319 -0.5357,0.85239 -1.6431,1.17664 -2.5396,1.63463 -0.5344,0.27297 1.6761,-5.30097 -0.2154,-1.78718 -0.5953,-9.72205 -1,-19.46726 -0.8001,-29.20882 -0.01,-0.19349 2.7279,-0.31444 2.7365,-0.12095 z"
       inkscape:connector-curvature="0" />
    <path
       style="fill:#241f1c"
       id="path6387"
       d="m 1422.1799,598.4767 c 2.2015,9.41025 3.9328,19.11514 3.6386,28.81715 -0.089,0.39946 0.14,1.24633 -0.2664,1.19838 -1.0738,-0.12671 -2.2119,-0.6858 -2.8411,-1.56507 -0.9381,-1.31085 0.5394,-10.7959 0.7496,-12.57779 0.5136,-5.59635 1.1305,-11.25235 0.3482,-16.84783 0.5668,-0.0807 -1.8832,-4.87148 -1.7377,-4.86124 0.9444,0.0664 1.8667,0.31716 2.8,0.47573 1.8926,3.76826 3.1032,7.79968 3.8917,11.92802 0.2694,0.79001 0.4669,7.74024 -0.728,7.59778 -1.0568,-0.12598 -1.9698,-0.80659 -2.9546,-1.20988 -1.2943,-4.47304 -1.6457,-9.1706 -2.1128,-13.78902 -0.054,-3.09318 -1.3254,-6.45262 -0.5135,-9.52193 1.0378,0.22824 2.1949,0.15028 3.1134,0.68472 1.6774,0.97613 3.1349,9.30929 3.5126,11.188 0.2243,2.16642 0.5744,4.3055 1.0607,6.42643 0.105,0.45834 0.7811,1.42724 0.3138,1.37533 -0.713,-0.0792 -1.3871,-0.36651 -2.0806,-0.54977 -1.6894,-2.80608 1.6114,-3.48713 1.7216,-0.89312 -0.858,2.32075 -2.1391,-0.59629 -2.0795,-1.86113 5.1529,2.24191 0.049,3.60111 -0.033,0.66788 0.1787,-2.39169 2.2274,-0.10322 2.0774,1.71773 -5.1195,-2.07149 -0.016,-3.62396 0.045,-0.6056 0,0.14942 -0.01,0.29884 -0.014,0.44825 -0.011,0.0419 -0.022,0.0837 -0.033,0.12561 0.01,0.13197 -1.8589,0.23752 -1.8663,0.10555 l 0,0 c -0.017,-0.0403 -0.033,-0.0806 -0.05,-0.12094 -0.025,-0.14776 -0.049,-0.29552 -0.074,-0.44327 -0.3424,-2.98708 4.938,-2.04462 0.1258,0.5967 -0.3961,-1.8011 1.3336,-4.28147 1.8317,-1.94038 0.3121,2.89258 -4.9358,2.20158 -0.1333,-0.69128 0.3129,1.51672 -0.7596,4.67314 -1.8256,2.16238 -0.6345,-4.32579 3.2635,-1.80437 2.3953,0.51461 -0.6104,0.48758 -1.121,1.13702 -1.8311,1.46274 -0.4271,0.1959 -2.4047,-7.21788 -2.6445,-7.96245 -0.6512,-3.06267 -1.2749,-6.10775 -2.3782,-9.04528 -0.1883,-0.50145 -0.8221,-1.01216 -0.5898,-1.49481 0.3435,-0.71371 1.305,-0.89798 1.9576,-1.34697 0.1298,2.92193 0.5307,5.8364 0.9157,8.73792 0.4955,4.37079 0.9481,8.75519 1.7388,13.08436 -0.6523,0.31818 -1.2889,0.6709 -1.957,0.95453 -0.3226,0.13694 0.277,-0.65302 0.3232,-1.00039 0.2169,-1.62916 0.01,-3.26044 -0.2171,-4.87611 -0.8403,-4.02663 -2.0008,-7.96211 -3.5742,-11.76735 0.6599,-0.76318 1.181,-1.67304 1.9797,-2.28954 0.045,-0.035 0.9212,1.53702 1.2967,2.46814 0.5473,1.35743 0.598,1.70438 1.0169,3.18546 1.0429,5.79181 0.7483,11.71076 0.099,17.53695 -0.1223,0.93891 -1.0584,11.82367 -1.1518,11.9713 -2.5161,3.97766 -2.4206,1.96416 -2.5295,0.72917 -0.9644,-9.51689 -2.2591,-18.99749 -3.1308,-28.52379 -0.027,-0.16933 2.3681,-0.54522 2.3947,-0.37588 z"
       inkscape:connector-curvature="0" />
    <path
       style="fill:#241f1c"
       id="path6391"
       d="m 11.301958,1049.6573 c 6.895471,-10.0464 14.768582,-19.3808 23.059583,-28.294 5.02906,-4.0392 9.934185,-12.1015 16.963228,-12.7811 0.692532,0.4694 1.586456,0.731 2.077597,1.4083 1.802463,2.4856 -0.193265,11.9314 -0.58138,14.8133 -0.454709,5.5048 -2.497953,11.3901 -0.86031,16.8519 0.255523,0.1995 0.453518,0.5143 0.76657,0.5984 1.660911,0.4466 9.671888,-4.4408 11.04818,-5.2058 8.534527,-4.5184 16.156679,-10.4087 23.848394,-16.1839 6.956497,-4.8198 11.285933,-8.6263 19.95047,-6.4537 5.00229,3.7194 5.91187,10.2567 7.36904,15.9443 1.39222,4.8518 2.33634,9.3165 8.32899,7.8778 9.54035,-2.2726 17.58231,-8.0055 25.26317,-13.8375 7.63611,-6.2261 15.12127,-12.6605 24.06239,-16.9322 7.74369,-3.0706 11.13537,-0.8776 14.94967,5.8934 2.79667,6.2412 5.52475,12.4347 10.83297,16.9237 4.74793,2.7585 9.47559,0.5414 13.90183,-1.8055 9.18131,-6.3824 18.10269,-13.1093 27.54842,-19.1164 5.76362,-3.0489 13.56936,-9.57045 20.70977,-6.7043 0.97554,0.3916 1.64755,1.306 2.47133,1.959 4.24917,6.2942 5.29294,14.0714 7.30814,21.2654 0.93522,2.2634 1.7081,6.512 4.89403,6.7026 0.84849,0.051 1.6007,-0.5754 2.41594,-0.816 6.55113,-3.8778 11.68481,-9.7617 17.28493,-14.8529 7.14229,-6.1889 14.45245,-12.4009 23.07945,-16.4025 9.20614,-2.86805 9.27882,3.9413 9.31911,10.8703 0.0184,7.0843 -1.45861,14.7272 1.89,21.2757 4.05813,3.0556 10.64021,-2.0922 14.08767,-4.339 7.45025,-5.9175 13.61122,-13.2422 20.16346,-20.098 2.83634,-2.3832 7.28794,-8.46318 11.8816,-6.6213 0.69496,0.2787 1.05688,1.0609 1.58531,1.5913 2.23764,6.0278 2.12432,12.6815 3.07232,19.0154 0.66332,2.9616 1.27385,10.2675 5.94789,8.4298 8.17253,-2.4699 15.29165,-7.3207 21.95981,-12.509 5.72519,-4.7721 10.8135,-10.45 17.66963,-13.6051 7.71397,-2.04 9.78805,5.6186 11.50099,11.438 2.04531,6.5662 2.21695,14.2415 6.57373,19.8299 5.20232,2.2712 12.82791,-3.2119 17.29808,-5.5726 9.86215,-5.2431 18.1877,-12.6828 26.86846,-19.5857 4.82103,-3.4968 10.62493,-8.2897 16.92051,-5.2524 0.97724,0.4715 1.6619,1.3955 2.49285,2.0932 4.85482,6.2865 6.2871,14.3108 8.26043,21.8271 1.73973,5.4839 2.56569,9.914 9.08661,7.2835 9.26665,-3.4055 17.20708,-9.3231 24.49319,-15.8474 6.06795,-6.0569 12.00251,-12.3298 19.91344,-15.9009 8.64096,-2.54 11.08688,2.4422 13.56252,9.6319 2.01544,6.1378 2.07673,13.5717 6.70247,18.4587 6.07156,2.2975 13.17596,-2.294 18.34917,-5.1755 10.52429,-7.484 20.88636,-15.1516 31.84746,-22.0008 7.39331,-3.7235 15.66239,-9.98908 24.47864,-9.36567 1.4316,0.10124 2.81215,0.57503 4.21823,0.86254 0.82433,0.70642 1.8123,1.25784 2.47299,2.11925 3.76448,4.90818 3.20431,15.50488 3.54359,21.42818 0.73803,4.1719 -0.5991,14.8429 5.34069,15.8643 6.95786,-3.3357 12.75896,-8.6604 18.69549,-13.5321 9.80069,-7.8014 19.323,-15.9748 29.41677,-23.39893 6.89943,-4.42552 12.34661,-8.21219 18.47221,-0.5665 3.78419,7.33053 4.78719,15.68103 6.61386,23.63893 1.48081,5.1431 2.1005,9.7621 8.22594,6.8801 11.057,-5.2165 20.87087,-12.7408 30.80799,-19.7875 9.86996,-6.9703 18.73137,-15.17815 27.74737,-23.1795 8.16217,-6.67023 9.73436,0.45248 10.8193,7.49607 0.97379,9.57593 1.01435,19.20773 2.32629,28.75073 1.71054,7.5506 2.63889,5.5801 7.82725,2.1292 9.97327,-8.1966 19.4894,-16.9384 29.07962,-25.57673 7.75957,-7.01261 15.18948,-14.90957 25.20972,-18.54438 9.68227,-1.91194 11.08278,5.91081 12.74446,13.41087 1.53164,8.55324 1.77135,17.51844 5.80871,25.36684 1.10296,1.0284 1.44529,1.91 3.08241,1.626 2.18568,-0.3791 10.34903,-6.8385 11.99726,-8.1184 9.95954,-8.3364 18.75941,-17.91687 29.06587,-25.8397 4.20783,-2.55408 12.75676,-8.83701 17.54691,-3.80827 0.76469,0.80278 1.1259,1.91028 1.68884,2.86542 2.32028,9.86864 1.44108,20.18385 2.14093,30.26245 1.10307,6.6231 0.85517,14.2097 9.41197,13.2354 10.13089,-3.4048 18.42332,-10.0388 26.50772,-16.7966 8.6494,-7.6588 16.5466,-16.42282 27.2055,-21.26555 10.929,-2.83239 12.9558,4.7367 15.0732,13.44595 1.7723,7.9757 2.0326,16.7095 7.4665,23.2087 5.4654,3.9541 11.2824,0.4341 16.3324,-2.5083 10.1579,-7.2559 19.3027,-15.813 28.5706,-24.1462 5.6579,-4.18145 12.8181,-12.586 20.3421,-13.37014 1.3198,-0.13755 2.6505,0.13628 3.9757,0.20442 0.8201,0.63066 1.7896,1.10428 2.4603,1.89198 3.8741,4.55004 3.6958,14.56004 4.1761,20.20254 1.1286,4.9786 -0.5915,14.4586 4.628,17.5978 5.2556,-1.0769 9.5394,-6.3299 13.2321,-9.9608 9.2419,-9.4098 18.3243,-18.93675 28.6014,-27.22979 5.3737,-3.61128 13.7835,-10.66649 20.7311,-6.19036 0.9903,0.63803 1.4576,1.85104 2.1865,2.77656 2.8277,8.34071 2.0403,17.40669 2.88,26.10499 0.2465,1.2189 0.4125,2.4568 0.7393,3.6566 0.5958,2.1878 4.7254,8.699 4.6093,5.3063 6.6202,-4.7263 12.2803,-10.9206 18.2951,-16.4384 8.5118,-7.75425 17.3636,-15.25562 28.075,-19.70865 10.7637,-2.94103 12.0961,3.9011 12.8234,12.62154 0.3817,7.73781 -0.2281,15.83891 3.8248,22.73131 0.9755,0.7716 1.4488,1.57 2.8153,1.2564 0.2,-0.046 0.1608,-0.4042 0.3307,-0.5192 2.8412,-1.9224 5.4096,-3.7072 8.075,-5.9562 8.5308,-7.4533 17.2386,-14.6887 26.5084,-21.2065 4.7666,-2.9078 13.1602,-8.75069 18.481,-3.5093 0.8221,0.8098 1.2896,1.91395 1.9344,2.87093 2.8069,7.58387 2.1528,15.80817 2.5855,23.74887 -1.5494,0.6278 2.6407,8.7498 4.0228,5.0138 5.8124,-4.3181 10.571,-9.9562 15.7274,-15.0336 6.125,-5.6581 12.1462,-12.17341 20.2961,-14.74224 1.2141,0.0688 2.4972,-0.20283 3.6423,0.20651 4.9959,1.78595 3.3972,10.93793 3.1062,14.63573 -0.2179,5.1197 -1.6826,10.7398 0.2527,15.6932 0.8275,0.8593 3.5161,-1.6813 5.3515,-3.0926 5.4858,-4.6634 10.1814,-10.1326 14.9153,-15.5286 2.2762,-2.2416 5.6361,-8.56667 9.9065,-6.8563 0.8328,0.33353 1.1531,1.3745 1.7296,2.0618 2.2727,6.9608 3.08,14.337 3.968,21.581 1.1375,3.1147 -0.8087,12.4114 3.4087,13.6595 6.0138,-0.7879 11.7036,-3.5001 17.2511,-5.8664 1.0405,-0.5145 2.0811,-1.0291 3.1216,-1.5436 0.199,-0.1741 2.66,2.6394 2.4611,2.8134 l 0,0 c -0.9695,0.7355 -1.9389,1.471 -2.9084,2.2066 -6.6745,4.1464 -15.0514,8.3423 -23.016,5.815 -4.9619,-4.0387 -4.6893,-10.6227 -5.5288,-16.5462 -0.8354,-6.7509 -1.5324,-13.5298 -2.6797,-20.2358 0.667,-0.087 1.2795,-0.4767 1.951,-0.515 0.2742,-0.016 -0.5075,0.2293 -0.7147,0.4095 -0.4387,0.3817 -0.8263,0.82 -1.2054,1.2609 -1.2615,1.4667 -2.3524,3.075 -3.6349,4.5245 -4.7829,5.777 -9.6835,11.5101 -15.586,16.1924 -3.9713,2.8393 -9.5385,6.5897 -13.1528,1.1056 -2.2615,-5.562 -1.5221,-11.6984 -0.8883,-17.5301 0.2227,-2.0475 0.5244,-4.4267 0.5973,-6.5048 0.023,-0.6428 -0.4876,-2.83478 -0.3972,-3.55282 0.018,-0.14439 0.1925,-0.21831 0.2888,-0.32746 -7.4471,2.24298 -12.5499,9.27718 -18.3665,14.00708 -5.6879,5.3939 -11.0094,11.3969 -17.5688,15.7275 -1.2366,0.2891 -2.4428,0.7805 -3.7098,0.8673 -5.2847,0.3624 -7.1318,-5.5225 -7.6944,-9.6101 -0.6147,-7.3011 -0.014,-14.7635 -1.7689,-21.91604 -2.8218,-5.48505 -8.8658,0.40902 -12.3696,2.41479 -9.0891,6.61795 -17.7318,13.79795 -26.4794,20.85545 -5.7253,4.4719 -12.988,10.8678 -19.3924,3.7556 -4.484,-7.5188 -4.6451,-15.9988 -4.4494,-24.57296 -0.032,-0.96353 0.4216,-9.60857 -2.4373,-9.38221 -0.913,0.0723 -1.79,0.38916 -2.685,0.58374 -10.1073,4.52261 -18.3904,11.96483 -26.6893,19.15583 -6.6996,5.8593 -13.0671,12.5611 -20.8056,16.9869 -1.2285,0.056 -2.4663,0.3274 -3.6856,0.1668 -5.6827,-0.7483 -7.3001,-8.3796 -8.2752,-12.7597 -0.9071,-8.1053 -0.251,-16.31125 -1.6703,-24.32446 -0.2895,-0.46783 -0.5911,-0.92837 -0.8684,-1.4035 -0.1294,-0.22167 -0.1004,-0.62984 -0.351,-0.68541 -5.0736,-1.12498 -10.2361,4.62744 -14.0029,6.8584 -10.0132,8.43717 -19.0992,17.82447 -28.5374,26.88577 -5.4653,4.997 -12.074,12.704 -20.2606,9.7101 -5.8374,-4.9799 -5.9058,-13.1058 -6.5851,-20.2532 -0.3682,-5.3542 0.3575,-14.04009 -3.0912,-18.38934 -2.5839,-1.97808 -16.7448,10.69544 -18.75,12.60274 -9.4522,8.6131 -18.9299,17.3081 -29.566,24.4618 -7.4435,4.1878 -15.9947,7.5517 -23.3118,1.2412 -5.7415,-7.1403 -7.0636,-15.9542 -8.3498,-24.8306 -0.3964,-1.9395 -1.6649,-10.90655 -5.0007,-10.94317 -0.8809,-0.01 -1.7385,0.28635 -2.6077,0.42952 -10.1888,4.84495 -17.3855,13.92135 -25.8699,21.10005 -9.3812,7.8114 -19.24176,15.9191 -31.7441,17.5742 -1.28265,-0.1268 -2.60637,-0.034 -3.84794,-0.3804 -7.19825,-2.0064 -8.55047,-10.7949 -9.51355,-16.9715 -0.76089,-9.6525 0.0267,-19.31334 -0.87561,-28.9316 -2.09355,-5.4595 -8.88612,1.08537 -11.7577,2.70126 -10.09924,8.20455 -18.77016,17.98914 -29.0407,26.00374 -6.44774,4.6994 -15.81037,12.833 -22.78695,4.6983 -4.46253,-8.1377 -5.17826,-17.2999 -6.29669,-26.37954 -0.24133,-1.35613 -1.65078,-10.50763 -3.8679,-10.73704 -0.70125,-0.0726 -1.40571,0.1097 -2.10857,0.16455 -9.4466,3.54701 -15.96507,11.85463 -23.36359,18.33903 -9.68532,8.9221 -19.56052,17.6935 -30.18517,25.492 -8.04818,4.8871 -12.62691,5.3195 -15.25469,-4.8473 -1.71165,-9.5593 -1.74814,-19.2268 -2.14155,-28.90701 -0.5464,-6.25643 -5.9e-4,-1.06469 -0.71718,-5.99889 -0.0461,-0.31766 -0.24098,-0.67685 -0.0879,-0.95896 0.15588,-0.28715 1.18819,-0.48269 0.86184,-0.46693 -1.17717,0.0568 -2.63027,1.70097 -3.22126,2.21289 -8.58827,8.68953 -17.37194,17.2307 -27.37533,24.3146 -10.37772,7.2883 -20.82926,14.8767 -32.60027,19.7602 -10.09108,1.9066 -11.51674,-0.4836 -14.48637,-9.8525 -1.8418,-7.4813 -2.64974,-15.3107 -5.64961,-22.4418 -3.88044,-5.44227 -7.332,-1.27582 -11.83789,1.6827 -9.75663,7.7898 -19.20387,15.9643 -29.08006,23.6071 -4.73923,3.6882 -14.37751,12.2866 -20.38487,13.3886 -1.28363,0.2354 -2.60994,0.028 -3.91491,0.043 -7.59916,-3.5969 -7.19234,-11.5393 -7.9385,-18.9426 -0.19866,-4.1571 0.35239,-15.6515 -1.88451,-19.0455 -0.31454,-0.4772 -0.86209,-0.7507 -1.29314,-1.1261 -6.57867,-2.69296 -18.07003,5.9947 -23.63065,8.6814 -10.99597,6.9384 -21.44916,14.6395 -32.19069,21.9486 -7.34694,4.0283 -16.7134,9.0312 -24.67982,3.8307 -4.74485,-5.5512 -5.89143,-12.748 -7.46039,-19.7121 -1.13076,-3.7879 -2.15351,-8.8427 -7.10924,-7.3859 -7.54246,3.4102 -12.83027,9.9131 -18.64287,15.5941 -7.728,7.0567 -16.18896,13.4111 -26.28672,16.6371 -10.38041,1.6932 -11.89184,-0.6357 -15.15181,-10.1642 -1.87736,-6.8251 -2.99136,-14.1621 -7.00093,-20.1354 -0.73138,-0.6513 -1.21156,-1.7749 -2.16875,-1.9822 -4.07935,-0.8835 -7.89095,3.7303 -10.89391,5.5833 -8.70778,7.3071 -17.15774,15.0449 -27.36941,20.2672 -6.97494,3.4448 -16.14261,9.2166 -23.49488,3.8685 -4.65624,-6.0471 -5.66135,-13.6826 -7.31635,-20.9601 -0.8592,-3.3962 -1.5963,-6.2193 -3.65633,-9.0105 -0.0816,-0.1106 0.0257,-0.3742 -0.1097,-0.3974 -0.48225,-0.083 -0.97478,0.086 -1.46217,0.1283 -6.5668,3.0555 -11.037,9.1347 -16.59538,13.592 -7.16092,5.7605 -14.97679,10.8018 -23.99059,13.093 -1.32583,0.016 -2.66676,0.2487 -3.9775,0.048 -5.26494,-0.8041 -6.41759,-7.4882 -7.32818,-11.6244 -0.87851,-5.8558 -0.99494,-11.763 -1.82747,-17.6144 -0.0327,-0.2461 0.65696,-0.6657 0.41294,-0.6199 -3.21834,0.6043 -5.23985,4.3623 -7.55943,6.2436 -6.59402,7.2166 -12.88491,14.8408 -20.69906,20.7969 -6.02037,3.8876 -14.49755,9.1021 -20.60999,2.6551 -3.68952,-7.13 -3.00551,-15.073 -2.41477,-22.8726 0.0103,-0.2174 0.91594,-8.343 -0.79401,-8.1194 -0.69493,0.091 -1.35615,0.3544 -2.03423,0.5315 -8.13987,4.1408 -15.01087,10.3164 -22.02067,16.0836 -6.04028,5.3603 -11.76659,11.3874 -18.89479,15.2974 -7.72935,2.2919 -10.61563,-1.4337 -13.07129,-8.2695 -1.95895,-6.568 -2.90796,-13.5851 -6.06796,-19.6988 -0.25182,-0.2139 -1.53025,-1.5016 -2.18791,-1.4995 -5.60288,0.018 -10.45303,4.87 -15.10337,7.2361 -9.4623,6.2009 -18.75656,12.6583 -28.28353,18.7557 -6.2235,3.2145 -12.80609,5.4325 -19.21531,1.2128 -5.58171,-4.8039 -8.82678,-11.1399 -11.41931,-17.9626 -2.26118,-4.486 -4.02923,-6.645 -9.13795,-4.2325 -8.60454,4.3304 -15.67569,10.9241 -23.18371,16.8607 -8.18013,6.3775 -16.88971,12.3843 -27.26292,14.4257 -9.33204,0.1821 -10.7551,-2.1514 -13.33415,-10.7711 -1.16474,-4.5855 -1.58608,-10.3755 -5.3241,-13.651 -3.94164,-2.6385 -12.190548,4.2958 -15.188297,6.3069 -7.776985,5.9691 -15.532512,12.0453 -24.335106,16.4707 -4.864484,2.5046 -13.172931,8.1198 -17.472069,2.1445 -1.754675,-5.8953 -0.198169,-12.109 0.655306,-18.0485 0.154675,-0.9291 1.691486,-12.9629 1.730976,-13.0406 0.121609,-0.2393 0.497909,-0.2007 0.746863,-0.3011 -3.175129,-0.7388 -12.246834,10.6737 -14.573225,12.5206 -8.229367,8.9478 -15.910147,18.3677 -24.106826,27.3421 -0.08822,0.1406 -2.0766,-1.107 -1.988384,-1.2476 z"
       inkscape:connector-curvature="0" />
  </g>
</svg>
