<?xml version="1.0" encoding="UTF-8" standalone="no"?>
<!-- Created with Inkscape (http://www.inkscape.org/) -->

<svg
   xmlns:dc="http://purl.org/dc/elements/1.1/"
   xmlns:cc="http://creativecommons.org/ns#"
   xmlns:rdf="http://www.w3.org/1999/02/22-rdf-syntax-ns#"
   xmlns:svg="http://www.w3.org/2000/svg"
   xmlns="http://www.w3.org/2000/svg"
   xmlns:sodipodi="http://sodipodi.sourceforge.net/DTD/sodipodi-0.dtd"
   xmlns:inkscape="http://www.inkscape.org/namespaces/inkscape"
   width="16in"
   height="6.5in"
   viewBox="0 0 1440 585"
   id="svg2"
   version="1.1"
   inkscape:version="0.91 r13725"
   sodipodi:docname="Albertsvg.svg">
  <defs
     id="defs4" />
  <sodipodi:namedview
     id="base"
     pagecolor="#ffffff"
     bordercolor="#666666"
     borderopacity="1.0"
     inkscape:pageopacity="0.0"
     inkscape:pageshadow="2"
     inkscape:zoom="0.35"
     inkscape:cx="884.92451"
     inkscape:cy="520"
     inkscape:document-units="px"
     inkscape:current-layer="layer1"
     showgrid="false"
     units="in"
     width="15in"
     inkscape:window-width="1440"
     inkscape:window-height="897"
     inkscape:window-x="-8"
     inkscape:window-y="-8"
     inkscape:window-maximized="1" />
  <metadata
     id="metadata7">
    <rdf:RDF>
      <cc:Work
         rdf:about="">
        <dc:format>image/svg+xml</dc:format>
        <dc:type
           rdf:resource="http://purl.org/dc/dcmitype/StillImage" />
        <dc:title></dc:title>
      </cc:Work>
    </rdf:RDF>
  </metadata>
  <g
     inkscape:label="Layer 1"
     inkscape:groupmode="layer"
     id="layer1"
     transform="translate(0,-467.3622)">
    <path
       style="fill:#000000;fill-opacity:1;fill-rule:nonzero;stroke:none;stroke-width:1px;stroke-linecap:butt;stroke-linejoin:miter;stroke-opacity:1"
       id="path3440"
       d="m 49.840888,593.60406 c 10.116952,0.70452 20.272202,0.55664 30.417802,0.4528 13.339017,-0.17793 26.64211,-0.92338 39.86785,-2.16554 18.16443,-1.90034 36.30427,-3.91381 54.40264,-6.11368 15.48771,-1.94214 31.01043,-3.73495 46.592,-5.24665 11.18235,-1.08434 22.35275,-2.2282 33.57125,-3.10691 7.87947,-0.46575 15.7225,-1.28145 23.62588,-1.51082 4.3511,-0.0441 8.70005,-0.15745 13.04786,-0.27585 3.27486,-0.13351 6.55015,0.062 9.81201,0.26607 3.52159,0.024 6.96612,0.67331 10.48472,0.59801 2.05298,-0.10018 4.0826,-0.30197 6.1377,-0.32917 0.65984,1.01831 1.34344,-0.31779 1.08695,-0.18394 -50.5686,26.39104 -16.72216,9.34787 -27.28735,14.66499 -8.75539,4.95181 -0.98431,0.51202 25.53087,-10.435 0.37786,-0.15602 -0.75485,0.31335 -1.12353,0.48021 -1.47507,0.66762 -2.84982,1.42703 -4.23086,2.18855 -5.46052,3.30282 -10.47023,6.974 -15.55152,10.56922 -10.13402,6.65631 -18.76343,14.30147 -27.18216,22.05204 -9.55063,8.85885 -18.34617,18.10794 -26.97702,27.43167 -4.87422,5.16134 -9.70351,10.35082 -14.76177,15.42143 -1.07201,1.40805 -2.85709,2.38613 -4.46865,3.4561 0,0 -26.0522,8.42216 -26.0522,8.42216 l 0,0 c -0.96466,-1.0457 -0.80196,-1.39653 0.42344,-2.51944 5.28662,-5.41818 11.17904,-10.52459 16.4842,-15.93512 9.34097,-9.2621 18.10782,-18.82099 27.91782,-27.83995 8.16771,-7.70026 16.42926,-15.3965 26.24195,-22.07999 4.84523,-3.47778 9.4756,-7.11343 14.48176,-10.47264 9.97025,-6.40053 22.30283,-11.10933 34.3218,-14.96296 12.23149,-2.15785 -15.22269,15.33551 -24.78688,13.25335 -1.97204,-0.0127 -3.95777,0.2401 -5.93289,0.0433 -3.38947,-0.35552 -6.79762,-0.62024 -10.21593,-0.78196 -3.19569,-0.13437 -6.3896,-0.22868 -9.58971,-0.0827 -4.26414,0.0972 -8.52229,0.19438 -12.78955,0.1755 -7.73475,0.30574 -15.43925,0.92275 -23.15152,1.42977 -11.02871,0.87539 -22.02607,1.93955 -33.04246,2.88873 -15.43395,1.46779 -30.79603,3.26221 -46.15444,5.08725 -18.07082,2.02399 -36.14734,4.02043 -54.24175,5.93416 -13.370822,1.17306 -26.808066,2.23331 -40.302162,2.06216 -9.955981,-0.12673 -19.925881,-0.20512 -29.833744,-0.99833 0,0 23.227594,-11.83678 23.227594,-11.83678 z"
       inkscape:connector-curvature="0" />
    <path
       style="fill:#000000;fill-opacity:1;fill-rule:nonzero;stroke:none;stroke-width:1px;stroke-linecap:butt;stroke-linejoin:miter;stroke-opacity:1"
       id="path3442"
       d="m 170.66465,632.06227 c 2.3461,7.77051 0.7784,15.62721 -0.93462,23.36461 -2.7809,12.45714 -8.10499,24.50902 -13.63507,36.45356 -7.35467,15.0428 -15.02881,30.00247 -22.30771,45.0653 -6.32803,13.34108 -12.25724,26.77953 -19.25637,39.95112 -4.38865,8.29086 -9.56257,16.3476 -14.938669,24.32885 -3.080002,4.33014 -5.937508,8.74776 -9.121407,13.03952 -1.430547,1.89812 -2.832026,3.80542 -4.324911,5.67865 -5.103825,4.69625 -24.663456,15.24997 -25.292398,7.55747 0.0292,-0.39846 -0.01846,-0.76705 -0.170319,-1.14635 0,0 20.090491,-5.98454 20.090491,-5.98454 l 0,0 c -0.3293,-0.33198 -0.433379,-0.24031 -0.5894,0.15112 -1.621685,6.88469 13.283711,-4.57446 -22.808631,8.67598 -0.358354,0.13156 -0.752439,0.83137 -0.912585,0.56683 -0.08799,-0.14537 0.211721,-0.27826 0.317581,-0.41738 1.395744,-1.86085 2.790769,-3.72025 4.186265,-5.58085 3.147512,-4.29825 6.123016,-8.657 9.180524,-12.98822 5.666514,-8.06001 11.250841,-16.15401 16.086866,-24.49251 7.483827,-13.344 14.104423,-26.91712 20.953663,-40.43242 7.54133,-15.18336 15.59629,-30.23283 23.28516,-45.3781 6.12728,-12.33961 11.89513,-24.76529 16.97989,-37.34826 3.09686,-8.06976 6.31145,-16.26765 6.28154,-24.7064 0,0 16.93011,-6.35798 16.93011,-6.35798 z"
       inkscape:connector-curvature="0" />
    <path
       style="fill:#000000;fill-opacity:1;fill-rule:nonzero;stroke:none;stroke-width:1px;stroke-linecap:butt;stroke-linejoin:miter;stroke-opacity:1"
       id="path3444"
       d="m 347.38955,611.64466 c 3.11423,8.70115 2.28529,18.03622 2.17334,26.9657 -0.3139,14.37683 -1.76612,28.69721 -3.92945,42.98464 -2.34389,12.58884 -5.71274,25.0559 -9.17242,37.50589 -2.81467,10.44912 -6.91635,20.67785 -11.18117,30.86036 -2.96282,6.60764 -6.19643,13.15007 -9.47797,19.67893 -0.79096,1.66799 -1.75428,3.293 -2.54345,4.96129 -0.0769,0.21965 -0.0312,0.25083 0.097,0.48422 0,0 -28.57041,8.54722 -28.57041,8.54722 l 0,0 c 0.45254,0.62366 0.009,0.0623 0.36086,0.13885 1.33803,-1.57886 2.15229,-3.36481 3.25227,-5.02574 3.70568,-6.48867 6.80276,-13.1537 10.10916,-19.74943 4.76728,-10.18983 8.96892,-20.51709 12.271,-31.00422 3.92725,-12.57579 7.68589,-25.19163 10.71355,-37.8955 3.57914,-14.68631 6.36229,-29.466 8.17736,-44.32046 0.76823,-6.02337 1.49659,-12.03657 1.5928,-18.08958 0.19781,-12.44542 -0.11731,2.84481 -0.50104,-6.8659 -0.039,-0.98806 0.12334,-1.97495 0.18496,-2.96241 0,0 16.44358,-6.21386 16.44358,-6.21386 z"
       inkscape:connector-curvature="0" />
    <path
       style="fill:#000000;fill-opacity:1;fill-rule:nonzero;stroke:none;stroke-width:1px;stroke-linecap:butt;stroke-linejoin:miter;stroke-opacity:1"
       id="path3446"
       d="m 402.73977,608.9312 c -1.52538,7.24343 -0.87872,14.61302 -0.34869,21.89588 0.65373,10.10586 0.95464,20.2199 1.41746,30.33019 0.29016,11.13618 0.22265,22.27157 -0.14885,33.4058 -0.31776,10.67514 -0.80283,21.34292 -1.42958,32.01044 -0.3237,8.17184 -0.96189,16.33361 -1.53064,24.49767 -0.13633,3.59799 -0.52445,7.20894 -0.30088,10.80959 0.0238,0.13784 0.14035,0.28361 0.0718,0.41352 -0.28822,0.54531 -0.143,-1.89223 -0.87289,-1.63365 -34.59339,12.25552 -30.69651,15.97154 -23.52065,8.68096 5.50956,-5.89868 10.55821,-12.01363 15.57308,-18.13244 8.66457,-10.51811 17.30056,-21.0474 26.17086,-31.47748 4.81038,-5.43558 9.52439,-10.9187 14.75277,-16.15605 3.29133,-2.59036 7.2318,-4.69072 11.29714,-6.61488 0.2036,-0.52577 0.46382,0.14067 0.64168,0.35902 38.55216,-14.62437 -4.55875,2.10219 -0.70185,-1.16963 0.11025,-0.004 0.0772,-0.0729 0.11588,-0.10923 0,0 14.35627,-4.30273 14.35627,-4.30273 l 0,0 c -0.067,0.0451 -0.153,0.0752 -0.20118,0.1353 -30.28095,21.59842 -9.64768,-8.07468 -0.87804,-1.00654 0.46002,0.43929 0.86724,0.84019 0.66754,1.4137 3.23517,-0.14836 4.78429,0.42111 2.59683,2.71104 -5.81801,5.10704 -10.75573,10.69958 -15.70869,16.24259 -9.3454,10.27433 -17.9791,20.86399 -26.49579,31.4989 -4.77754,5.93473 -9.40477,11.93294 -14.26339,17.83031 -6.10632,7.38098 -25.95285,21.3861 -30.91173,11.33333 -0.0105,-3.74289 0.62432,-7.47769 0.8546,-11.21376 0.85441,-8.28394 1.88271,-16.55753 2.56059,-24.85098 1.01401,-10.80403 1.87559,-21.61527 2.71248,-32.42719 0.69533,-11.21439 1.12144,-22.4336 1.06739,-33.66041 0.39279,-10.4621 0.53501,-20.93091 1.3752,-31.38248 0.87191,-8.03783 1.5081,-16.18339 4.92984,-23.9245 0,0 16.15158,-5.50624 16.15158,-5.50624 z"
       inkscape:connector-curvature="0" />
    <path
       style="fill:#000000;fill-opacity:1;fill-rule:nonzero;stroke:none;stroke-width:1px;stroke-linecap:butt;stroke-linejoin:miter;stroke-opacity:1"
       id="path3448"
       d="m 548.31455,615.26144 c -2.39504,7.78673 -3.05103,15.78161 -3.93544,23.70999 -1.01327,12.25038 -2.42681,24.48126 -4.79645,36.63679 -2.04721,10.17443 -5.49412,20.16897 -9.13005,30.10222 -1.58859,4.74335 -2.77073,9.7013 -7.83031,13.19313 -5.11732,-2.16321 -1.11905,1.01926 -1.91272,1.27807 -6.13445,2.00036 -12.30275,3.95064 -18.53361,5.79196 -0.19132,0.0565 -0.40417,-0.3497 -0.21902,-0.41598 6.05534,-2.16785 12.1737,-4.24431 18.26055,-6.36647 3.91052,4.43718 -14.59285,11.0854 -18.15447,6.53741 0,0 17.90847,-7.13547 17.90847,-7.13547 l 0,0 c 1.63024,5.03982 -16.44623,13.01454 -17.52938,7.66267 41.29428,-17.57815 5.06248,-1.23293 -1.41655,-0.23765 -0.36157,-0.0835 -0.88921,-0.0173 -1.08475,-0.25047 -1.27699,-1.52307 3.13473,-9.17807 3.53294,-10.86469 4.09746,-10.04001 8.08638,-20.11335 10.79832,-30.40346 2.86322,-12.46138 4.65598,-25.02253 7.40978,-37.49565 1.95128,-8.59543 3.79355,-17.30409 7.95512,-25.52268 0,0 18.67757,-6.21972 18.67757,-6.21972 z"
       inkscape:connector-curvature="0" />
    <path
       style="fill:#000000;fill-opacity:1;fill-rule:nonzero;stroke:none;stroke-width:1px;stroke-linecap:butt;stroke-linejoin:miter;stroke-opacity:1"
       id="path3450"
       d="m 599.144,607.67783 c -2.95157,6.31768 -2.25854,13.19453 -1.69365,19.74312 1.41693,10.37283 2.26694,20.77392 3.16109,31.17495 1.03287,11.04692 0.87798,22.12034 1.10756,33.18395 0.0245,6.92981 0.0471,13.85981 0.58548,20.78038 0.0809,0.95275 0.50815,5.14653 -1.65669,5.45072 -0.69185,0.0972 -1.42599,-0.53489 -2.06629,-0.32357 -6.06701,2.00229 -11.75348,4.54931 -17.63024,6.82396 0.38246,-0.72576 0.67774,-1.47208 0.9429,-2.22338 0.001,-0.20964 0.0954,-0.0238 0.12308,-0.0307 0,0 17.35637,-6.30518 17.35637,-6.30518 l 0,0 c 0.0305,0.11804 0.10672,0.19531 0.0299,0.32304 -0.29682,0.82269 -0.66338,1.63118 -1.04232,2.43631 -6.14421,2.78765 -12.03068,5.89042 -18.43265,8.36294 -0.55821,0.21559 -4.06215,-0.50059 -4.46548,-1.13625 -0.64078,-1.00989 0.19777,-2.31918 -0.49088,-3.30901 -0.24323,-7.0903 0.30346,-14.16893 0.4299,-21.25743 0.33562,-11.14814 0.43402,-22.30864 -0.069,-33.45395 -0.40302,-10.73673 -0.6861,-21.47644 -0.52341,-32.21739 0.40917,-7.64406 0.84744,-15.4488 6.3571,-22.24819 0,0 17.97724,-5.77437 17.97724,-5.77437 z"
       inkscape:connector-curvature="0" />
    <path
       style="fill:#000000;fill-opacity:1;fill-rule:nonzero;stroke:none;stroke-width:1px;stroke-linecap:butt;stroke-linejoin:miter;stroke-opacity:1"
       id="path3452"
       d="m 621.31986,610.99205 c -0.52262,-1.12792 -0.62692,-2.51935 -1.68909,-3.4992 -0.19364,-0.17863 -1.0263,-0.29849 -0.75296,-0.41176 17.28479,-7.16302 12.07977,-9.05321 19.32089,-5.66713 4.81323,3.71909 5.35301,9.41247 6.29357,14.22731 1.07578,5.65811 2.05234,11.61114 -0.31418,17.14696 -0.36544,0.685 -1.6665,3.88837 -3.49111,3.73521 -0.41352,-0.0348 -0.15829,-0.93155 -0.53686,-0.80746 -13.55215,4.44223 -14.73858,9.17979 -13.57387,5.05757 1.00341,-3.73918 9.64837,-3.20832 14.54006,-4.7024 0,0 -15.1097,4.84807 -15.1097,4.84807 l 0,0 c 3.27471,-3.55836 16.83315,-9.9876 15.43493,-5.25462 -1.68221,4.36348 -0.49065,1.66667 -14.39655,7.34735 -0.38113,0.1557 -0.4053,-0.62793 -0.81522,-0.74004 -1.76045,-0.48144 -3.0554,0.69519 -4.18182,-1.3914 -3.25463,-4.87501 -1.33568,-10.94203 -1.8981,-16.16865 -0.24689,-5.01997 -0.74757,-10.02398 -1.26039,-15.02919 0.2652,-5.12606 -0.23673,-0.92154 15.68425,-7.77015 0.5973,-0.25695 -1.12401,0.60302 -1.57879,0.98101 -1.83434,1.52461 -2.74667,3.51729 -3.82399,5.33154 0,0 -7.85107,2.76698 -7.85107,2.76698 z"
       inkscape:connector-curvature="0" />
    <path
       style="fill:#000000;fill-opacity:1;fill-rule:nonzero;stroke:none;stroke-width:1px;stroke-linecap:butt;stroke-linejoin:miter;stroke-opacity:1"
       id="path3454"
       d="m 669.88201,595.0011 c 4.99548,4.53248 7.07487,10.0073 9.05473,15.4846 0.18664,0.83687 0.38497,1.67245 0.55998,2.51062 0.74523,3.5691 -1.30014,4.78155 -0.57919,7.96154 0.0775,0.38458 0.18408,0.76801 0.30151,1.14604 0,0 -21.80194,8.14896 -21.80194,8.14896 l 0,0 c -0.003,-0.39254 -0.0223,-0.80458 -0.0724,-1.20009 -0.31124,-3.13969 -1.68762,-2.12569 -2.65517,-4.38317 -0.64107,-1.49573 0.0927,-3.18732 -0.75172,-4.66275 -0.79026,-5.54673 -2.15867,-11.09852 -4.91533,-16.33202 0,0 20.85957,-8.67373 20.85957,-8.67373 z"
       inkscape:connector-curvature="0" />
    <path
       style="fill:#000000;fill-opacity:1;fill-rule:nonzero;stroke:none;stroke-width:1px;stroke-linecap:butt;stroke-linejoin:miter;stroke-opacity:1"
       id="path3456"
       d="m 743.50341,656.87839 c 8.05114,2.9106 17.088,3.67619 25.96132,4.13928 9.92486,0.19256 19.88322,0.30027 29.79908,-0.11973 5.64299,-0.20798 11.06975,-1.3589 16.63184,-1.9221 1.38794,-0.19943 7.21302,-0.024 3.61111,1.29 -6.50081,1.70379 -22.88368,12.61323 -17.87973,6.81734 0.26182,-0.0328 0.0662,-0.23263 0.33146,0.0989 0,0 17.07593,-6.41787 17.07593,-6.41787 l 0,0 c 0.13218,0.22777 0.22769,0.37057 0.0962,0.61614 -3.38516,5.7385 -13.47556,7.62688 -21.17625,10.10016 -2.45298,0.49595 -4.47498,1.00057 -7.0975,0.89746 -5.25167,0.49912 -10.47977,1.15717 -15.80103,1.19965 -9.80007,0.0398 -19.61202,0.0356 -29.39571,-0.41821 -8.96191,-0.73048 -18.25728,-1.54987 -25.66235,-5.57708 0,0 23.50554,-10.70383 23.50554,-10.70383 z"
       inkscape:connector-curvature="0" />
    <path
       style="fill:#000000;fill-opacity:1;fill-rule:nonzero;stroke:none;stroke-width:1px;stroke-linecap:butt;stroke-linejoin:miter;stroke-opacity:1"
       id="path3458"
       d="m 877.75592,566.90558 c 5.82362,5.69827 8.47999,12.54843 10.29433,19.38386 2.29111,9.43177 2.72328,19.02412 3.17642,28.57221 0.55165,11.36772 0.36709,22.73957 0.1845,34.11019 -0.22721,11.58389 -0.72595,23.16336 -1.34028,34.73978 -0.7021,8.77588 -0.61726,17.54284 0.083,26.31248 0.58563,5.12502 1.39488,10.23311 2.09741,15.35082 0.37057,2.62435 0.77963,5.22165 1.67804,7.78503 0.53515,1.67472 1.27946,3.31004 1.83437,4.97925 0.793,1.38242 0.63545,2.70866 -1.44403,3.25283 -6.31304,-2.60544 -19.94267,10.92364 -16.08769,4.91859 0.0488,-0.15786 0.0952,0.0135 0.13739,0.0195 0,0 14.13664,-4.96468 14.13664,-4.96468 l 0,0 c 0.003,0.0818 0.13371,0.18758 0.007,0.27204 -3.30708,4.9814 -11.42671,10.44373 -19.17096,8.86309 -2.21767,0.0224 -3.62658,-0.17877 -4.18479,-1.87217 -0.97234,-1.61468 -1.62606,-3.32021 -2.16162,-5.03468 -0.94946,-2.67715 -1.57289,-5.42856 -1.65756,-8.19266 -0.53406,-5.21497 -1.01343,-10.43276 -1.53072,-15.6484 -0.52057,-8.93856 -0.27071,-17.89972 0.66301,-26.82131 1.07164,-11.71577 1.94823,-23.43905 2.70994,-35.16708 0.50722,-11.57318 0.98541,-23.14541 1.63049,-34.71518 0.31906,-9.88165 0.82562,-19.76954 0.37189,-29.65294 -0.74219,-7.08466 -1.6517,-14.19048 -4.81148,-20.97576 0,0 13.38497,-5.51481 13.38497,-5.51481 z"
       inkscape:connector-curvature="0" />
    <path
       style="fill:#000000;fill-opacity:1;fill-rule:nonzero;stroke:none;stroke-width:1px;stroke-linecap:butt;stroke-linejoin:miter;stroke-opacity:1"
       id="path3460"
       d="m 897.35548,624.84538 c 4.60195,5.00099 11.66631,7.41084 18.9588,9.23598 9.14616,2.04659 18.70877,2.17218 28.15314,2.15676 7.65338,-0.13903 15.29936,-0.14197 22.95201,-0.0219 3.05897,0.20546 6.18464,-0.20413 9.17489,0.4254 -3.60258,4.00355 -40.61214,16.09061 -0.0372,1.80056 -2.35639,4.58934 -20.00432,10.55848 -17.22353,5.68735 0,0 17.61896,-6.1226 17.61896,-6.1226 l 0,0 c -3.64595,4.34034 -21.71127,11.46877 -17.88039,6.55069 5.88305,-2.30239 11.72806,-4.66438 17.64916,-6.90717 0.19336,-0.0732 0.16113,0.40818 -0.0177,0.50106 -5.4239,2.81727 -10.90067,5.57408 -16.42674,8.26891 -0.83744,0.40838 -1.94744,0.39014 -2.77964,0.80475 -3.11023,0.1221 -6.1972,-0.0972 -9.3027,-0.25622 -7.39158,-0.37668 -14.79654,-0.3039 -22.2003,-0.33099 -9.48089,-0.18058 -19.06353,-0.38576 -28.08907,-2.93092 -7.31476,-2.43191 -14.25112,-5.37748 -17.81511,-11.21384 0,0 17.26549,-7.64788 17.26549,-7.64788 z"
       inkscape:connector-curvature="0" />
    <path
       style="fill:#241f1c"
       id="path4346"
       d="m 203.6312,848.08445 c 12.54058,1.06221 25.18096,1.98184 37.8238,1.58811 5.17245,0.17609 8.62381,-1.74456 12.73283,-3.51484 4.68438,-1.70611 9.68106,-0.43584 9.05225,3.48896 -1.3573,1.85142 -6.21733,3.65664 -6.95273,-0.23337 1.89451,-3.40404 4.99558,-0.52279 5.3744,1.11639 0.0669,0.22614 -4.40039,0.90453 -4.46739,0.67838 l 0,0 c -1.24307,-1.73964 -0.54219,-1.26837 3.70205,-2.36049 0.61825,1.48922 -3.28418,-1.09292 -3.06603,0.3936 -0.19608,1.30878 -0.80984,1.68844 1.74895,1.20252 0.16107,-0.0307 -0.32785,-0.0429 -0.4918,-0.0642 -5.00169,1.96572 -8.96481,4.98309 -15.25339,4.89572 -14.45808,0.57767 -29.04767,0.25189 -43.07222,-2.61858 -0.45157,-0.14526 2.4177,-4.71746 2.86928,-4.57222 z"
       inkscape:connector-curvature="0" />
    <path
       style="fill:#241f1c"
       id="path4348"
       d="m 208.50306,867.51312 c 10.61725,1.51127 21.29683,3.1841 32.18247,2.95533 3.19128,0.0167 5.48276,-0.38528 7.56057,-1.99301 2.69634,-1.56023 6.02238,-0.67158 9.12387,-0.60717 -2.89311,-0.27973 1.04308,4.06807 -3.12391,3.60382 0.92758,-1.21955 1.63314,-2.5402 2.78273,-3.65866 1.57476,-1.53213 4.01635,4.19508 -2.20949,3.72679 -2.61801,-0.27492 -0.53601,-0.32478 2.17813,-3.73043 0.37379,0.0853 -1.31155,3.87003 -1.68536,3.78471 l 0,0 c 0.36494,-3.58959 -1.30237,-3.76997 1.16293,-3.78196 5.58015,0.12271 -0.81019,5.51623 -1.12052,3.78941 -0.22469,-1.25037 0.1689,-2.51844 0.25336,-3.77764 4.53699,-0.15023 4.5533,4.90746 0.37331,3.83108 -1.18481,0.0121 -2.35756,-0.0377 -3.53958,0.0547 -2.49569,0.19487 0.83215,0.28787 1.08166,-0.43596 -3.21352,2.3065 -5.92456,3.99317 -10.92736,4.1003 -12.60135,0.20372 -25.02935,-0.95543 -36.80557,-4.3689 -0.34492,-0.13732 2.36782,-3.62977 2.71276,-3.49243 z"
       inkscape:connector-curvature="0" />
    <path
       style="fill:#241f1c"
       id="path4350"
       d="m 325.36452,828.95138 c -1.35778,8.0967 -2.64743,16.19453 -2.86636,24.35343 0.0321,4.29633 0.75112,8.5567 0.54054,12.85435 -0.36625,4.30035 -0.84239,8.59598 -1.28441,12.89282 -0.42588,5.10322 -0.61078,10.20773 -1.0536,15.3104 -0.49895,3.91031 -0.31271,7.83503 -0.48143,11.75121 -0.0517,2.56627 -0.15517,5.08672 -1.3061,7.53311 -2.30981,3.18356 -6.54568,3.86617 -8.98477,0.20565 -2.89881,-2.31575 1.49808,-5.58949 5.13518,-2.90592 1.35839,1.31105 0.95495,0.71825 -4.52266,2.23659 -0.28526,0.079 -0.48744,-0.26481 -0.72446,-0.40324 -0.21888,-0.12784 -0.83486,-0.31304 -0.60172,-0.4272 1.5263,-0.74738 3.15854,-1.37733 4.7378,-2.066 3.73045,1.12463 -1.34661,4.05198 -4.46658,2.29218 -0.0486,-0.0364 -0.0972,-0.0729 -0.14572,-0.10935 1.52427,-0.73058 2.91165,-1.63478 4.57283,-2.19177 0.28714,-0.0963 0.51622,0.26378 0.76922,0.4006 0.18214,0.0985 0.69457,0.22994 0.51061,0.32668 -1.46442,0.77007 -2.98764,1.4811 -4.48144,2.22164 -3.79346,-1.04385 1.57939,-3.92259 4.35691,-2.32103 0.0301,0.0275 0.0602,0.055 0.0904,0.0825 0.26023,0.17068 -3.11122,2.80548 -3.37145,2.6348 l 0,0 c -0.0512,-0.0109 -0.10239,-0.0218 -0.1536,-0.0327 -3.49415,-1.34061 0.3213,-5.05506 2.62766,-3.13798 -0.81544,1.06131 -1.58561,2.14111 -2.44634,3.18393 -0.66054,0.80028 -7.11113,-6.21225 1.12366,-3.74146 3.85933,1.53764 -0.30188,4.99852 -2.57174,3.16683 0.84752,-1.03908 1.67848,-2.08516 2.54255,-3.11723 0.0968,-0.11562 0.35011,0.10235 0.5098,0.1737 0.25123,0.11212 0.87047,0.15153 0.74694,0.34418 -0.69318,1.08086 -1.89738,1.95266 -2.84608,2.92898 -0.0587,-0.0226 -0.11719,-0.0453 -0.17583,-0.0679 -1.876,-1.03067 3.39503,-2.65268 3.16067,-1.4065 1.9373,-3.50927 -4.93691,1.11913 -3.50077,-0.1038 1.23764,-1.75358 0.53714,-3.95967 0.83588,-5.84282 0.1342,-3.9798 -0.28733,-7.97248 0.32694,-11.94736 0.48248,-5.13686 0.57393,-10.28119 1.13453,-15.41433 0.57296,-4.22972 1.27407,-8.44881 1.88834,-12.67399 0.35285,-4.25062 -0.37263,-8.46952 -0.50897,-12.71858 0.20894,-8.43052 1.2636,-16.88551 4.26147,-25.06543 0.0791,-0.33524 6.70131,0.46574 6.6222,0.80099 z"
       inkscape:connector-curvature="0" />
    <path
       style="fill:#241f1c"
       id="path4360"
       d="m 279.5647,847.44178 c 13.20054,-4.05214 25.71069,-9.05362 37.77339,-14.61074 6.764,-3.53502 13.8772,-6.59196 21.57107,-8.95019 4.81814,-1.34347 9.63888,-2.68342 14.4704,-4.00238 3.17906,-1.33494 13.13363,-0.86727 6.52665,3.83318 -0.0884,0.052 -1.2505,0.76328 -1.34473,0.69433 -1.32786,-0.97177 -2.42735,-2.1175 -3.29591,-3.32638 -0.13794,-0.192 0.34628,-0.35366 0.52809,-0.52591 0.10606,-0.10054 0.18813,-0.36121 0.33519,-0.29203 1.57142,0.73927 2.93703,1.68151 4.40553,2.52227 -0.96377,2.582 -6.8343,0.0203 -4.62324,-2.31006 3.9176,0.92578 5.48518,1.35865 3.88221,3.11856 -0.15864,0.25473 -5.19039,-1.35148 -5.03176,-1.60621 l 0,0 c 1.20671,-1.93835 1.92356,-1.34066 6.16485,0.10959 -1.46402,2.41241 -8.10005,0.99975 -5.53689,-1.00547 1.84448,0.36297 3.72653,0.63938 5.53344,1.08887 0.38117,0.0949 -0.22014,0.8533 -0.59871,0.7533 -3.91459,-1.03405 -4.42296,-2.1315 -4.80778,-1.67584 1.62887,-1.15347 -1.51247,2.19918 3.89694,2.48668 0.12229,0.007 -2.48212,0.20918 -2.18752,0.38908 -4.72846,1.45397 -9.50772,2.80887 -14.35527,4.04843 -7.41908,2.15036 -14.04833,5.1629 -20.32452,8.7328 -12.4427,5.98651 -25.538,11.40302 -40.22423,14.01514 -0.3444,0.13957 -3.1016,-3.34744 -2.7572,-3.48702 z"
       inkscape:connector-curvature="0" />
    <path
       style="fill:#241f1c"
       id="path4362"
       d="m 356.26556,859.79219 c 3.59133,7.48856 4.83306,15.34781 4.14263,23.21845 -0.38213,3.96137 -2.71787,7.61463 -3.44179,11.52452 -0.14468,3.22511 0.27679,6.4447 0.27728,9.67049 -0.003,0.36652 -0.003,0.73306 -0.007,1.09959 -0.005,0.60157 -0.0336,1.67574 -0.0818,1.67187 -6.1922,-0.4971 -5.82652,0.5506 -5.93661,-1.50629 -0.0975,-2.44366 5.00287,-1.53318 4.97855,1.21364 -1.6245,-0.17894 -3.31143,-0.17076 -4.87351,-0.53683 -2.37386,-0.5563 4.50676,-3.59201 4.92472,0.22073 -0.11562,2.63561 -4.96488,1.35233 -4.99392,-1.32683 1.6367,0.19818 3.34967,0.18929 4.91011,0.59457 0.3079,0.0799 0.0585,0.46718 0.0789,0.70121 0.16236,1.85573 -4.7748,0.95125 -4.97794,-0.70501 -0.008,-0.13873 -0.0177,-0.27744 -0.0266,-0.41616 0.007,-0.0509 0.0131,-0.10175 0.019,-0.15268 -0.0344,-0.23304 4.56909,-0.58183 4.60354,-0.34878 l 0,0 c 0.024,0.0485 0.0478,0.0972 0.0718,0.14573 0.0396,0.13638 0.0794,0.27277 0.11889,0.40914 0.38158,1.65658 -4.12209,3.23135 -4.60129,1.43086 -0.0614,-0.23076 -0.44384,-0.56848 -0.16696,-0.69452 1.38603,-0.63094 3.04943,-0.87445 4.57414,-1.31168 0.91137,2.6401 -3.38766,4.55055 -4.40062,2.03514 -0.96896,-4.01025 6.76623,-1.75714 4.70898,-0.94218 -1.41559,0.56077 -3.05486,0.76355 -4.5823,1.14531 -0.75157,-2.35982 3.6667,-3.85124 4.42986,-1.69362 0.34797,1.99144 0.44431,0.80841 -5.55774,1.60777 -0.65181,0.0868 -0.0659,-0.94819 -0.10435,-1.42207 -0.0293,-0.35996 -0.063,-0.71972 -0.0945,-1.07958 -0.32194,-3.47253 -0.46772,-6.98228 -0.008,-10.44924 0.93771,-3.73672 3.10731,-7.2652 3.47046,-11.08359 0.3607,-7.46436 -1.10546,-14.8324 -2.9191,-22.17221 -0.0837,-0.27667 5.3815,-1.12443 5.46523,-0.84775 z"
       inkscape:connector-curvature="0" />
    <path
       style="fill:#241f1c"
       id="path4364"
       d="m 332.51294,871.20201 c 7.41348,-5.44995 15.53897,-10.36863 23.57839,-15.33233 3.27349,-2.29145 7.47596,-3.57204 11.35429,-5.21546 5.08993,-2.15616 10.04307,-4.47406 15.12103,-6.64365 3.38508,-1.46645 7.40156,-2.90837 10.49476,-0.37144 1.58397,1.68876 2.13326,3.55954 2.26398,5.56094 -0.14206,3.61514 -1.90437,7.02767 -3.65839,10.37332 -1.68884,3.44922 -3.43276,6.87701 -6.24946,9.94018 -3.29122,3.36971 -7.93442,5.82144 -12.36844,8.3585 -3.05464,1.78526 -5.55509,3.93895 -7.17221,6.5124 -0.68806,1.36001 -1.12949,2.76072 -2.25159,3.9773 -1.86189,-1.27505 -4.35183,-2.2058 -5.58569,-3.82515 -0.40317,-0.52911 1.02731,-0.95802 1.60928,-1.39353 2.43291,-1.82065 5.54519,-3.02678 8.62206,-4.18444 4.26979,-1.47633 8.59014,-2.89818 12.99351,-4.15983 4.21203,-1.19485 7.75223,-2.01896 10.13162,1.54531 0.88444,2.30012 0.62957,4.712 0.52665,7.06862 -0.37341,3.24406 -0.76158,6.48681 -0.96682,9.7416 -0.24187,3.97324 -0.21949,7.9394 0.16894,11.90684 0.27225,3.21136 1.20473,6.37054 1.60657,9.56826 0.23016,1.21397 0.25316,2.42601 0.49107,3.63807 0.1343,0.26228 -5.04661,1.62204 -5.18092,1.35975 l 0,0 c -1.2384,-1.28749 -2.44474,-2.5605 -2.91619,-4.12127 -1.33469,-3.28777 -1.72368,-6.72851 -2.10138,-10.13103 -0.34488,-4.165 -0.26658,-8.34323 0.1471,-12.50527 0.34154,-3.22593 0.80472,-6.44689 1.25475,-9.66491 0.15238,-1.76899 0.34849,-3.55351 0.0842,-5.32182 2.1516,1.88259 6.0402,-0.2002 1.19796,1.55521 -4.13898,1.45134 -8.30586,2.8541 -12.5186,4.19198 -1.94052,0.67812 -3.9206,1.30641 -5.72989,2.158 -0.45825,0.21568 -0.90585,0.44393 -1.33525,0.68817 -0.34421,0.19579 -0.55118,0.69144 -0.98235,0.63002 -2.53707,-0.36138 -4.88984,-1.2098 -7.33474,-1.81471 -0.92851,1.36252 1.52843,-2.40222 1.28644,-2.56333 1.78331,-3.28735 4.86277,-6.08855 8.54234,-8.41572 3.93827,-2.36369 8.46775,-4.25941 11.69658,-7.18213 2.69387,-2.74104 4.27515,-5.82395 5.70768,-9.00433 1.44182,-2.86655 2.99995,-5.74602 3.45006,-8.79967 -0.003,-1.0542 -0.22674,-2.06564 -0.92203,-3.00912 2.63098,1.13654 4.98257,-0.80644 -0.26654,1.58606 -5.07478,2.33148 -10.02947,4.81033 -15.47127,6.70325 -3.64793,1.32114 -7.58129,2.29341 -10.40259,4.50999 -7.81475,5.24081 -15.85949,10.331 -24.38883,14.97022 -0.28491,0.22913 -4.81099,-2.65572 -4.52607,-2.88485 z"
       inkscape:connector-curvature="0" />
    <path
       style="fill:#241f1c"
       id="path4366"
       d="m 414.85296,866.98628 c -1.42905,-5.42058 -2.99179,-10.99092 -2.55316,-16.53921 0.0498,-0.12199 0.13828,-0.49277 0.14958,-0.36594 0.12465,1.39985 -2.14226,0.0212 -2.50556,-0.38668 -0.5709,-0.64102 -0.61319,-1.27618 -0.78592,-2.00058 -0.008,-1.50362 0.1519,-3.07168 0.95972,-4.47686 1.28046,-2.02815 4.28006,-0.4083 5.36066,0.95252 1.14297,2.38026 0.79207,4.97651 0.52685,7.44425 -0.4955,3.59897 -1.39689,7.16155 -2.3418,10.71152 -0.46436,2.94664 -2.10729,5.63327 -3.6813,8.33482 -1.43637,2.76072 -1.77333,5.68104 -1.71334,8.60106 0.13814,2.70167 0.6245,5.39074 2.80848,7.65031 1.47832,1.11168 3.03882,1.88436 5.12783,2.16408 2.3093,0.0516 1.4861,0.31331 4.18717,-0.53885 2.3406,-0.84961 3.93201,-2.17514 5.14089,-3.80642 1.62073,-2.8136 1.83248,-5.87474 2.29277,-8.86298 0.83188,-3.41328 1.99201,-6.78719 3.1267,-10.15534 1.33805,-3.5453 1.29793,-7.15842 1.03641,-10.78714 -0.26677,-2.66399 0.0648,-5.29262 0.94107,-7.88146 0.95188,-2.4083 0.96854,-2.11491 6.42503,1.07666 0.56172,0.32856 -0.76448,0.88281 -1.13312,1.33005 -0.64157,0.57505 -0.10815,1.00801 0.13378,1.88908 0.21882,2.63414 -0.61891,5.25619 -0.88546,7.89557 -0.37857,3.46376 -0.54356,6.93199 -0.53993,10.40565 0.0754,3.2048 0.48712,6.39864 1.00445,9.58055 0.51907,2.0481 0.74533,4.53591 3.45639,5.69932 2.42559,0.61869 4.95021,0.51238 7.47607,0.48497 -0.28477,0.23993 3.21673,0.28396 4.05701,0.25887 0.31997,-0.14883 3.25964,3.0908 2.93967,3.23962 l 0,0 c -2.9056,1.46703 -5.39236,2.06904 -9.08603,1.94955 -4.06366,-0.15093 -8.06285,-0.48945 -11.35358,-2.38691 -3.10565,-2.45918 -4.60188,-5.40374 -5.04025,-8.70164 -0.58066,-3.37415 -0.98231,-6.76467 -1.13337,-10.16347 0.0879,-3.60596 0.10776,-7.21687 0.58148,-10.81043 0.37015,-2.2137 0.88587,-4.40541 1.54614,-6.5759 -0.50368,-1.63537 -0.94332,-3.37826 0.30086,-4.91089 0.0907,-0.12034 1.17627,-1.59976 1.31586,-1.60571 8.02329,-0.34198 7.92145,-0.69325 7.05254,2.27438 -0.58599,2.20602 -0.9377,4.41801 -0.56133,6.66701 0.42071,4.06328 0.492,8.14504 -0.88975,12.13336 -1.00194,3.22121 -2.23003,6.40753 -3.01156,9.6605 -0.65693,3.54952 -1.23823,7.20488 -3.43153,10.46665 -1.90466,2.34472 -4.23409,4.3907 -7.63498,5.69541 -3.71638,1.35501 -7.55019,1.82742 -11.62639,0.85365 -3.16896,-0.83374 -5.71743,-2.33663 -7.83228,-4.21448 -2.72141,-2.98032 -3.73088,-6.40578 -3.8903,-9.94535 -4e-5,-3.48563 0.63951,-6.9431 2.49686,-10.19317 1.44838,-2.47006 3.12417,-4.85805 3.62542,-7.5617 1.07845,-3.44713 2.29232,-6.87002 3.40387,-10.31116 0.46514,-1.93353 1.02227,-3.92827 0.87658,-5.89295 -1.15419,-2.25819 2.31325,-0.30325 1.03875,-1.20854 -1.09085,0.95009 -1.49681,2.27262 -1.75686,3.4839 -0.0793,3.32805 1.18,1.16742 3.01514,2.80225 1.09823,5.45835 2.07487,10.93668 2.53814,16.44366 0.0132,0.0787 -1.54109,0.21323 -1.55437,0.13454 z"
       inkscape:connector-curvature="0" />
    <path
       style="fill:#241f1c"
       id="path4368"
       d="m 470.65976,847.65992 c -1.72758,-2.62101 -2.76583,-5.47859 -4.64796,-8.05033 -0.28112,-0.38412 -1.25684,-0.64994 -1.05555,-1.05895 0.12818,-0.26034 1.91223,1.06591 2.03507,1.15268 0.45046,6.55873 0.94698,13.0984 0.74576,19.66721 -0.0968,4.4621 -1.44653,8.78244 -3.06589,13.06018 -1.14624,2.58473 -1.62967,5.23245 -1.5294,7.93439 0.19603,2.00177 0.66703,1.84614 2.82456,1.45735 -0.0779,-0.0547 -0.33525,-0.13513 -0.2339,-0.16424 1.386,-0.39802 2.89782,-0.52738 4.3105,-0.87405 2.52769,-0.62029 4.9957,-1.36052 7.48077,-2.06141 3.45503,-0.91718 6.92595,-1.8022 10.58354,-2.16149 2.49101,0.0354 4.02548,2.93712 1.26383,2.93337 -0.29026,-0.93937 -0.87188,-1.85602 -0.87078,-2.8181 0.003,-1.50667 6.6393,2.6123 1.06184,2.96546 -2.96558,-0.0205 -2.91284,-3.01462 0.55819,-3.05836 0.11235,1.00191 0.51477,2.00867 0.33705,3.00572 -0.27945,1.56798 -5.80497,-2.73934 -0.72173,-3.03976 3.44643,0.0559 3.00331,3.05675 -0.86914,3.10075 -0.27847,0.0746 -1.7525,-2.74491 -1.47403,-2.81954 l 0,0 c 3.06195,-0.54695 7.48504,1.82047 3.88396,2.66593 -2.00452,0.25074 -5.80419,-2.42983 -3.23361,-2.78292 0.28409,-0.0391 0.65568,-0.25618 0.85505,-0.10609 1.0898,0.82029 1.80562,1.85889 2.70845,2.78833 -2.79002,0.5027 -6.7302,-2.01192 -3.59517,-2.68131 2.05461,-0.26359 5.60653,2.40415 2.96708,2.80419 -0.28836,0.0437 -0.64443,0.25558 -0.86862,0.11852 -1.21626,-0.74334 -2.1086,-1.72168 -3.16291,-2.58254 2.51745,-1.24609 7.00226,1.27931 4.47279,2.98184 -2.91306,1.63611 -6.51548,2.21778 -9.90887,3.19407 -5.6552,1.57167 -11.30458,3.35491 -17.48321,3.38511 -4.84481,-0.57374 -7.55851,-2.57413 -7.71765,-6.17558 -0.0498,-3.10819 0.42985,-6.1606 1.84675,-9.11861 1.66008,-3.96177 3.04973,-7.9687 3.2812,-12.12817 0.67841,-6.71526 0.52048,-13.47718 1.68274,-20.15611 0.62049,-0.7316 0.792,-1.81225 1.86144,-2.19481 5.25141,-1.87855 7.70521,8.66068 8.41793,10.27906 0.0532,0.13872 -2.68692,0.6769 -2.74008,0.53819 z"
       inkscape:connector-curvature="0" />
    <path
       style="fill:#241f1c"
       id="path4370"
       d="m 471.20679,862.33693 c 7.43197,-3.15841 14.78446,-6.70236 22.81255,-9.06728 -0.0424,0.71617 0.30849,1.50319 -0.1274,2.14854 -0.55705,0.82479 -4.29963,1.77647 -5.57508,2.13307 -0.72178,-1.95036 -0.13977,-1.97231 1.84668,-2.56604 0.12033,-0.0717 1.53667,1.14663 1.41634,1.21834 l 0,0 c -1.78624,1.00487 -2.13193,1.1817 -4.62416,0.14289 3.05277,-1.77908 4.61133,-2.8399 8.64924,-1.69934 -6.82343,3.78422 -14.73296,6.59632 -22.24151,9.58468 -0.18715,0.10923 -2.34387,-1.78569 -2.15671,-1.89486 z"
       inkscape:connector-curvature="0" />
    <path
       style="fill:#241f1c"
       id="path4372"
       d="m 470.68984,841.53773 c 9.31367,-3.66142 19.01299,-6.77997 28.57435,-10.08763 0.67359,-0.25867 1.3445,-0.52097 2.02078,-0.77604 3.57316,-1.34765 4.68414,0.69869 1.258,1.81678 -1.1142,0.0599 -2.48937,-1.90987 0.10907,-2.05243 0.76968,2.32897 0.94677,2.19551 -1.24497,2.3862 -0.18544,0.0743 -1.65549,-1.80322 -1.47005,-1.87764 l 0,0 c 2.17919,-0.74068 1.96936,-0.54068 4.51613,1.21301 -1.96376,0.8251 -6.49696,-0.0404 -3.86046,-1.45993 6.09587,-2.61355 6.24839,2.2716 1.67559,3.37326 -8.96291,4.2462 -18.92469,7.31777 -28.82484,10.25212 -0.27534,0.13941 -3.02897,-2.6483 -2.75363,-2.7877 z"
       inkscape:connector-curvature="0" />
    <path
       style="fill:#241f1c"
       id="path4374"
       d="m 15.94528,528.81523 c 5.497884,7.41961 10.545748,15.05805 13.809228,23.14269 1.084619,2.61018 0.995872,5.29951 1.171154,7.98025 0.319728,2.66136 1.645737,5.17013 2.824864,7.68085 0.843307,2.28555 2.559644,4.31229 3.785672,6.48597 1.185111,2.94678 0.859176,2.69529 -7.079739,0.349 -0.71528,-0.21141 0.390197,-1.07231 0.572379,-1.61076 0.299053,-1.81136 0.528149,-3.5901 1.305662,-5.33748 1.073817,-2.13356 2.31464,-4.20724 3.640898,-6.26542 1.870027,-2.75232 3.442912,-5.56603 4.636913,-8.50375 1.235521,-3.18137 1.980942,-6.44178 2.933448,-9.6688 0.729382,-3.27711 2.146168,-6.4258 4.105505,-9.42493 0.580889,-0.57588 1.897157,-3.30754 3.275278,-3.27913 5.811707,0.11985 7.865264,2.08925 5.900729,0.38425 -1.837792,0.34793 -3.675583,0.69587 -5.513374,1.04383 0.382642,0.8021 0.04347,-0.77304 0.226634,-0.60896 0.09637,0.0863 0.07791,0.21386 0.116924,0.32078 -0.111032,-0.32626 6.333846,-1.45026 6.444852,-1.12399 l 0,0 c 1.19078,3.06034 -0.376305,3.01873 -5.608903,4.90623 -0.479965,-0.24148 -2.003999,-0.60923 -1.439883,-0.72445 6.82972,-1.395 5.719399,-0.80871 4.391897,1.09655 -1.549252,2.75099 -2.734873,5.57529 -3.505564,8.49546 -1.025712,3.32539 -1.881366,6.67807 -3.107289,9.97009 -1.237118,3.21477 -2.936604,6.29792 -4.999091,9.28923 -1.253917,1.88309 -2.480861,3.76565 -3.575038,5.69999 -0.855458,1.57469 -0.550984,3.29866 -1.11006,4.92638 -1.230767,3.53135 -6.21848,5.9913 -9.070212,1.92167 -1.41778,-2.27231 -3.276442,-4.41519 -4.00678,-6.88698 -1.261236,-3.0037 -2.582557,-6.02759 -2.199929,-9.20978 0.253358,-2.30451 0.657054,-4.44546 -0.667541,-6.67102 -3.759603,-7.77112 -8.417335,-15.28674 -12.322249,-23.0176 -0.134338,-0.25635 4.929329,-1.61651 5.063668,-1.36017 z"
       inkscape:connector-curvature="0" />
    <path
       style="fill:#241f1c"
       id="path4376"
       d="m 59.458496,570.44452 c 5.817613,-7.37246 11.048273,-14.9665 14.475474,-23.08435 1.632905,-4.1977 1.434553,-8.56474 2.281016,-12.85033 0.391113,-2.54286 1.251481,-5.03941 2.165192,-7.50844 1.281884,-2.62936 0.747136,-2.30604 7.304238,0.70109 0.247047,0.11333 0.936231,3.3608 1.014988,3.59157 1.883736,4.60051 2.315557,9.41202 3.036231,14.15504 0.691385,4.91393 2.047535,9.75273 3.216266,14.61289 0.580562,2.7786 0.592176,5.57182 2.146128,8.18126 1.295763,2.01183 3.459109,3.6175 5.164751,5.43362 1.52704,1.6111 1.34292,3.64162 -1.220021,4.55776 -6.622005,0.0252 -2.174121,-3.52907 0.282923,-1.29205 0.792778,0.84933 0.898538,0.78342 -2.977298,0.79614 -0.316166,7.5e-4 -0.413385,-0.34264 -0.613649,-0.5178 -0.161965,-0.14164 -0.688504,-0.40038 -0.441942,-0.44883 1.071159,-0.21044 2.173559,-0.32867 3.260325,-0.493 2.806482,1.55684 -1.244411,2.35742 -3.139826,0.64401 -0.03574,-0.0436 -0.07123,-0.0871 -0.106973,-0.13063 1.077247,-0.1732 2.127653,-0.52185 3.231716,-0.51961 0.322634,6.7e-4 0.422969,0.34898 0.627789,0.52747 0.147511,0.12855 0.619882,0.36273 0.397163,0.41022 -1.038609,0.22149 -2.103954,0.37268 -3.155944,0.55902 -2.853042,-1.51529 1.201438,-2.4115 3.066503,-0.67719 -2.509601,1.02993 -2.83513,0.98629 -4.11903,-0.26347 -0.114175,-0.112 2.098677,-1.26857 2.212904,-1.15653 l 0,0 c 1.6361,1.00021 1.690373,1.1154 -0.373201,2.61125 -2.519736,-1.60687 0.06599,-3.7472 1.631687,-1.7782 -0.488764,0.6186 -0.930561,1.25747 -1.466305,1.85578 -0.129624,0.14473 -0.385522,-0.20634 -0.559835,-0.32457 -0.236728,-0.16057 -0.767077,-0.2623 -0.69831,-0.49053 0.212401,-0.70494 0.947557,-1.27281 1.421329,-1.90922 0.06023,0.0302 0.120459,0.0605 0.180689,0.0908 2.498116,1.64004 0.01689,3.76738 -1.593207,1.82528 1.350128,-1.81258 0.76662,-2.41322 1.996065,-1.55622 1.08712,0.7578 0.332284,2.84719 -1.165078,2.13115 -6.331974,-4.5934 6.009676,-0.95331 -0.271702,-1.79866 -1.452177,0.37881 -1.204554,1.73389 -2.812229,0.44688 -2.787181,-1.89017 -4.903888,-4.23223 -6.496963,-6.72448 -1.527792,-2.93309 -2.001891,-5.99512 -2.652595,-9.07707 -1.370854,-4.96869 -2.642041,-9.94923 -3.332194,-14.99517 -0.656975,-4.58897 -0.797428,-9.23202 -2.231091,-13.74738 -0.08052,-0.32886 -1.263619,-4.5227 -0.692537,-4.66916 9.39646,-2.41004 7.09583,-1.42933 6.379424,0.36553 -0.715123,2.38173 -1.82039,4.70073 -2.193277,7.13185 -0.900657,4.47169 -0.733087,9.02164 -2.310267,13.42289 -3.431508,8.54996 -8.736749,16.69412 -16.505279,23.69236 -0.170961,0.22094 -4.534969,-1.51003 -4.364008,-1.73095 z"
       inkscape:connector-curvature="0" />
    <path
       style="fill:#241f1c"
       id="path4378"
       d="m 74.251459,567.85035 c 9.191509,-4.51068 18.927194,-8.37467 28.659211,-12.23961 1.65524,-1.16505 6.06081,-1.47354 6.57614,-3.36274 1.82224,-2.01185 4.14907,-3.65406 6.67794,-5.23271 2.47485,-1.62839 -0.0139,-0.31357 -1.43637,0.13753 1.63798,-1.23173 4.19877,-0.28809 0.72752,-0.10935 -1.91669,-0.0556 1.08687,-0.49395 1.73252,-0.47551 0.0305,-0.007 0.18344,0.30124 0.15293,0.30897 l 0,0 c -0.61644,0.10779 -4.02152,0.10344 -2.09909,-0.2625 4.00443,-0.42057 1.5396,1.05034 -0.87797,0.29019 1.24588,-0.90812 5.15217,-1.18595 2.44163,0.49571 -2.33306,1.59318 -4.94277,2.9162 -6.64252,4.94372 -0.76659,2.06302 -3.44024,3.19445 -5.64334,4.53772 -8.812834,4.78924 -18.170368,9.06456 -27.607182,13.18981 -0.21938,0.13474 -2.880799,-2.08652 -2.661419,-2.22126 z"
       inkscape:connector-curvature="0" />
    <path
       style="fill:#241f1c"
       id="path4384"
       d="m 110.48753,524.63379 c 2.81202,9.86478 4.4375,19.87846 5.20092,29.92522 0.29645,4.68461 -0.186,9.36544 -0.12334,14.04985 0.0245,3.46466 0.61966,6.90784 0.87006,10.36394 0.30703,2.01737 -0.53882,1.42385 -6.7716,-0.0503 -0.13857,-0.0328 1.11446,-1.09635 1.80389,-2.85142 0.49098,-2.77894 6.1639,-1.08197 4.78804,1.77435 -1.55937,-0.45984 -3.24847,-0.73906 -4.67813,-1.37952 -0.26238,-0.11756 0.0803,-0.43949 0.12936,-0.65826 0.41009,-1.82457 5.0684,-0.40958 4.78016,1.26911 -0.35825,2.2092 -5.423,0.81355 -4.62711,-1.69434 0.0234,-0.23766 4.71824,2.3e-4 4.69475,0.2379 l 0,0 c 0.21933,2.53161 -5.09517,3.41951 -4.94775,1.2079 0.25985,-3.9965 7.24913,-0.58386 4.93661,-0.0887 -1.57779,0.33784 -3.27152,0.27299 -4.90727,0.40948 0.12622,-2.77513 6.26567,-2.40333 4.71009,-0.30963 -0.4237,1.24224 -0.3121,0.53008 -0.18772,1.92201 0.0369,0.41392 0.62923,1.07733 0.0977,1.24232 -6.86573,2.13135 -7.34872,2.3165 -8.05762,-0.6678 -0.47887,-3.62818 -0.63088,-7.29611 -0.14091,-10.92768 0.6157,-4.53642 1.08585,-9.07377 0.74958,-13.63844 -0.65877,-9.95374 -2.39736,-19.84645 -2.97432,-29.8032 -0.0329,-0.23562 4.62162,-0.56839 4.65448,-0.33277 z"
       inkscape:connector-curvature="0" />
    <path
       style="fill:#241f1c"
       id="path4390"
       d="m 95.279635,533.76511 c 5.033355,-4.37384 10.121025,-8.83794 16.379375,-12.35357 2.45903,-1.57039 5.09018,-1.05862 8.04773,-0.97876 -0.12046,-0.0266 -0.48309,-0.0562 -0.36135,-0.0797 1.86482,-0.3573 4.08184,-0.35625 6.00756,-0.51853 2.35887,-0.23572 4.72783,-0.0287 7.08694,0.0688 2.02411,-0.0832 3.90512,0.0666 5.75894,0.67215 1.57743,0.68205 2.62419,1.77942 3.44453,2.93397 0.75549,0.80106 1.20116,1.61629 1.33264,2.5884 0.18923,0.79624 0.48024,1.56983 0.68087,2.37078 0.20972,1.06329 0.14738,2.14325 0.0257,3.21008 -0.12962,1.14393 -0.68571,2.22233 -1.18131,3.30397 -0.83586,2.31819 -2.07546,4.49968 -3.64421,6.60804 -2.57168,1.34988 -4.25671,3.24036 -6.03533,5.10974 -2.31674,2.73061 -5.23481,5.11964 -8.50163,7.2794 -2.42511,1.47257 -5.202,2.64319 -8.10684,3.56131 -1.76411,0.50523 -1.43,0.63235 -0.94942,-0.50455 1.29397,-2.07304 -7.3063,1.04416 -3.32745,-2.09414 2.21196,-1.58257 4.9946,-2.59743 7.88945,-3.37664 1.69142,-0.29957 3.31548,-0.72491 4.95796,-1.14063 1.56912,-0.27313 3.07322,-0.67406 4.51289,-1.196 1.91315,-1.0945 3.99767,-1.84116 6.39176,-2.19524 4.8889,0.33645 2.79903,-1.14144 6.84605,0.7498 1.8068,1.01522 2.59818,2.52257 2.9686,4.0932 0.23317,1.70066 -0.0574,3.41325 -0.32361,5.10384 -0.37179,2.11909 -0.45614,4.24875 -0.40572,6.38206 -1e-5,1.3904 0.78226,1.89375 2.16762,2.64012 0.77354,0.8419 5.76503,0.72062 3.54821,0.51226 2.86031,-0.43367 5.64369,-0.97457 8.53333,-1.31597 0.36115,-0.15795 3.48092,3.49881 3.11977,3.65675 l 0,0 c -2.78925,1.29988 -5.59475,2.61079 -8.96379,2.98929 -4.65159,0.22291 -8.58277,0.13652 -12.18408,-2.22279 -2.4145,-1.71168 -3.76384,-3.73324 -3.75009,-6.20409 -0.0263,-2.33538 0.0589,-4.68227 0.58611,-6.99147 0.25285,-1.28461 0.43206,-2.57852 0.60067,-3.86966 -0.052,-0.2726 -0.14806,-0.78682 -0.45265,-0.84454 6.02065,0.58934 -4.37659,0.0876 0.13817,0.0988 -1.73165,-0.16262 -3.10113,0.66928 -4.43086,1.35141 -1.69654,0.70159 -3.5436,1.18822 -5.40475,1.61689 -1.71026,0.37218 -3.23889,1.1245 -5.04463,1.27188 -2.04351,0.25275 -3.89114,1.10433 -5.59898,1.90284 -3.10615,2.23679 -8.62168,2.79313 -8.79895,-0.73905 0.27798,-1.7858 1.4133,-2.97104 3.86973,-3.52722 2.36257,-0.59722 4.52148,-1.72685 6.54474,-2.74962 3.01823,-1.94904 5.56149,-4.1719 7.78056,-6.61296 0.50621,-0.49277 6.247,-6.16186 6.13356,-4.66464 1.64968,-1.81683 2.40217,-3.91895 3.44716,-5.93495 0.41415,-0.75702 1.02042,-1.571 1.2169,-2.31399 0.075,-0.77317 0.25216,-1.55414 0.0558,-2.32581 -0.22753,-0.91774 -0.71171,-1.80321 -0.6864,-2.75036 -0.16824,-0.37959 -0.40687,-0.8113 -0.76797,-1.17579 -0.3605,-0.42904 -0.652,-0.9198 -1.29168,-1.16944 -1.43241,-0.26702 -2.90878,-0.14629 -4.37038,-0.27117 -2.62772,-0.12481 -1.41758,-0.0841 -3.55756,-0.10657 -3.12224,0.19945 -6.17719,0.87606 -9.35082,0.57708 -1.79648,-0.19967 -2.1031,-0.22909 -2.07207,-0.26244 0.0385,-0.0415 2.22351,-0.5406 -0.0519,0.041 -5.56507,3.86513 -10.76425,7.97847 -16.274706,11.88275 -0.206064,0.21183 -4.39026,-1.87463 -4.184196,-2.08645 z"
       inkscape:connector-curvature="0" />
    <path
       style="fill:#241f1c"
       id="path4394"
       d="m 2016.4331,1242.9412 c -1.5244,7.7112 -2.6721,15.4832 -3.7981,23.2597 -0.1269,0.9624 -13.737,-0.8317 -13.6102,-1.7941 l 0,0 c 1.3868,-8.1937 2.6803,-16.4374 5.4341,-24.317 0.2016,-0.8467 12.1758,2.0047 11.9742,2.8514 z"
       inkscape:connector-curvature="0" />
    <path
       style="fill:#241f1c"
       id="path4396"
       d="m 659.50719,949.28889 c 2.58398,14.14583 4.296,28.43034 6.65997,42.61306 1.71309,10.88255 5.24372,21.32655 8.36996,31.85185 2.31945,7.8597 3.6676,15.9387 4.89134,24.025 0.40525,2.4923 1.53298,3.8343 -4.92501,-0.129 -0.0877,-0.054 1.54359,-2.9091 1.71059,-3.2189 -0.16187,0.2451 -0.39124,1.0135 -0.48562,0.7353 -1.0693,-3.1514 0.45193,-15.0048 0.68037,-18.6751 0.57559,-9.4356 0.38015,-18.8906 0.28337,-28.33576 -2.19596,-6.41877 -0.56511,-12.49583 2.5041,-18.26414 3.86132,-5.87635 7.6687,-6.13623 10.30524,1.12484 2.20302,6.37905 3.69303,12.96343 5.4417,19.47236 2.73654,9.4935 6.01114,18.7988 8.42815,28.3846 0.92828,3.8807 1.78606,7.7876 2.87768,11.6277 0.31438,1.1059 1.30235,4.3089 1.37866,3.1617 -1.37955,-0.2027 -2.75911,-0.4053 -4.13866,-0.608 -0.17268,-0.038 -0.48988,0.059 -0.51803,-0.1152 -0.28513,-1.7693 0.31285,-3.5716 0.39337,-5.3619 0.0531,-1.1805 0.11035,-7.4362 0.12013,-8.3281 -0.51936,-13.5843 0.37401,-27.1184 1.45274,-40.64967 1.38633,-18.88566 2.56604,-37.78944 3.13789,-56.71834 -0.13279,-17.12549 1.45344,-34.07549 4.51288,-50.9012 0.0671,-0.58658 8.36265,0.36182 8.29558,0.94841 l 0,0 c -1.50355,16.71841 -2.47361,33.48192 -2.91928,50.26306 -0.84728,19.0676 -1.88525,38.13776 -3.72813,57.13809 -1.43528,13.34835 -2.5746,26.69955 -2.58616,40.13875 -0.13127,2.5171 -0.72228,16.8997 -3.41973,18.1878 -1.63339,0.78 -3.61165,0.2476 -5.41747,0.3714 -4.08991,-4.8233 -4.2516,-11.9486 -6.1087,-17.766 -2.36444,-9.5897 -5.80081,-18.8495 -8.13964,-28.4468 -1.47552,-6.4179 -2.79308,-12.87831 -4.59564,-19.216 -1.57372,-4.92521 4.8697,-4.03838 0.85617,-0.31771 -2.64439,5.27866 -3.99972,10.05906 -1.51155,15.764 0.28215,9.59961 0.47076,19.21281 -0.0895,28.80711 -0.42535,6.6533 -1.39935,13.3015 -1.33351,19.9592 -0.21095,0.4355 -1.08481,2.9434 -1.43317,3.0585 -6.45018,2.1306 -6.0976,2.5811 -7.09714,-1.2054 -1.54872,-7.8573 -2.77675,-15.7813 -4.64822,-23.5719 -2.73862,-10.7781 -5.88698,-21.4661 -7.71891,-32.45502 -2.45872,-14.23692 -4.72119,-28.55007 -5.47088,-42.99537 -0.025,-0.28179 3.96013,-0.63501 3.98511,-0.35322 z"
       inkscape:connector-curvature="0" />
    <path
       style="fill:#241f1c"
       id="path4398"
       d="m 744.44547,951.3031 c 4.04761,17.87955 6.01809,36.13798 8.76629,54.243 0.39211,2.356 0.91595,6.2368 1.67405,8.7673 0.0965,0.3222 0.81084,0.9456 0.47945,0.8879 -3.63673,-0.6327 -2.81498,-1.6925 -1.99136,-4.1608 2.51629,-7.8748 6.12537,-14.87608 11.97985,-20.73203 4.12876,-3.44723 9.16945,-5.47334 12.69017,-9.61568 0.0738,-0.1321 0.1551,-0.53235 0.22129,-0.3963 0.94915,1.95094 -0.67265,1.90416 -1.89386,2.81215 -0.57581,-4.00166 2.80587,-0.24619 -0.0666,0.1195 -2.71103,-0.46412 -0.11328,-1.87154 1.33825,-1.93415 -0.26566,2.15241 -0.25214,1.88842 -1.813,1.97837 -0.11685,0.0461 -0.7687,-1.60652 -0.65184,-1.65261 l 0,0 c 1.64301,-0.40593 1.4879,-0.45088 3.11522,1.2483 -1.1863,0.33856 -4.97237,-0.28849 -2.70999,-1.3619 3.10956,-0.69473 4.25739,3.52181 -0.73055,0.7555 0.94086,-1.57428 5.27751,-3.72365 4.92484,-0.55276 -2.83379,4.4425 -7.33624,7.32754 -10.93482,11.0825 -4.78959,5.92456 -7.94358,12.71621 -10.3977,19.90831 -6.04026,13.5162 -10.11394,0.7626 -11.3085,-6.3193 -3.17582,-18.05441 -5.20302,-36.29189 -6.52606,-54.57367 -0.0356,-0.27117 3.7993,-0.7748 3.83491,-0.50363 z"
       inkscape:connector-curvature="0" />
    <path
       style="fill:#241f1c"
       id="path4400"
       d="m 753.48109,975.81353 c 4.82593,-10.15702 9.8299,-20.45487 16.33235,-29.6756 5.64932,-2.35653 -1.59219,8.94673 -1.99261,9.55122 -3.36246,0.70428 -1.4264,-2.87552 -0.62953,-4.07392 0.0685,-0.15101 2.20421,0.81805 2.13569,0.96906 l 0,0 c -0.54034,1.27112 -2.35368,4.9801 -3.83055,2.05395 0.49619,-1.10022 5.24986,-11.90894 6.95374,-7.28816 -4.46532,10.30121 -10.22155,20.04762 -15.81375,29.75849 -0.0916,0.22311 -3.24691,-1.07193 -3.15534,-1.29504 z"
       inkscape:connector-curvature="0" />
    <path
       style="fill:#241f1c"
       id="path4402"
       d="m 737.80175,951.50701 c 7.99103,-13.31077 17.22389,-25.80811 26.17453,-38.47464 4.70541,-7.31551 10.50328,-14.39646 13.50105,-22.68 0.212,0.60862 0.71872,1.1867 0.63602,1.82586 -0.13415,1.03682 -2.84667,4.1878 -3.48145,5.59798 -1.34099,-1.69681 -0.59189,-1.68601 0.4099,-2.87846 0.0541,-0.10426 1.52852,0.66072 1.47443,0.76497 l 0,0 c -0.85911,1.65295 -1.35406,2.05754 -3.53707,1.75291 0.28116,-1.76905 1.95241,-5.53785 3.54771,-6.38103 0.82748,-0.43735 1.84329,-0.32607 2.76493,-0.48911 0.14129,7.1914 -8.52014,18.18106 -11.61341,24.48554 -8.31879,13.16326 -17.00895,26.16149 -26.90564,38.20063 -0.12195,0.21008 -3.09295,-1.51457 -2.971,-1.72465 z"
       inkscape:connector-curvature="0" />
    <path
       style="fill:#241f1c"
       id="path4406"
       d="m 801.49579,881.68612 c 4.76344,12.2731 6.94933,25.2982 8.71078,38.28084 1.19915,11.90954 2.39004,23.81909 3.66269,35.72129 1.05859,7.84989 1.71036,15.73755 1.3711,23.65719 -0.47083,-1.36087 0.0958,5.74731 -0.0885,4.31914 -0.0302,-0.23388 0.0489,-0.58815 -0.16479,-0.688 -1.55122,-0.72497 -3.24062,-1.1072 -4.86093,-1.6608 3.16763,-2.29967 6.40652,-4.48091 9.49385,-6.89301 4.62761,-4.04274 9.12006,-8.23231 13.79878,-12.21937 2.84961,-3.14703 6.5887,-5.01762 10.16789,-7.14731 1.54261,-0.82782 2.34135,-1.33316 2.89335,-3.1853 0.0689,-3.78294 6.07361,-1.49451 4.74547,1.98376 -0.0316,0.0566 -0.0632,0.11314 -0.0949,0.16971 -1.50917,-0.76794 -3.16943,-1.29239 -4.52751,-2.3038 -0.24412,-0.18181 0.1671,-0.58545 0.25784,-0.87599 0.0751,-0.2404 0.0412,-0.80835 0.27105,-0.70528 1.54885,0.69472 3.03908,1.51336 4.55862,2.27005 -0.0307,3.5617 -5.96967,1.85158 -4.6609,-2.05028 0.0303,-0.0618 0.0607,-0.12356 0.091,-0.18534 1.52266,0.74181 3.19412,1.23481 4.56796,2.22542 0.24817,0.17895 -0.16898,0.5882 -0.26127,0.87991 -0.0675,0.21344 -0.0472,0.71106 -0.25272,0.62225 -1.54445,-0.66745 -3.04768,-1.42652 -4.57151,-2.13978 -0.0306,-3.56805 6.00454,-1.85964 4.65781,1.97751 -0.0259,0.0421 -0.0519,0.0843 -0.0778,0.12647 -0.0695,0.33438 -4.79844,-0.64787 -4.72898,-0.98225 l 0,0 c -0.003,-0.0483 -0.007,-0.0965 -0.0103,-0.14473 0.5896,-3.91805 6.84487,-3.22153 5.13556,0.0566 -1.71146,0.041 -3.42244,0.13123 -5.13437,0.12291 -0.22119,-10e-4 0.0266,-0.44267 0.0665,-0.66026 0.0549,-0.29988 -0.11794,-0.83539 0.18073,-0.89656 1.68995,-0.3461 3.4475,-0.13301 5.17125,-0.19952 -0.002,0.0672 -0.004,0.13446 -0.006,0.20169 -0.6537,3.9475 -6.82015,3.29352 -5.16925,0.004 1.72517,-0.0677 3.44903,-0.19592 5.17551,-0.20316 0.24039,-10e-4 -0.0459,0.47936 -0.0919,0.71532 -0.0578,0.29653 0.11055,0.83572 -0.1872,0.88675 -1.67961,0.28787 -3.40818,0.0143 -5.11226,0.0215 -0.0122,-0.004 -0.0245,-0.008 -0.0367,-0.0125 0.54259,-3.46375 6.89068,-2.73433 4.96036,0.30575 -0.79656,2.71922 0.43018,5.71173 -2.49043,7.68149 -3.13092,2.3152 -6.86462,3.62229 -9.30678,6.84906 -4.70271,4.16243 -9.33846,8.40729 -14.13944,12.45292 -3.15351,2.39596 -6.38514,4.66148 -9.72624,6.78952 -2.38336,0.0183 -4.80336,0.47156 -7.15008,0.0549 -1.46032,-0.2593 -1.09209,-6.80955 -0.9297,-7.81984 0.28405,-7.6066 -0.0631,-15.21988 -0.91098,-22.78554 -1.17478,-11.87311 -1.91265,-23.77423 -2.91495,-35.66139 -1.48537,-12.73324 -3.37183,-25.40529 -6.52342,-37.84978 -0.0782,-0.29637 4.11306,-1.40281 4.1913,-1.10644 z"
       inkscape:connector-curvature="0" />
    <path
       style="fill:#241f1c"
       id="path4408"
       d="m 880.97688,861.47887 c -0.83622,-1.76209 -3.77331,-15.05821 -5.29736,-14.72104 -0.35422,0.0784 0.50687,0.51917 0.7603,0.77876 -3.57933,5.51278 -5.36944,11.99378 -7.04834,18.28371 -2.46853,9.6397 -3.10777,19.58538 -3.93355,29.46052 -0.67913,9.17549 -2.03227,18.44847 0.0501,27.51631 1.99282,5.36037 5.73911,2.88057 9.65039,1.50819 6.04115,-2.33351 11.63339,-5.58253 17.04774,-9.09728 2.71024,-2.38344 6.15427,-3.8045 8.96436,-6.0055 1.92226,-1.38032 3.7058,2.55319 2.24474,4.0902 -1.64885,1.73458 -0.91438,0.54143 -3.48101,-2.64349 1.26434,-2.97916 5.62843,0.13164 3.08904,2.96955 -5.4024,4.56307 -2.79048,-4.77998 -2.05554,-4.07287 1.01149,0.97317 1.95403,2.01556 2.93105,3.02333 -1.15276,2.89496 -5.29615,-0.4618 -3.06988,-2.90671 2.51966,1.07131 3.70789,2.19078 2.35617,3.8224 -0.15555,0.25804 -3.80479,-1.94171 -3.64925,-2.19975 l 0,0 c 1.16282,-1.70221 2.96851,-1.48151 4.84536,0.51916 -1.61213,2.62135 -6.78055,0.73905 -4.16256,-1.45466 1.40759,0.43676 2.82866,0.83221 4.22275,1.31029 0.18995,0.0651 -0.18035,0.35993 -0.29122,0.52736 -0.15473,0.23366 -0.1983,0.72659 -0.47648,0.69266 -1.47603,-0.18 -2.85043,-0.84813 -4.27564,-1.27219 0.0253,-0.0535 0.0505,-0.10704 0.0758,-0.16056 1.89788,-2.92958 6.78363,-0.68282 4.1438,1.4818 -1.39864,-0.48307 -2.81524,-0.91696 -4.19591,-1.44922 -0.23352,-0.09 0.30154,-0.39961 0.45829,-0.59471 0.20005,-0.24899 0.29174,-0.81072 0.60405,-0.74381 1.43174,0.30676 2.68961,1.15841 4.03441,1.73762 -0.0536,0.0458 -0.10722,0.0917 -0.16082,0.1375 -2.61003,2.50498 -3.60682,6.74695 -7.22233,8.42312 -5.68864,4.09203 -11.74919,7.66815 -18.34014,10.11952 -8.85173,2.9356 -16.18437,3.35152 -19.82623,-6.56479 -2.034,-9.67322 -0.85317,-19.50133 0.31362,-29.23538 1.19242,-10.1237 2.32453,-20.31028 5.13781,-30.14211 2.27319,-7.25649 4.50061,-15.69702 10.68606,-20.58545 1.17718,0.13548 2.44031,-0.0554 3.53155,0.40645 3.98678,1.68744 4.45428,13.14748 5.84918,16.71384 0.0231,0.24821 -3.4871,0.57544 -3.51024,0.32723 z"
       inkscape:connector-curvature="0" />
    <path
       style="fill:#241f1c"
       id="path4410"
       d="m 938.68004,833.97031 c -2.10663,-6.17054 -2.59729,-17.83626 -7.57657,-22.36193 -0.67454,1.61638 0.20877,-0.99622 0.851,0.91254 0.18284,0.5434 -1.93801,8.50724 -2.14687,9.57208 -1.35967,5.8896 -1.88553,11.89238 -2.52609,17.88528 -0.91182,8.78388 -0.41613,17.62063 -0.20637,26.42489 0.2667,7.31805 -0.33978,14.67488 0.78864,21.93643 0.73478,0.0808 1.7345,4.01295 -0.99367,0.61212 -0.24278,-0.30263 0.59682,-0.49735 0.87286,-0.76999 0.49163,-0.48558 0.95207,-1.00175 1.4281,-1.50262 4.2852,-4.60524 8.86423,-8.91122 13.03372,-13.62528 3.95854,-5.03752 7.18712,-10.77962 8.46909,-17.08952 0.86531,-8.06886 -1.98469,-15.61728 -4.85628,-22.99065 -2.30042,-4.288 -4.47988,-10.39296 -9.44639,-12.30256 -1.89611,-0.35363 2.11467,0.90827 1.22062,-2.96671 -0.12719,0.0377 0.10231,-0.35371 -0.014,-0.34905 -4.36496,0.17483 -3.06197,-0.13694 0.68131,4.20842 -2.36805,2.07002 -6.2396,-3.18394 -2.31154,-4.83972 0.83974,1.59804 1.95084,3.08068 2.51922,4.79411 0.76477,2.30547 -8.1884,-1.88759 -3.13092,-4.55021 2.67718,-1.48998 5.48542,3.69206 1.75115,5.19753 -0.84098,-1.59656 -1.94252,-3.08106 -2.52294,-4.78968 -0.8217,-2.41888 8.01314,2.01632 3.14292,4.53442 -0.30256,0.24924 -3.82729,-4.02965 -3.52472,-4.27889 l 0,0 c 5.36065,-3.40344 6.08108,5.40368 3.9475,4.07285 -1.6347,-1.01965 -2.97201,-2.45254 -4.45802,-3.67881 2.81453,-2.21142 8.02157,1.45882 5.19479,3.22197 -2.08584,1.30736 -7.0874,-2.02172 -4.73353,-3.59281 0.24495,-0.16349 0.48896,-0.62396 0.74394,-0.47659 1.68754,0.97539 3.08268,2.38616 4.62403,3.57923 -3.05489,2.43525 -8.31635,-1.67585 -4.95997,-3.39271 4.07939,2.08856 8.72399,3.47784 0.77766,4.94108 -0.40776,0.0751 -1.56662,-0.80511 -1.78629,-0.9532 -3.49523,-4.5129 1.76403,-7.04475 5.94341,-5.98037 6.86352,2.26525 10.32958,9.17743 13.31573,15.29962 3.44572,8.45113 6.24952,17.32141 4.80507,26.55468 -1.66328,7.25264 -4.99454,14.01191 -9.74957,19.76573 -4.27181,4.80593 -8.93509,9.20034 -13.54888,13.67296 -5.06392,4.84224 -10.12972,6.92683 -12.70887,-1.39185 -1.47074,-7.50297 -0.78051,-15.14963 -1.00394,-22.75072 -0.18083,-9.06672 -0.0451,-18.18115 1.48461,-27.1446 1.01411,-6.02693 2.1406,-12.0361 3.43995,-18.00849 0.93368,-4.52693 1.719,-14.42845 8.49302,-12.17008 6.44888,6.00502 6.97938,16.11629 8.2126,24.30333 0.0331,0.24999 -3.50238,0.71777 -3.53546,0.46777 z"
       inkscape:connector-curvature="0" />
    <path
       style="fill:#241f1c"
       id="path4412"
       d="m 976.90686,811.75116 c -0.91109,-7.75623 -1.40229,-15.55023 -1.79104,-23.34721 0.78517,0.30517 1.77838,0.30187 2.35551,0.9155 0.25002,0.26584 2.39078,13.4538 2.63501,14.67364 2.18729,9.45793 4.15247,18.95632 5.75827,28.52999 1.43526,8.91911 3.27786,17.8013 4.22466,26.79184 0.27006,3.23142 0.27516,4.39433 -5.41084,1.60119 -0.25279,-0.12417 -0.24723,-5.48415 -0.31452,-7.36671 0.017,-2.85232 0.0351,-5.70501 0.084,-8.55587 0.0281,-1.6411 0.21043,-2.48166 0.27162,-2.47757 0.72334,0.0484 1.29903,0.64402 1.94855,0.96603 1.38596,1.03387 -0.72743,7.23758 -1.84686,1.67433 0.10948,-2.44599 2.09936,0.55304 2.24656,1.77882 -4.93519,-1.61789 -0.89747,-3.93404 -0.0931,-0.68375 0.0328,0.16821 0.0656,0.33641 0.0984,0.50462 -0.002,0.0491 -0.003,0.0982 -0.005,0.14726 0.0262,0.10705 -1.48759,0.47778 -1.51381,0.37074 l 0,0 c -0.028,-0.0412 -0.0561,-0.0823 -0.0841,-0.12349 -0.0643,-0.1603 -0.12858,-0.3206 -0.19287,-0.4809 -1.08449,-3.13981 3.71284,-3.02424 0.26997,0.58958 -0.44584,-0.98061 -0.5516,-4.30335 0.95075,-2.45341 0.89278,2.9597 -2.02294,2.68455 -1.59368,-1.02514 0.50737,-0.38015 0.91198,-0.96817 1.52211,-1.14044 0.003,-7.2e-4 0.0272,0.53352 0.14124,2.28459 0.18197,2.79367 0.62095,5.52612 1.27377,8.25341 0.10296,0.46202 2.05622,7.14192 1.76116,7.38511 -4.89594,4.03506 -5.26806,2.49679 -5.7932,-0.56554 -1.38521,-8.91494 -2.83326,-17.81997 -3.82712,-26.7908 -1.05044,-9.58549 -2.17,-19.15927 -3.71982,-28.67992 -0.22027,-1.66467 -1.7956,-13.81249 -1.12118,-14.93812 0.42065,-0.70209 1.36053,-0.9102 2.0408,-1.36529 1.21705,7.75063 1.46725,15.66459 1.26498,23.49345 0.002,0.10895 -1.53838,0.14301 -1.54079,0.0341 z"
       inkscape:connector-curvature="0" />
    <path
       style="fill:#241f1c"
       id="path4414"
       d="m 976.14041,825.95926 c -2.99017,-6.12985 -7.18875,-11.6456 -10.06863,-17.82323 -0.18002,-3.10112 2.84519,-6.11238 4.37885,-8.73814 4.04972,-7.25218 7.15882,-14.96554 10.72711,-22.45492 1.48153,-2.42521 4.11845,-9.54906 7.46387,-10.24286 0.97417,-0.20203 1.98961,-0.0271 2.98442,-0.0406 4.3436,3.47836 5.00581,9.58432 5.93746,14.73446 1.4095,10.43173 1.93946,20.95493 2.72371,31.44548 0.3637,3.70527 0.5475,7.42834 0.9399,11.13104 0.2359,2.22614 0.5082,3.054 0.315,3.02699 -1.68012,-0.23482 -3.18501,-1.16924 -4.77749,-1.75385 0.14387,-1.95946 0.28592,-3.91913 0.4459,-5.87737 0.19667,-2.40728 0.062,-1.02295 4.20749,0.41321 0.905,3.92827 -5.006,2.99437 -4.11047,-0.67096 0.0194,-0.0393 0.0388,-0.0786 0.0582,-0.11792 1.33162,0.59591 2.80557,0.94276 3.99487,1.78775 0.2521,0.1791 -0.1319,0.60425 -0.2057,0.90453 -0.052,0.21013 -0.01,0.69812 -0.2067,0.61535 -1.34425,-0.55654 -2.65424,-1.19243 -3.98136,-1.78864 -0.22981,-3.4488 5.09476,-2.01946 4.05026,1.65687 -0.024,0.044 -0.047,0.088 -0.071,0.13202 -1.3258,-0.59784 -2.78838,-0.95595 -3.9773,-1.79351 -0.24313,-0.17128 0.12589,-0.5814 0.19567,-0.8705 0.0581,-0.24068 -0.0106,-0.80387 0.2185,-0.70992 1.35353,0.55512 2.65343,1.23302 3.98013,1.84953 -0.068,0.29046 -0.1349,0.58093 -0.2024,0.87139 -0.047,0.30032 -4.29385,-0.35898 -4.24723,-0.65931 l 0,0 c 0.041,-0.29456 0.0821,-0.58913 0.12312,-0.8837 1.47474,-0.18197 2.94284,-0.42989 4.42421,-0.54589 0.2454,-0.0192 -0.018,0.49273 -0.049,0.73683 -0.038,0.2943 0.155,0.79457 -0.1289,0.88097 -1.41271,0.42987 -2.93464,0.33181 -4.40196,0.49772 -0.006,-0.0496 -0.013,-0.0993 -0.0195,-0.14889 0.33056,-3.73044 5.87246,-3.60462 4.42676,-0.34696 -1.47116,0.18541 -2.9364,0.42608 -4.41347,0.55623 -0.22973,0.0202 -0.004,-0.46238 0.022,-0.69151 0.0353,-0.30809 -0.16889,-0.81773 0.12312,-0.92211 1.41404,-0.50551 2.9656,-0.47477 4.44845,-0.71215 0,0.0805 0.01,0.16094 0.015,0.24141 -0.2755,3.85939 -6.305,3.51841 -4.46654,-0.34864 1.48424,-0.46761 2.92138,-1.12599 4.45274,-1.40283 0.599,-0.10829 -0.059,7.10779 -0.1444,7.819 -1.7602,0.77422 -3.38482,2.00053 -5.28058,2.32265 -0.83915,0.14259 -1.9632,-13.75882 -2.03144,-14.83647 -0.65272,-10.38434 -0.84202,-20.79085 -1.62479,-31.16579 -0.43932,-3.8914 -0.95084,-7.89537 -2.57314,-11.45068 0.4644,-0.12964 0.94031,-0.22353 1.39321,-0.38894 0.53289,-0.19463 -1.02601,0.55566 -1.37512,1.00285 -1.76925,2.26634 -2.87655,4.97026 -4.19358,7.49721 -3.65636,7.62562 -6.86834,15.51646 -11.57753,22.58007 -1.12101,1.60044 -3.60274,5.83308 -5.28374,5.83336 2.78758,6.14247 7.16987,11.56883 9.08281,18.14344 0.0499,0.12162 -1.67,0.82752 -1.71991,0.70591 z"
       inkscape:connector-curvature="0" />
    <path
       style="fill:#241f1c"
       id="path4416"
       d="m 1001.9409,788.53067 c -0.6103,-14.91273 2.5818,-29.65457 8.153,-43.41567 2.6204,-5.15231 7.1665,-14.66672 14.1541,-9.24981 3.3207,4.35973 4.8238,9.78745 6.5258,14.9209 3.6117,10.71914 4.7202,21.981 5.8193,33.16879 1.1482,12.2301 3.7427,24.26002 6.0863,36.30088 1.8449,8.41396 3.2304,16.89969 4.3233,25.43964 0.686,4.73127 0.9442,2.70207 -0.6569,2.70791 -2.7773,0.0101 -2.928,1.53993 -2.5836,-0.0427 -0.5512,-4.97286 4.8085,-2.15294 3.7141,-0.34687 -0.9315,1.45584 -0.5476,1.04926 -3.5218,-2.61451 -0.2567,-0.31625 0.4755,-0.67979 0.8047,-0.91971 1.2204,-0.88951 2.0534,2.21543 3.1068,3.29761 -1.4333,2.95928 -5.912,-0.49692 -3.0632,-3.39329 0.054,-0.0414 0.1083,-0.0829 0.1624,-0.12432 0.9803,1.16531 2.2109,2.15949 2.9408,3.49595 0.1527,0.27955 -0.4278,0.47214 -0.6478,0.70249 -0.1609,0.16849 -0.3624,0.63661 -0.521,0.46591 -1.03,-1.10895 -1.9833,-2.2868 -2.975,-3.4302 0.209,-0.22957 0.418,-0.45914 0.6269,-0.68871 0.1797,-0.26907 3.9849,2.27179 3.8052,2.54085 l 0,0 c -0.1895,0.24266 -0.379,0.48531 -0.5685,0.72797 -1.5131,-0.52556 -3.0436,-1.00326 -4.5392,-1.57669 -0.2129,-0.0817 0.2249,-0.39816 0.3606,-0.58146 0.1877,-0.25365 0.2647,-0.7964 0.577,-0.75063 1.6014,0.23469 3.0762,1.00763 4.6142,1.51144 -0.032,0.0622 -0.064,0.12444 -0.096,0.18666 -2.1739,3.07136 -7.4934,0.73316 -4.5732,-1.65261 2.1146,0.53459 5.5485,-0.27371 4.6395,1.52233 -1.0475,2.06983 -6.0165,2.09126 -5.3001,-0.52673 4.6531,-9.89756 6.5049,2.64393 4.879,3.49704 -2.6587,6.32942 -8.5058,2.02738 -9.0495,-2.81072 -1.9439,-8.35081 -2.8013,-16.93308 -4.6038,-25.31822 -2.3611,-12.28527 -4.6026,-24.63702 -5.2521,-37.15348 -0.5797,-10.85536 -1.0201,-21.77688 -3.6556,-32.38002 -1.1477,-4.53313 -1.9976,-9.35476 -4.4696,-13.38952 -0.1286,-0.14552 -0.4318,-0.24785 -0.3859,-0.43655 0.056,-0.23004 0.8118,-0.31789 0.5887,-0.39731 -2.9063,-1.03492 -5.6626,7.90918 -6.3664,8.85194 -4.8633,13.51115 -7.7654,27.56447 -9.1415,41.86141 0,0.27657 -3.9113,0.27657 -3.9113,0 z"
       inkscape:connector-curvature="0" />
    <path
       style="fill:#241f1c"
       id="path4418"
       d="m 1058.8275,732.16352 c 3.8894,16.49324 4.7888,33.47146 5.2427,50.34946 0.1996,5.84952 -0.093,11.71959 0.2361,17.5665 0.028,0.50485 -0.081,4.76221 1.3168,4.86779 1.2367,-1.20698 -1.2781,-0.89384 -1.01,-1.40441 0.3527,-0.67199 7.9672,-6.19375 8.9941,-7.02894 3.9273,-2.90362 7.409,-6.41687 11.5194,-9.06924 3.6843,-2.49723 1.1789,4.60695 0.392,3.73899 -0.5881,-0.64876 -0.9571,-1.46671 -1.4356,-2.20006 1.1445,-2.86898 3.3317,-0.25346 1.5974,2.10117 -1.9978,-1.51892 -1.8374,-1.81334 -0.6676,-3.35704 0.069,-0.14292 2.0903,0.83466 2.0211,0.97758 l 0,0 c -0.798,1.80233 -0.9377,2.00633 -3.442,1.35917 1.1514,-2.41824 4.7915,-2.37644 2.7128,0.0291 -2.9794,-0.23581 -3.1037,0.42329 -2.1154,-1.01103 0.9202,-1.33554 4.3992,-1.77086 2.9292,-0.10645 -2.482,4.20504 -5.6463,7.92297 -9.1254,11.34322 -3.7518,3.54286 -8.5707,9.3289 -14.2575,9.33885 -1.0244,0.002 -1.9096,-0.74237 -2.8644,-1.11355 -5.389,-7.15529 -2.5737,-17.591 -3.5278,-25.89 -0.3871,-16.67783 -1.3717,-33.31689 -2.7637,-49.9414 -0.039,-0.30036 4.2089,-0.85004 4.2478,-0.54968 z"
       inkscape:connector-curvature="0" />
    <path
       style="fill:#241f1c"
       id="path4420"
       d="m 1068.4458,764.76067 c 3.9995,-7.04044 7.1946,-15.12083 12.857,-21.07208 0.7968,0.81374 1.9573,1.38788 2.3903,2.44122 0.1685,0.41007 -2.8062,5.06684 -3.3833,5.78154 -2.6661,-2.00202 -2.7896,-1.95589 -1.4454,-3.87803 0.088,-0.19159 2.7976,1.05481 2.7095,1.2464 l 0,0 c -0.8909,2.10088 -0.4355,1.91224 -3.9442,1.17472 0.3795,-0.721 2.8971,-5.42921 3.0741,-5.47488 1.0978,-0.28326 2.2582,0.20546 3.3874,0.30818 -3.5451,7.24596 -8.1466,13.94006 -11.9389,21.05343 -0.1117,0.26209 -3.8182,-1.31841 -3.7065,-1.5805 z"
       inkscape:connector-curvature="0" />
    <path
       style="fill:#241f1c"
       id="path4422"
       d="m 1057.9693,729.20841 c 4.5964,-13.64687 12.4566,-25.86587 21.1045,-37.2652 1.2915,-1.57999 2.5559,-3.18244 3.8744,-4.73998 1.2076,-1.42662 3.2067,-3.79496 4.8486,-5.07829 0.2959,-0.23124 0.7615,-0.80363 1.0019,-0.51514 2.9265,3.51203 2.2148,3.3611 0.5574,6.00346 -0.431,0.60693 -0.8472,1.22461 -1.2929,1.82079 -0.8081,1.08098 -2.1896,2.68523 -2.3219,2.55345 -2.8954,-2.88404 -2.8539,-2.23592 -1.6249,-4.18426 0.7886,-2.62442 4.1441,0.33669 3.0366,2.27984 -0.099,0.23278 -3.3913,-1.17255 -3.2919,-1.40533 l 0,0 c 0.8848,-1.87289 5.4905,-1.21261 3.5386,0.73524 -1.1834,2.05947 -0.2815,1.22805 -4.2902,0.33395 -2e-4,-5e-5 0.2904,-0.38832 1.5561,-2.22332 0.4025,-0.58362 0.8026,-1.16888 1.204,-1.75332 1.9635,-2.87812 0.6633,-2.16394 5.2424,-1.50742 0.1045,0.015 -1.4695,1.91253 -4.0232,5.45931 -1.1596,1.61065 -2.2903,3.24195 -3.4354,4.86292 -7.8657,11.59409 -15.5603,23.31155 -22.0403,35.75592 -0.08,0.25766 -3.7239,-0.87496 -3.6438,-1.13262 z"
       inkscape:connector-curvature="0" />
    <path
       style="fill:#241f1c"
       id="path4424"
       d="m 1139.6751,762.59784 c -3.1656,7.13274 -8.2479,13.72544 -9.9127,21.46419 0.777,-1.77092 -1.3516,-1.49572 -1.4155,-1.81417 -0.052,-0.2608 2.0672,0.0281 3.6076,0.17929 2.7122,0.70786 1.7896,3.80704 3.1537,5.31221 -0.1457,-0.0553 0.3398,0.23975 0.3142,0.12943 -0.1218,-0.52373 -0.9001,-0.71729 -1.4377,-0.73163 1.3829,-0.50941 2.765,-0.94449 4.2184,-1.20123 1.4493,-0.19537 2.7899,-0.642 4.0791,-1.32157 1.7189,-1.17741 3.7027,-1.59358 5.6873,-2.04294 4.99,0.21512 3.6993,-1.02453 1.1539,0.58882 0.9507,-2.33964 1.9793,-4.663 2.6391,-7.1054 0.2467,-1.92096 0.6213,-3.82992 0.7308,-5.76652 0.039,-1.37887 0.1524,-2.69644 -0.4076,-3.96992 -0.8068,-1.46927 -1.4472,-3.01606 -2.1539,-4.53247 -1.1905,0.68619 2.5864,-0.0715 0.022,1.04429 -1.9939,1.05883 -4.1543,1.70747 -6.2635,2.48299 -1.5011,0.32845 -1.727,1.41452 -2.228,2.80066 -0.046,0.29385 -4.2019,-0.35915 -4.1557,-0.653 l 0,0 c 0.1475,-2.80957 0.4312,-5.71094 3.4326,-6.88005 2.0432,-0.80765 4.1199,-1.53284 6.1206,-2.44226 2.9484,-1.18865 6.2631,-1.64327 8.0098,1.58087 0.8603,1.58239 1.6256,3.2162 2.4311,4.82703 0.7681,1.95574 1.0231,3.93989 0.8375,6.04158 -0.1516,2.21003 -0.4285,4.41059 -0.6639,6.61275 -0.6197,2.84016 -1.5106,5.60886 -2.6895,8.26907 -1.4315,2.56321 -2.5943,3.14191 -5.4966,2.87507 -0.3622,-0.0333 2.3883,0.0388 1.0874,-0.0905 -1.4338,0.13447 -2.9154,0.452 -4.1794,1.18275 -1.7275,1.01145 -3.5108,1.90534 -5.5227,2.16487 -1.2798,0.26013 -2.5974,0.20124 -3.7862,0.86066 -3.0435,1.13187 -5.8466,0.47944 -7.5268,-2.31175 -0.3452,-0.81317 -1.7937,-4.01595 0.061,-2.35718 0.5082,-0.003 1.0165,-0.002 1.5246,-0.01 0.2295,-0.003 -0.4591,-0.01 -0.6885,-0.003 -0.8599,0.0279 -1.724,0.20719 -2.5786,0.10846 -2.5203,-0.29117 -3.6794,-2.25177 -3.8564,-4.59322 0.9852,-8.58965 5.9719,-16.12485 10.518,-23.25377 0.1807,-0.37719 5.515,2.17755 5.3343,2.55474 z"
       inkscape:connector-curvature="0" />
    <path
       style="fill:#241f1c"
       id="path4426"
       d="m 1122.8076,618.67112 c 2.9816,12.41645 3.866,25.18304 4.1609,37.90798 -0.1874,6.89912 -0.2756,13.73483 0.5979,20.58606 1.3028,7.62667 2.4743,15.26999 2.9535,22.99624 0.2946,5.58971 0,11.18442 -0.3166,16.76587 -0.1528,3.59445 -0.038,7.19056 0.036,10.78505 0.053,5.20319 0.9777,3.60036 -5.8883,2.75981 -0.217,-3.84768 6.8228,-1.33506 5.2237,1.71066 -0.068,-1.99377 -3.4926,-1.72704 -5.0157,-2.91974 -0.2365,-0.18521 0.2641,-0.53969 0.4033,-0.80591 0.09,-0.17229 0.1523,-0.58683 0.3197,-0.48782 1.6612,0.98311 3.2929,2.01531 4.9394,3.02296 -0.6451,3.70797 -7.2188,0.89499 -5.017,-2.96972 0.034,-0.037 0.067,-0.074 0.1007,-0.11094 1.6401,1.02493 3.4524,1.81553 4.9203,3.0748 0.053,0.0457 -0.7522,1.46411 -0.7846,1.44498 -1.6716,-0.98668 -3.2727,-2.08804 -4.9091,-3.13205 0.1836,-0.49287 0.4849,-0.92506 0.7613,-1.36004 0.1392,-0.37348 5.421,1.595 5.2818,1.96849 l 0,0 c -0.1411,0.48921 -0.2642,0.99599 -0.5115,1.45374 -1.9726,-0.30068 -3.9562,-0.5362 -5.9178,-0.90204 -0.2419,-0.0451 0.1347,-0.47409 0.2239,-0.70342 0.1078,-0.27735 0.039,-0.83234 0.3367,-0.82681 1.9861,0.0369 3.923,0.62834 5.8845,0.94251 -0.01,0.0495 -0.011,0.0991 -0.016,0.14861 -1.3794,4.03791 -8.3043,2.12017 -5.8798,-1.07973 1.9722,0.28444 3.9537,0.5105 5.9165,0.85333 0.2247,0.0392 -0.1,0.44644 -0.1778,0.6607 -0.1036,0.2838 -0.026,0.8297 -0.3276,0.84505 -6.2683,0.31897 -6.3249,1.42017 -5.9683,-0.86099 1.0085,-3.55653 8.4672,-2.10727 5.8986,1.56968 -8.0888,1.91686 -7.0427,2.57978 -7.4127,-4.12944 -0.1186,-3.76739 -0.1653,-7.54052 0.107,-11.30328 0.2993,-5.33667 0.852,-10.67377 0.5551,-16.02626 -0.5032,-7.64339 -1.3894,-15.25077 -2.0603,-22.87983 -0.4488,-6.986 -0.069,-13.94868 -0.1419,-20.9418 -0.4645,-12.50855 -1.6027,-24.96012 -2.7559,-37.42111 -0.045,-0.31681 4.4354,-0.9524 4.4804,-0.63559 z"
       inkscape:connector-curvature="0" />
    <path
       style="fill:#241f1c"
       id="path4428"
       d="m 947.79529,1023.008 c 5.57619,-9.6749 12.28241,-18.6666 19.80832,-26.90367 1.67499,-0.87651 5.25859,-6.46178 7.7718,-5.78013 2.97637,6.69292 -2.60831,1.60028 0.10687,0.0211 0.17281,-0.0921 0.34562,-0.18413 0.51843,-0.2762 0.0753,-0.0307 0.15058,-0.0614 0.22587,-0.0922 0.14573,-0.12838 1.96127,1.93259 1.81553,2.06096 l 0,0 c -0.0566,0.0521 -0.11329,0.10418 -0.16993,0.15627 -0.15429,0.11317 -0.30858,0.22634 -0.46286,0.33951 -2.34932,1.5873 -4.9803,-2.30536 -2.85953,-1.63712 1.03145,0.325 1.91337,1.00849 2.87005,1.51274 7.3e-4,0.0689 10e-4,0.13783 0.002,0.20675 -1.27164,2.42465 -4.89489,3.50556 -6.03655,6.10413 -7.10634,8.44136 -13.51664,17.41456 -20.4423,25.99886 -0.12099,0.2226 -3.26888,-1.4884 -3.1479,-1.711 z"
       inkscape:connector-curvature="0" />
    <path
       style="fill:#241f1c"
       id="path4430"
       d="m 1011.4922,1004.7929 c -0.2927,-13.66045 -0.3959,-27.31862 -0.9398,-40.97406 -0.253,-6.63051 -0.8457,-13.24813 -0.9147,-19.88514 0.1417,-4.48627 0.1162,-8.97437 0.1038,-13.46202 0.037,-3.76563 0.1041,-7.5287 0.079,-11.29427 0.03,-1.51656 0.044,-3.03277 0.012,-4.54923 0.023,-1.21128 -0.016,-2.42264 0.035,-3.6334 0.5859,-2.62877 0.1889,-2.36673 5.7756,0.64102 0.059,0.0319 3.0398,7.53687 3.2786,8.092 3.172,7.99969 5.7358,16.2252 8.1611,24.47677 3.8223,12.18216 6.5529,24.66168 9.4144,37.09292 1.5226,6.72388 3.7491,13.27013 6.7289,19.48421 0.6498,2.3844 0.2967,1.1579 -0.093,1.2309 -5.0526,0.9472 -3.82,2.8588 -4.9991,-0.189 -0.023,-0.066 -0.047,-0.1325 -0.07,-0.1987 1.6751,-0.161 3.3468,-0.6016 5.0255,-0.4828 0.2962,0.021 0.1687,0.5695 0.2478,0.8558 0.051,0.1825 0.3024,0.5409 0.1137,0.5565 -1.6713,0.1387 -3.3459,0.2326 -5.0189,0.3489 -1.816,-3.0238 4.3516,-3.71754 5.0257,-0.3692 0,0.042 0,0.083 0,0.1244 -1.7125,-0 -3.4491,0.2708 -5.1373,-0.016 -0.303,-0.052 -0.1535,-0.5952 -0.222,-0.8948 -0.048,-0.2094 -0.3038,-0.6315 -0.089,-0.6383 1.7042,-0.054 3.4101,-0.018 5.1151,-0.028 1.888,3.2792 -4.3419,4.1271 -5.1177,0.1873 0,-0.05 0,-0.1 0,-0.1498 1.7029,-0.015 3.4262,-0.3072 5.1088,-0.044 0.2985,0.047 0.1548,0.5842 0.2253,0.878 0.058,0.2432 0.3789,0.7296 0.1289,0.7391 -1.7112,0.066 -3.4249,-0 -5.1373,-0 -1.7697,-3.16404 4.299,-4.05616 5.1129,-0.2228 0.083,0.3351 -4.6566,1.5093 -4.7396,1.1741 l 0,0 c -1.4575,-3.77595 4.3609,-5.63943 4.5347,-2.1671 -1.4765,0.7917 -2.9219,1.6444 -4.4295,2.3752 -0.2274,0.1102 -0.2133,-0.4592 -0.2982,-0.6973 -0.1019,-0.2856 -0.5326,-0.6767 -0.2922,-0.8615 1.3221,-1.0161 2.9546,-1.5467 4.4319,-2.32009 0.029,0.0425 0.058,0.085 0.087,0.12759 1.5491,3.8442 -4.3835,5.8261 -4.5193,2.2008 1.4752,-0.7818 2.9288,-1.6057 4.4255,-2.34535 0.1972,-0.0975 0.2036,0.39135 0.28,0.59765 0.1071,0.2897 0.5462,0.6814 0.3054,0.8747 -1.3079,1.0502 -2.9407,1.6146 -4.411,2.4219 -0.027,-0.042 -0.054,-0.084 -0.082,-0.126 -1.3323,-3.2872 4.4249,-5.50983 4.5574,-2.0531 -1.4609,0.8103 -2.8783,1.7045 -4.3826,2.4309 -1.1922,0.5757 -0.4614,-10.19457 3.8398,-4.0095 2.6754,5.1709 -2.6559,7.5886 -5.2535,3.4168 -4.2397,-6.26003 -6.2526,-13.57506 -7.9954,-20.86956 -2.801,-12.32375 -5.2751,-24.73363 -8.7173,-36.90079 -2.3409,-8.1007 -4.839,-16.16125 -7.5435,-24.14744 -0.296,-0.81783 -2.9514,-8.57291 -2.8877,-8.62416 5.1842,-4.16974 4.409,0.54075 4.7273,-1.99382 0.066,1.24295 0.026,2.48685 0.01,3.73065 -0.078,1.46217 -0.1109,2.92574 0,4.38809 0.1303,3.81629 0.3795,7.62912 0.3375,11.44945 -0.1325,4.49183 -0.47,8.96384 -0.92,13.43367 -0.1997,6.57538 1.4608,13.04765 1.7288,19.60477 0.8577,13.7555 1.2428,27.56457 -0.069,41.31014 -0.01,0.3304 -4.6791,0.2384 -4.6725,-0.092 z"
       inkscape:connector-curvature="0" />
    <path
       style="fill:#241f1c"
       id="path4432"
       d="m 1013.4065,983.5348 c 3.9938,-8.89715 8.7126,-17.47366 14.2369,-25.51217 0.8309,-2.18014 6.8831,-8.92674 4.2507,-0.58926 -0.5101,4.0169 -3.0187,3.13507 -1.9178,-0.34471 1.4812,-1.01469 1.1135,1.8749 0.8809,2.63446 -0.014,0.0807 -1.1554,-0.12038 -1.1412,-0.20107 l 0,0 c 0.042,-1.26609 0.3336,-2.38666 1.5162,-2.17221 -0.522,2.89869 -3.0808,3.69115 -0.8573,-0.31719 0.4582,-1.43902 0.4406,-2.60055 2.3871,-2.98012 0.6618,-0.12907 -0.2383,1.32987 -0.4255,1.97766 -0.6543,2.26393 -0.2013,0.90552 -1.2188,3.54704 -3.7955,8.97039 -9.1522,17.26691 -14.2142,25.55316 -0.1128,0.24728 -3.6098,-1.34832 -3.497,-1.59559 z"
       inkscape:connector-curvature="0" />
    <path
       style="fill:#241f1c"
       id="path4476"
       d="m 1034.8141,887.10881 c 6.4018,11.49543 10.7946,23.89611 14.6386,36.4326 3.7224,12.96361 6.5476,26.18503 8.8558,39.46946 1.3489,8.76169 2.1791,17.5985 2.7597,26.44206 0.1786,2.99176 0.6384,5.2178 -4.8047,2.08645 -0.041,-0.0236 1.1483,-2.62093 1.2231,-2.7859 1.3015,-3.45246 4.9562,-1.14924 4.26,1.87754 -1.9057,4.00294 -4.3195,-2.77395 -3.3959,-2.55474 1.1486,0.27258 2.2452,0.72992 3.3678,1.09488 0.1117,0.51761 0.075,1.03899 0.065,1.55531 0.018,0.21689 -3.0491,0.47549 -3.0674,0.2586 l 0,0 c -0.1343,-0.45507 -0.2953,-0.94171 -0.3242,-1.4275 1.0252,-0.44949 2.7559,-2.45211 3.0636,-1.37577 0.1068,0.37366 0.5273,0.98539 0.1764,1.15246 -0.9391,0.44712 -2.8382,-0.35361 -3.0105,0.82038 0.2307,-2.38859 3.6673,-1.2021 1.9581,-0.18721 -0.1315,0.25486 -0.3299,0.48515 -0.3944,0.76457 -0.061,0.26501 0.2755,0.69894 0.03,0.8154 -5.104,2.41845 -4.8692,2.22556 -5.5652,-1.47695 -1.4062,-8.66671 -1.8124,-17.47447 -3.0679,-26.16412 -1.8874,-13.12881 -4.262,-26.19104 -7.3506,-39.09422 -3.4404,-12.40341 -7.5425,-24.60323 -12.464,-36.50381 -0.085,-0.21545 2.962,-1.41494 3.0468,-1.19949 z"
       inkscape:connector-curvature="0" />
    <path
       style="fill:#241f1c"
       id="path4478"
       d="m 1062.7766,870.0712 c 2.3532,16.25664 5.4431,32.3785 8.9605,48.41911 3.0628,13.89979 6.7758,27.64432 10.8999,41.2638 -5.6492,-40.26598 -0.2658,-51.17688 6.0311,-61.4651 2.6492,-3.2 5.443,-9.05304 10.0501,-10.04179 0.9726,-0.20874 1.9848,-0.13612 2.9772,-0.20417 4.1945,0.83221 7.0785,3.31782 8.4733,7.29811 1.0076,8.38867 -0.666,16.96323 -1.9368,25.25485 -1.8912,12.059 -5.5779,23.69945 -9.3417,35.27494 -2.941,8.58105 -5.7343,17.23882 -9.4907,25.50741 -1.6587,3.42903 -2.1453,3.84095 -6.5031,-0.92146 -0.1703,-0.18606 1.4018,-3.12483 1.6003,-3.54264 1.0506,-1.93659 0.5778,-1.36181 4.856,2.68537 0.055,0.0524 -0.8332,1.54522 -0.874,1.5201 -1.5649,-0.9633 -3.077,-2.00993 -4.6154,-3.0149 0.7147,-3.60888 6.7755,-0.40707 4.7045,2.90857 -0.034,0.0339 -0.067,0.0679 -0.1007,0.10178 -1.5242,-1.02765 -3.2206,-1.83738 -4.5725,-3.08296 -0.037,-0.0341 0.7657,-1.37163 0.8067,-1.34539 1.5543,0.99393 3.0376,2.09484 4.5563,3.14226 -1.5519,2.75955 -0.6806,1.32716 -5.3547,-1.80709 0.1518,-0.36576 5.3244,1.78058 5.1726,2.14634 l 0,0 c -5.6818,-1.15872 -6.3261,0.44179 -5.0085,-2.49267 1.8686,0.35549 3.7502,0.64856 5.6059,1.06645 0.2299,0.0518 -0.1485,0.44803 -0.2433,0.66378 -0.1142,0.25977 -0.072,0.78903 -0.3548,0.77376 -1.8919,-0.10199 -3.7184,-0.72904 -5.5777,-1.09355 0.01,-0.0507 0.017,-0.10136 0.026,-0.15204 1.3631,-3.49452 8.1108,-1.74389 5.5437,1.30133 -1.888,-0.30422 -3.7932,-0.51586 -5.664,-0.91265 -0.2967,-0.0629 0.1646,-0.58515 0.2786,-0.8662 0.1293,-0.31892 0.063,-0.93143 0.4066,-0.94901 6.2584,-0.32004 6.28,-1.17107 5.6896,1.17811 -0.1827,0.53144 -1.0895,3.71769 -1.5191,3.78919 -6.6674,1.1097 -6.9977,0.66579 -5.942,-3.28956 2.5802,-8.64305 6.398,-16.87136 9.3485,-25.38861 4.1018,-11.19027 8.4221,-22.3614 10.7714,-34.088 1.6322,-7.65519 3.6809,-15.43272 3.7317,-23.2922 -0.7016,-2.57525 -2.8725,-4.13957 -5.4752,-4.56382 -3.0395,0.0728 -5.9724,5.87669 -7.8394,8.4441 -5.8669,10.36346 -10.9702,21.12657 -16.1159,60.97989 -4.3547,-13.72598 -8.2796,-27.59949 -11.0742,-41.73754 -3.1507,-16.26511 -6.2483,-32.68742 -6.3399,-49.31254 -0.011,-0.2442 3.4425,-0.39956 3.4535,-0.15536 z"
       inkscape:connector-curvature="0" />
    <path
       style="fill:#241f1c"
       id="path4482"
       d="m 1124.659,911.71519 c 4.9411,-8.69939 8.7453,-18.0706 9.9015,-28.04887 -0.054,-1.17808 0.1265,-2.72202 -0.6032,-3.81738 -0.1806,-0.27113 -1.1697,-0.25589 -0.9773,0.007 0.3472,0.47415 1.3186,-0.014 0.3554,0.3748 -2.0936,1.03997 -2.9206,2.50815 -3.6405,4.66466 -1.4127,7.0342 -1.3943,14.25245 -1.4361,21.39703 0.1849,6.95428 -0.3439,14.0122 1.1106,20.8579 -0.3543,0.62496 2.6857,4.7964 3.013,2.88527 0.039,-0.22524 -0.6764,-0.24507 -0.537,-0.42619 0.3587,-0.46628 1.0234,-0.58069 1.535,-0.87104 4.6878,-3.30554 9.6223,-6.31985 14.0004,-10.03834 0.7326,0.56229 2.625,-3.96587 2.9659,-3.55773 2.3979,2.87041 1.4681,2.52844 -0.3547,3.83009 -1.0945,0.26585 -2.936,-1.99984 -0.2236,-2.951 0.9309,3.18524 1.8524,2.64806 0.021,3.3175 -1.7385,0.63545 -2.1959,-2.60388 -0.5252,-3.2292 2.4808,-0.83917 2.7194,2.67706 -0.1171,3.41074 -0.75,-3.28795 -1.7135,-2.77115 0.1104,-3.4113 1.848,-0.6486 2.2679,2.61745 0.5455,3.23775 -0.16,0.0492 -0.32,0.0985 -0.4799,0.14768 -0.05,0.005 -0.1,0.01 -0.1494,0.0148 -0.1824,0.11916 -1.8675,-2.46028 -1.6851,-2.57944 l 0,0 c 0.034,-0.0295 0.068,-0.059 0.1021,-0.0885 0.1431,-0.0752 0.2862,-0.15032 0.4293,-0.22548 1.5061,-0.69772 5.0761,1.24779 3.0211,2.22314 -0.2594,0.12312 -0.5299,0.49077 -0.784,0.35697 -1.0607,-0.55859 -1.8715,-1.49876 -2.8072,-2.24814 2.149,-1.27915 6.1654,0.54174 3.6146,1.88726 -3.9387,1.82365 -4.4045,-3.45568 -2.294,-2.60641 1.1587,0.46628 2.1095,1.33809 3.1642,2.00714 -1.6146,1.62708 -6.7305,0.92355 -4.3502,-1.5001 2.9127,-2.59788 7.9212,-2.58841 4.4025,2.23781 -0.5018,0.68827 -1.0663,1.32864 -1.5994,1.99296 -3.8315,4.75349 -8.3077,8.87371 -13.3051,12.39746 -6.8006,3.69217 -11.0872,1.92932 -13.4834,-5.16618 -1.6006,-7.24341 -1.4322,-14.66509 -1.2222,-22.04792 0.3883,-7.5707 0.7669,-15.25424 3.0028,-22.54972 1.1415,-2.9809 2.5307,-5.2778 5.3267,-6.92042 5.6457,-2.94263 8.7695,2.18901 9.0965,7.30063 -0.366,10.92357 -4.1827,21.24009 -10.4142,30.21392 -0.1753,0.33443 -4.9049,-2.14474 -4.7296,-2.47917 z"
       inkscape:connector-curvature="0" />
    <path
       style="fill:#241f1c"
       id="path4484"
       d="m 1155.001,867.92732 c 1.9918,12.59982 4.0985,25.17609 6.3782,37.7269 0.1714,4.4768 2.5713,9.1557 1.89,13.68673 -1.4419,-0.26386 -2.9808,-0.20884 -4.3259,-0.79158 -0.5963,-0.25832 -2.726,-8.01064 -2.9432,-8.85191 -1.7538,-7.08129 -3.0438,-14.26753 -4.3337,-21.44477 -0.811,-4.88083 -1.7554,-9.84279 -1.2592,-14.80498 0.4854,-2.93044 2.6444,-5.1162 4.228,-7.51272 2.6243,-4.13181 4.4882,-8.66463 6.7203,-13.0022 2.447,-3.88472 4.0457,-8.51072 7.1653,-11.9467 3.5812,-0.77369 -0.187,5.4188 -0.298,5.29242 -0.54,-0.61486 -0.9043,-1.36417 -1.3565,-2.04626 0.4987,-3.15016 2.8446,-1.04542 1.792,1.2736 -0.038,0.063 -0.076,0.12598 -0.1141,0.18897 -0.5137,-0.5463 -1.1997,-0.97125 -1.5413,-1.63889 -0.2194,-0.42901 0.2605,-1.6632 0.5958,-1.31716 0.5383,0.55539 1.0054,1.17555 1.5081,1.76332 -0.5993,3.00734 -2.6798,0.7813 -1.6125,-1.6248 1.8047,0.85428 1.7623,1.51563 0.9673,3.04517 -0.037,0.12715 -1.8352,-0.39667 -1.7982,-0.52382 l 0,0 c 0.3309,-1.69104 0.7847,-2.29602 2.7259,-1.96918 -0.6348,2.41727 -3.7711,3.34822 -2.3456,0.4711 0.7822,-0.20818 1.5544,-0.45829 2.3466,-0.62455 0.4633,-0.0972 0.064,1.16222 -0.3589,1.37389 -0.6967,0.34829 -1.525,0.31755 -2.2875,0.47633 0.011,-0.0645 0.021,-0.1291 0.032,-0.19366 0.7199,-2.54137 3.8289,-2.85505 2.1479,-0.0538 -2.8183,0.46647 -2.5147,0.88342 -1.7081,-1.03566 0.1759,-0.41853 0.1401,-1.02098 0.5292,-1.25496 0.7407,-0.44548 1.6844,-0.3886 2.5266,-0.5829 -2.1131,3.94997 -4.0725,7.96478 -5.763,12.1176 -1.8915,4.69876 -3.7579,9.44306 -6.7181,13.59847 -1.3833,1.85462 -3.3374,3.65052 -3.9953,5.88132 0.01,4.71548 1.392,9.33616 2.1502,13.95685 1.4666,7.06497 2.8759,14.1432 4.4824,21.17799 0.631,2.41271 1.294,4.80527 2.0819,7.17199 0.1413,0.42446 0.773,0.97332 0.4372,1.26888 -0.9243,0.81345 -2.2878,0.91106 -3.4317,1.36658 -0.3394,-2.75301 -2.0483,-8.6566 -2.5835,-12.19403 -2.4296,-12.61903 -4.4512,-25.37281 -4.5231,-38.25756 -0.012,-0.18333 2.581,-0.34934 2.5927,-0.16601 z"
       inkscape:connector-curvature="0" />
    <path
       style="fill:#241f1c"
       id="path4486"
       d="m 1183.2179,821.85759 c -4.0594,-9.9152 -7.4043,-20.15863 -9.4756,-30.67918 0,-0.42879 -0.4335,-1.32781 -0.01,-1.28637 1.2136,0.11783 2.4075,0.76026 3.2868,1.60486 2.1797,2.09372 5.3885,12.01777 6.5126,15.05569 3.8313,10.50218 6.4256,21.38257 8.8568,32.27531 2.219,9.89251 3.3148,19.98137 4.9852,29.96971 0.5656,4.61107 2.2629,8.97584 3.0618,13.52972 -0.8368,3.51578 -4.3337,2.40226 -5.1715,-0.9232 1.3861,-0.0372 2.7897,-0.33478 4.1583,-0.11175 0.2904,0.0473 0.1937,0.55575 0.2842,0.83574 0.7322,2.26651 -3.6061,1.93973 -4.2348,0.0394 -0.6913,-3.1397 3.8446,-2.14659 4.5177,0.96339 -1.3966,0.0102 -2.818,0.29307 -4.1898,0.0306 -0.3075,-0.0588 -0.205,-0.59163 -0.3003,-0.88978 -0.7537,-2.35659 3.6998,-1.75451 4.3367,0.17492 0.048,0.17221 0.095,0.34442 0.1424,0.51663 0.083,0.26277 -3.6332,1.43531 -3.7161,1.17253 l 0,0 c -0.08,-0.16201 -0.1596,-0.32403 -0.2394,-0.48605 -0.8312,-1.91972 2.3275,-4.74279 3.2874,-2.58047 0.1276,0.28738 0.5818,0.6365 0.3691,0.86807 -0.9139,0.99496 -2.208,1.5573 -3.312,2.33595 -1.6329,-2.90624 1.3746,-6.05977 2.8937,-3.30091 1.9301,4.46865 -5.2535,3.11912 -3.6968,1.53572 0.9416,-0.95769 2.2326,-1.49342 3.3489,-2.24013 1.6752,3.26119 -0.7148,5.69488 -3.4447,3.60104 -2.6023,-4.34029 -3.7383,-9.23622 -4.6159,-14.18902 -1.5501,-9.94303 -2.4577,-19.97344 -4.271,-29.87651 -1.9268,-10.80342 -3.9038,-21.62437 -7.1532,-32.12617 -0.5642,-1.95019 -4.9582,-14.14667 -4.9531,-15.14883 0.01,-0.98471 0.5665,-1.92825 1.151,-2.72073 0.2001,-0.27127 0.076,0.6698 0.1147,1.0047 2.4959,10.35428 5.6642,20.55057 8.6668,30.76409 0.02,0.0844 -1.1733,0.36542 -1.1931,0.28106 z"
       inkscape:connector-curvature="0" />
    <path
       style="fill:#241f1c"
       id="path4488"
       d="m 1180.9489,869.27622 c 0.6245,-13.53682 4.0183,-26.73427 7.7597,-39.69351 2.1743,-7.8122 5.4611,-14.99905 10.8519,-21.05797 2.5486,-4.44435 5.9091,-1.70406 3.0806,2.44501 -2.0485,2.64829 -3.3647,-0.89675 -1.7359,-3.2866 0.7097,0.74165 1.6258,1.33023 2.129,2.22495 1.0155,1.80589 -4.4304,2.24943 -2.5905,-1.48023 0.07,-0.19386 2.8119,0.79932 2.7416,0.99318 l 0,0 c -0.5722,1.48037 -4.0779,2.3168 -3.2959,0.30404 0.1103,-0.28393 0.047,-0.77666 0.3429,-0.84702 1.0083,-0.23938 2.0725,0.0184 3.1087,0.0276 -0.8449,2.49214 -4.4918,2.96181 -3.2937,0.72167 0.3506,-0.59132 0.3541,-1.70014 1.0365,-1.78288 4.528,-0.54894 2.431,0.89519 1.2936,2.37067 -3.9346,6.38495 -6.7878,13.25494 -8.5507,20.56866 -3.5123,12.80869 -6.6581,25.70333 -9.0745,38.76875 -0.019,0.26893 -3.8228,-0.007 -3.8033,-0.27627 z"
       inkscape:connector-curvature="0" />
    <path
       style="fill:#241f1c"
       id="path4490"
       d="m 1225.0649,864.35841 c 6.4658,10.77941 10.8227,22.65629 14.153,34.72997 1.7235,6.50801 2.7742,13.15048 1.2494,19.76802 0.011,1.77121 -3.9289,0.58498 -0.3308,-0.90437 1.6062,-0.66487 0.8279,-0.63119 2.3295,1.01383 0.611,2.14583 -1.1753,4.43603 -2.5796,1.5372 -0.3877,-1.72982 2.0897,-0.0344 2.5681,0.59164 0.05,0.0658 -0.8798,0.77679 -0.9301,0.71103 l 0,0 c -0.6127,-0.47505 -1.6224,-2.184 -0.5002,-1.80103 0.373,0.62717 -0.1576,2.51644 0.1402,-0.72593 0.234,-0.21176 0.6572,-0.32285 0.7022,-0.63527 0.033,-0.22961 -0.4878,0.087 -0.6474,0.25531 -0.3692,0.38932 -0.3753,1.15674 -0.8756,1.35069 -3.2024,1.24156 -3.5456,0.459 -3.961,-1.79573 -0.016,-6.14778 -0.5027,-12.23635 -2.3277,-18.16135 -3.3342,-11.74923 -7.686,-23.15648 -12.4898,-34.38128 -0.1098,-0.24748 3.39,-1.80021 3.4998,-1.55273 z"
       inkscape:connector-curvature="0" />
    <path
       style="fill:#241f1c"
       id="path4492"
       d="m 1251.7788,851.58707 c 5.1831,12.09881 8.5989,24.88677 10.4703,37.8953 0.3202,0.60704 0.6947,13.4778 0.01,13.46826 -4.5584,-0.0634 -4.071,-0.56713 -4.4204,-3.20701 -0.048,-0.52653 -0.1069,-1.05224 -0.1452,-1.57961 -0.3201,-4.4108 3.6794,-3.49817 4.0614,-0.13765 0.7629,2.5254 -3.7881,1.34839 -4.0234,-0.72875 -0.037,-0.26694 3.7385,-0.78373 3.7751,-0.5168 l 0,0 c 0.4359,2.03211 -3.6032,4.18576 -3.5505,1.69604 -0.4977,-2.92714 3.1403,-4.72482 3.6902,-0.68027 0.069,0.50769 0.1325,1.01613 0.1987,1.5242 0.3045,2.55588 0.8939,2.8646 -3.482,3.73338 -0.1064,0.0211 -2.3553,-12.26598 -2.3403,-12.68267 -2.4976,-12.59879 -5.4989,-25.06324 -8.7591,-37.48613 -0.092,-0.31934 4.4244,-1.61764 4.5162,-1.29829 z"
       inkscape:connector-curvature="0" />
    <path
       style="fill:#241f1c"
       id="path4494"
       d="m 1221.9269,964.13963 c 10.7459,-8.41446 21.4447,-16.81817 30.8745,-26.71624 5.4016,-5.41005 8.5196,-12.40911 12.802,-18.61212 3.1966,-4.54888 7.464,-8.07103 11.6861,-11.60492 1.6222,-1.457 3.2747,-3.01625 5.5274,-3.23563 1.7473,0.18061 2.8539,4.3954 0.5615,4.30909 -6.3125,-1.3333 1.6236,-5.30923 1.6634,-3.98868 0.04,1.33611 -0.081,2.6722 -0.1215,4.0083 -2.8284,0.93567 -4.171,-4.21123 -0.1486,-4.03719 0.2772,-0.0792 1.398,3.84151 1.1207,3.92076 l 0,0 c -3.3257,0.36965 -5.8776,-4.53588 -2.142,-3.97447 0.8011,1.30882 1.6662,2.58059 2.4034,3.92647 0.1315,0.24016 -0.5402,0.0941 -0.8131,0.11704 -0.3193,0.0269 -0.7485,0.3074 -0.959,0.0659 -1.0074,-1.15578 -1.6016,-2.61489 -2.4024,-3.92234 0.082,-0.0218 0.165,-0.0435 0.2475,-0.0653 2.3913,-0.2812 4.8511,3.88019 2.0892,4.48782 -1.0422,-0.0104 -1.9851,1.35764 -2.8266,2.08678 -3.819,3.38438 -7.8963,6.55039 -11.0408,10.61272 -4.4406,6.3694 -7.5961,13.59884 -12.9457,19.33934 -9.5227,10.4041 -20.516,19.26559 -32.7182,26.37973 -0.219,0.20208 -3.0768,-2.89495 -2.8578,-3.09702 z"
       inkscape:connector-curvature="0" />
    <path
       style="fill:#241f1c"
       id="path4498"
       d="m 1223.912,967.66903 c 4.0008,7.89559 6.6918,16.39649 10.8003,24.23403 1.279,2.26306 3.0892,1.88629 5.3985,2.1015 4.0007,0.61509 7.7699,2.10804 11.8441,2.07908 2.9137,-0.55411 4.329,-2.24302 6.138,-4.44603 2.1569,-2.66481 3.7331,-5.64461 5.0894,-8.77369 2.0493,-5.45361 3.6196,-11.07696 4.8181,-16.77452 0.9632,-5.4331 1.5037,-10.93351 1.9243,-16.43212 0.2656,-6.01068 1.4047,-11.87764 2.9665,-17.67096 1.8271,-5.60892 3.6181,-11.1875 4.2518,-17.06882 0.1542,-3.09552 1.1098,-6.05762 1.3167,-9.13294 0.4837,2.08142 -0.2985,-0.70313 4.8802,1.14382 0.028,0.01 -0.242,1.77619 -0.2443,1.77554 -1.6404,-0.46355 -3.235,-1.07591 -4.8525,-1.61386 -0.2756,-3.44578 5.7231,-2.19168 4.845,1.79749 -0.023,0.0604 -0.046,0.12076 -0.07,0.18115 -1.6055,-0.54213 -3.3152,-0.84071 -4.8167,-1.62639 -0.2454,-0.12845 0.092,-0.54647 0.1442,-0.81857 0.045,-0.23274 -0.053,-0.75789 0.1743,-0.68925 1.6249,0.49171 3.2092,1.10884 4.8138,1.66326 0.2451,3.40081 -5.7554,2.0187 -4.8292,-1.82016 0.021,-0.0404 0.042,-0.0808 0.063,-0.12122 1.6011,0.58291 3.321,0.90843 4.8032,1.74874 0.2605,0.14768 -0.1012,0.59035 -0.1587,0.88421 -0.048,0.2428 0.047,0.79615 -0.1882,0.71802 -1.6255,-0.54097 -3.2068,-1.20697 -4.8102,-1.81046 -0.3309,-3.51295 5.7602,-2.34677 4.8827,1.59632 -0.041,0.34918 -4.9791,-0.23176 -4.938,-0.58093 l 0,0 c 0.2368,-3.9706 6.4467,-3.77833 5.1648,-0.4143 -1.7179,0.21282 -3.429,0.49106 -5.1538,0.63847 -0.2453,0.021 0,-0.49309 0.016,-0.73839 0.025,-0.29786 -0.1973,-0.81106 0.09,-0.89227 1.6562,-0.46746 3.4201,-0.38746 5.1301,-0.58119 0.01,0.0442 0.019,0.0884 0.028,0.13255 -0.1613,3.88664 -6.3439,3.92036 -5.1757,0.64437 1.706,-0.16931 3.4067,-0.4057 5.118,-0.50793 0.2379,-0.0142 7e-4,0.47733 -0.02,0.71479 -0.024,0.276 0.1837,0.75821 -0.085,0.8268 -1.6594,0.42401 -3.409,0.33433 -5.1135,0.5015 -0.01,-0.0701 -0.012,-0.14018 -0.018,-0.21027 0.2139,-4.05165 6.4258,-4.18119 5.2243,-0.67263 -1.7275,0.29994 -3.4377,0.72717 -5.1825,0.8998 -1.2741,0.12607 2.8747,-10.05384 5.2666,-2.97275 0.4243,3.30105 0.6048,6.62937 0.3242,9.95442 -0.703,6.1671 -2.2468,12.12008 -4.2708,17.98853 -1.5691,5.42829 -2.9198,10.93834 -3.3815,16.58681 -0.557,5.69517 -1.045,11.40573 -2.0168,17.04944 -1.2707,6.07601 -2.9242,12.08781 -5.319,17.82612 -1.6696,3.45009 -3.679,6.65318 -5.9727,9.72537 -3.4236,4.17262 -6.7872,7.09359 -12.5746,6.68449 -4.107,-0.5589 -7.9384,-2.03457 -11.9323,-3.09684 -3.1334,-0.83562 -5.9216,-1.47076 -7.7853,-4.45762 -4.6937,-7.74061 -7.8959,-16.27829 -10.8156,-24.81744 -0.096,-0.29754 4.112,-1.65261 4.2078,-1.35507 z"
       inkscape:connector-curvature="0" />
  </g>
</svg>
