<?xml version="1.0" encoding="UTF-8" standalone="no"?>
<!-- Created with Inkscape (http://www.inkscape.org/) -->

<svg
   xmlns:dc="http://purl.org/dc/elements/1.1/"
   xmlns:cc="http://creativecommons.org/ns#"
   xmlns:rdf="http://www.w3.org/1999/02/22-rdf-syntax-ns#"
   xmlns:svg="http://www.w3.org/2000/svg"
   xmlns="http://www.w3.org/2000/svg"
   xmlns:sodipodi="http://sodipodi.sourceforge.net/DTD/sodipodi-0.dtd"
   xmlns:inkscape="http://www.inkscape.org/namespaces/inkscape"
   width="16in"
   height="6.5in"
   viewBox="0 0 1440 585"
   id="svg2"
   version="1.1"
   inkscape:version="0.91 r13725"
   sodipodi:docname="Albertsvg.svg">
  <defs
     id="defs4" />
  <sodipodi:namedview
     id="base"
     pagecolor="#ffffff"
     bordercolor="#666666"
     borderopacity="1.0"
     inkscape:pageopacity="0.0"
     inkscape:pageshadow="2"
     inkscape:zoom="0.35"
     inkscape:cx="761.24764"
     inkscape:cy="257.85714"
     inkscape:document-units="px"
     inkscape:current-layer="layer1"
     showgrid="false"
     units="in"
     width="15in"
     inkscape:window-width="1440"
     inkscape:window-height="897"
     inkscape:window-x="-8"
     inkscape:window-y="-8"
     inkscape:window-maximized="1"
     showguides="false" />
  <metadata
     id="metadata7">
    <rdf:RDF>
      <cc:Work
         rdf:about="">
        <dc:format>image/svg+xml</dc:format>
        <dc:type
           rdf:resource="http://purl.org/dc/dcmitype/StillImage" />
        <dc:title />
      </cc:Work>
    </rdf:RDF>
  </metadata>
  <g
     inkscape:label="Layer 1"
     inkscape:groupmode="layer"
     id="layer1"
     transform="translate(0,-467.3622)">
    <g
       transform="matrix(2.4608923,0,0,2.1888795,-21.455531,453.04217)"
       style="font-style:normal;font-weight:normal;font-size:40px;line-height:125%;font-family:sans-serif;letter-spacing:0px;word-spacing:0px;fill:#000000;fill-opacity:1;stroke:none;stroke-width:1px;stroke-linecap:butt;stroke-linejoin:miter;stroke-opacity:1"
       id="flowRoot4188">
      <path
         d="m 52.550781,37.279962 -10.585937,29.082031 -5.15625,0 -10.585938,-29.082031 4.140625,0 9.121094,25.585937 9.121094,-25.585937 3.945312,0 z"
         style=""
         id="path4179" />
      <path
         d="m 78.722656,66.361993 -4.121094,0 -2.851562,-8.105469 -12.578125,0 -2.851563,8.105469 -3.925781,0 10.585938,-29.082031 5.15625,0 10.585937,29.082031 z M 70.558594,54.936212 65.460937,40.658868 60.34375,54.936212 l 10.214844,0 z"
         style=""
         id="path4181" />
      <path
         d="m 107.19922,66.361993 -5.01953,0 -9.726565,-11.5625 -5.449219,0 0,11.5625 -3.867187,0 0,-29.082031 8.144531,0 q 2.636719,0 4.394531,0.351562 1.757813,0.332031 3.164063,1.210938 1.582036,0.996093 2.460936,2.519531 0.89844,1.503906 0.89844,3.828125 0,3.144531 -1.58203,5.273437 -1.582034,2.109375 -4.355471,3.183594 L 107.19922,66.361993 Z M 98.15625,45.463555 q 0,-1.25 -0.449219,-2.207031 -0.429687,-0.976562 -1.445312,-1.640625 -0.839844,-0.566406 -1.992188,-0.78125 -1.152344,-0.234375 -2.714844,-0.234375 l -4.550781,0 0,10.976563 3.90625,0 q 1.835938,0 3.203125,-0.3125 1.367188,-0.332032 2.324219,-1.210938 0.878906,-0.820312 1.289062,-1.875 0.429688,-1.074219 0.429688,-2.714844 z"
         style=""
         id="path4183" />
    </g>
    <g
       transform="matrix(1.4568148,0,0,1.805622,-24.609593,372.9828)"
       style="font-style:normal;font-weight:normal;font-size:40px;line-height:125%;font-family:sans-serif;letter-spacing:0px;word-spacing:0px;fill:#000000;fill-opacity:1;stroke:none;stroke-width:1px;stroke-linecap:butt;stroke-linejoin:miter;stroke-opacity:1"
       id="flowRoot4204">
      <path
         d="m 70.669922,157.24805 q 0.703125,26.71875 -22.851563,41.48437 l -5.976562,-6.67969 q 20.742187,-11.25 20.742187,-31.64062 l 0,-15.11719 7.382813,0 q 3.164062,0.35156 0.703125,2.46094 l 0,9.14062 q 12.65625,-9.49218 19.335937,-18.63281 l -57.304687,2.10938 -0.703125,-8.08594 63.984375,-1.75781 2.460937,-0.70313 5.273441,6.32813 q 1.05468,1.40625 -1.75782,1.05468 -10.546871,13.71094 -25.312496,25.66407 l -5.976562,-5.625 z"
         style="font-size:90px"
         id="path4168"
         inkscape:connector-curvature="0" />
      <path
         d="m 165.5918,182.91211 q 15.46875,-5.97656 28.47656,-23.90625 l 4.92187,6.67969 q -13.35937,18.28125 -33.75,26.36718 l -2.8125,1.40625 -5.625,-4.21875 0.70313,-1.75781 0,-56.60156 7.38281,0 q 3.16406,0.70312 0.70313,2.8125 l 0,49.21875 z m -47.10938,9.49219 q 17.57813,-16.875 17.57813,-41.83594 l 0,-15.82031 7.38281,0 q 3.16406,0.70312 0.70312,2.8125 l 0,12.65625 q 0,29.53125 -18.63281,46.75781 l -7.03125,-4.57031 z"
         style="font-size:90px"
         id="path4170"
         inkscape:connector-curvature="0" />
      <path
         d="m 263.32617,138.26367 q 17.57813,22.14844 24.96094,46.75781 l -9.49219,3.16407 q -8.78906,-27.77344 -22.85156,-44.29688 l 7.38281,-5.625 z m -26.71875,8.08594 q 2.8125,1.75781 -0.70312,3.16406 -6.32813,22.14844 -20.39063,40.42969 l -8.08594,-5.27344 q 15.46875,-18.63281 20.74219,-42.1875 l 8.4375,3.86719 z m 42.1875,-27.42188 q 4.57031,3.86719 11.25,10.89844 l -4.57031,4.21875 q -6.32813,-7.03125 -11.25,-11.25 l 4.57031,-3.86719 z m -8.4375,5.27344 q 5.27344,4.92188 11.25,11.95313 l -5.27344,3.86718 q -5.27343,-7.03125 -10.89843,-11.95312 l 4.92187,-3.86719 z"
         style="font-size:90px"
         id="path4172"
         inkscape:connector-curvature="0" />
      <path
         d="m 298.48242,164.2793 0,-7.73438 78.39844,0 0,7.73438 -78.39844,0 z"
         style="font-size:90px"
         id="path4174"
         inkscape:connector-curvature="0" />
      <path
         d="m 425.04492,150.91992 q 17.22656,4.92188 34.80469,13.35938 l -4.21875,8.08593 q -18.63281,-9.49218 -30.58594,-12.65625 l 0,36.5625 -8.08594,0 0,-70.3125 7.03125,0 q 4.21875,0.35157 1.05469,2.8125 l 0,22.14844 z"
         style="font-size:90px"
         id="path4176"
         inkscape:connector-curvature="0" />
    </g>
    <g
       transform="matrix(2.0327126,0,0,2.2993835,-49.482645,665.78833)"
       inkscape:transform-center-x="98.731759"
       inkscape:transform-center-y="-512.43402"
       style="font-style:normal;font-weight:normal;font-size:40px;line-height:125%;font-family:sans-serif;letter-spacing:0px;word-spacing:0px;fill:#000000;fill-opacity:1;stroke:none;stroke-width:1px;stroke-linecap:butt;stroke-linejoin:miter;stroke-opacity:1"
       id="flowRoot4220">
      <path
         d="m 53.664062,51.088555 -23.164062,0 0,-3.125 23.164062,0 0,3.125 z m 0,8.203125 -23.164062,0 0,-3.125 23.164062,0 0,3.125 z"
         id="path4157"
         inkscape:connector-curvature="0" />
      <path
         d="m 83.097656,40.717462 -10.390625,0 0,25.644531 -3.867187,0 0,-25.644531 -10.390625,0 0,-3.4375 24.648437,0 0,3.4375 z"
         id="path4159"
         inkscape:connector-curvature="0" />
      <path
         d="m 111.10547,66.361993 -5.01953,0 -9.726565,-11.5625 -5.449219,0 0,11.5625 -3.867187,0 0,-29.082031 8.144531,0 q 2.636719,0 4.394531,0.351562 1.757809,0.332031 3.164059,1.210938 1.58204,0.996093 2.46094,2.519531 0.89844,1.503906 0.89844,3.828125 0,3.144531 -1.58203,5.273437 -1.58203,2.109375 -4.35547,3.183594 l 10.9375,12.714844 z M 102.0625,45.463555 q 0,-1.25 -0.44922,-2.207031 -0.42969,-0.976562 -1.44531,-1.640625 -0.839845,-0.566406 -1.992189,-0.78125 -1.152344,-0.234375 -2.714844,-0.234375 l -4.550781,0 0,10.976563 3.90625,0 q 1.835938,0 3.203125,-0.3125 1.367188,-0.332032 2.324219,-1.210938 0.87891,-0.820312 1.28906,-1.875 0.42969,-1.074219 0.42969,-2.714844 z"
         id="path4161"
         inkscape:connector-curvature="0" />
      <path
         d="m 136.75,54.682305 q 0,3.164063 -0.70313,5.527344 -0.68359,2.34375 -2.26562,3.90625 -1.50391,1.484375 -3.51563,2.167969 -2.01171,0.683594 -4.68749,0.683594 -2.73438,0 -4.76563,-0.722657 -2.03125,-0.722656 -3.41797,-2.128906 -1.58203,-1.601562 -2.28515,-3.867187 -0.6836,-2.265625 -0.6836,-5.566407 l 0,-17.402343 3.86719,0 0,17.597656 q 0,2.363281 0.3125,3.730469 0.33203,1.367187 1.09375,2.480468 0.85937,1.269532 2.32422,1.914063 1.48437,0.644531 3.55469,0.644531 2.08984,0 3.55468,-0.625 1.46485,-0.644531 2.34375,-1.933594 0.76172,-1.113281 1.07422,-2.539062 0.33203,-1.445313 0.33203,-3.574219 l 0,-17.695312 3.86719,0 0,17.402343 z"
         id="path4163"
         inkscape:connector-curvature="0" />
      <path
         d="m 163.3125,66.361993 -19.16016,0 0,-29.082031 19.16016,0 0,3.4375 -15.29297,0 0,7.96875 15.29297,0 0,3.4375 -15.29297,0 0,10.800781 15.29297,0 0,3.4375 z"
         id="path4165"
         inkscape:connector-curvature="0" />
    </g>
    <g
       transform="matrix(0.84432793,-0.53582679,0.53582679,0.84432793,15.343253,863.49559)"
       style="font-style:normal;font-weight:normal;font-size:40px;line-height:125%;font-family:sans-serif;letter-spacing:0px;word-spacing:0px;fill:#000000;fill-opacity:1;stroke:none;stroke-width:1px;stroke-linecap:butt;stroke-linejoin:miter;stroke-opacity:1"
       id="flowRoot4228">
      <path
         d="m 712.03906,331.56512 -7.55859,29.08203 -4.35547,0 -6.11328,-24.14063 -5.97656,24.14063 -4.25782,0 -7.69531,-29.08203 3.96484,0 6.11329,24.17969 6.01562,-24.17969 3.92578,0 6.07422,24.41406 6.07422,-24.41406 3.78906,0 z"
         id="path4186"
         inkscape:connector-curvature="0" />
      <path
         d="m 733.73828,350.11981 -16.07422,0 q 0,2.01171 0.60547,3.51562 0.60547,1.48438 1.66016,2.44141 1.01562,0.9375 2.40234,1.40625 1.40625,0.46875 3.08594,0.46875 2.22656,0 4.47265,-0.87891 2.26563,-0.89844 3.22266,-1.75781 l 0.19531,0 0,4.0039 q -1.85547,0.78125 -3.78906,1.3086 -1.93359,0.52734 -4.0625,0.52734 -5.42969,0 -8.47656,-2.92969 -3.04688,-2.94921 -3.04688,-8.35937 0,-5.35156 2.91016,-8.49609 2.92969,-3.14454 7.69531,-3.14454 4.41406,0 6.79688,2.57813 2.40234,2.57812 2.40234,7.32422 l 0,1.99219 z m -3.57422,-2.8125 q -0.0195,-2.89063 -1.46484,-4.47266 -1.42578,-1.58203 -4.35547,-1.58203 -2.94922,0 -4.70703,1.73828 -1.73828,1.73828 -1.97266,4.31641 l 12.5,0 z"
         id="path4188"
         inkscape:connector-curvature="0" />
      <path
         d="m 743.01562,360.64715 -3.67187,0 0,-30.39063 3.67187,0 0,30.39063 z"
         id="path4190"
         inkscape:connector-curvature="0" />
      <path
         d="m 766.29687,359.27996 q -1.83593,0.87891 -3.49609,1.36719 -1.64062,0.48828 -3.49609,0.48828 -2.36328,0 -4.33594,-0.68359 -1.97266,-0.70313 -3.37891,-2.10938 -1.42578,-1.40625 -2.20703,-3.55469 -0.78125,-2.14843 -0.78125,-5.01953 0,-5.35156 2.92969,-8.39843 2.94922,-3.04688 7.77344,-3.04688 1.875,0 3.67187,0.52734 1.81641,0.52735 3.32031,1.28907 l 0,4.08203 -0.19531,0 q -1.67969,-1.3086 -3.47656,-2.01172 -1.77734,-0.70313 -3.47656,-0.70313 -3.125,0 -4.94141,2.10938 -1.79687,2.08984 -1.79687,6.15234 0,3.94532 1.75781,6.07422 1.77734,2.10938 4.98047,2.10938 1.11328,0 2.26562,-0.29297 1.15235,-0.29297 2.07031,-0.76172 0.80079,-0.41016 1.50391,-0.85938 0.70313,-0.46875 1.11328,-0.80078 l 0.19531,0 0,4.04297 z"
         id="path4192"
         inkscape:connector-curvature="0" />
      <path
         d="m 789.61719,349.74871 q 0,5.33203 -2.73438,8.41797 -2.73437,3.08594 -7.32422,3.08594 -4.6289,0 -7.36328,-3.08594 -2.71484,-3.08594 -2.71484,-8.41797 0,-5.33203 2.71484,-8.41797 2.73438,-3.10547 7.36328,-3.10547 4.58985,0 7.32422,3.10547 2.73438,3.08594 2.73438,8.41797 z m -3.78907,0 q 0,-4.23828 -1.66015,-6.28906 -1.66016,-2.07031 -4.60938,-2.07031 -2.98828,0 -4.64843,2.07031 -1.64063,2.05078 -1.64063,6.28906 0,4.10156 1.66016,6.23047 1.66015,2.10938 4.6289,2.10938 2.92969,0 4.58985,-2.08985 1.67968,-2.10937 1.67968,-6.25 z"
         id="path4194"
         inkscape:connector-curvature="0" />
      <path
         d="m 827.15625,360.64715 -3.67188,0 0,-12.42188 q 0,-1.40625 -0.13671,-2.71484 -0.11719,-1.30859 -0.52735,-2.08984 -0.44922,-0.83985 -1.28906,-1.26953 -0.83984,-0.42969 -2.42188,-0.42969 -1.54296,0 -3.08593,0.78125 -1.54297,0.76172 -3.08594,1.95312 0.0586,0.44922 0.0977,1.05469 0.0391,0.58594 0.0391,1.17188 l 0,13.96484 -3.67188,0 0,-12.42188 q 0,-1.44531 -0.13672,-2.73437 -0.11718,-1.30859 -0.52734,-2.08984 -0.44922,-0.83985 -1.28906,-1.25 -0.83985,-0.42969 -2.42188,-0.42969 -1.5039,0 -3.02734,0.74219 -1.50391,0.74218 -3.00781,1.89453 l 0,16.28906 -3.67188,0 0,-21.81641 3.67188,0 0,2.42188 q 1.71875,-1.42578 3.41797,-2.22656 1.71875,-0.80079 3.65234,-0.80079 2.22656,0 3.76953,0.9375 1.5625,0.9375 2.32422,2.59766 2.22656,-1.875 4.0625,-2.69531 1.83594,-0.83985 3.92578,-0.83985 3.59375,0 5.29297,2.1875 1.71875,2.16797 1.71875,6.07422 l 0,14.16016 z"
         id="path4196"
         inkscape:connector-curvature="0" />
      <path
         d="m 852.48828,350.11981 -16.07422,0 q 0,2.01171 0.60547,3.51562 0.60547,1.48438 1.66016,2.44141 1.01562,0.9375 2.40234,1.40625 1.40625,0.46875 3.08594,0.46875 2.22656,0 4.47265,-0.87891 2.26563,-0.89844 3.22266,-1.75781 l 0.19531,0 0,4.0039 q -1.85547,0.78125 -3.78906,1.3086 -1.93359,0.52734 -4.0625,0.52734 -5.42969,0 -8.47656,-2.92969 -3.04688,-2.94921 -3.04688,-8.35937 0,-5.35156 2.91016,-8.49609 2.92969,-3.14454 7.69531,-3.14454 4.41406,0 6.79688,2.57813 2.40234,2.57812 2.40234,7.32422 l 0,1.99219 z m -3.57422,-2.8125 q -0.0195,-2.89063 -1.46484,-4.47266 -1.42578,-1.58203 -4.35547,-1.58203 -2.94922,0 -4.70703,1.73828 -1.73828,1.73828 -1.97266,4.31641 l 12.5,0 z"
         id="path4198"
         inkscape:connector-curvature="0" />
      <path
         d="m 864.5,331.56512 -0.50781,21.07422 -3.32032,0 -0.54687,-21.07422 4.375,0 z m -0.19531,29.08203 -3.98438,0 0,-4.12109 3.98438,0 0,4.12109 z"
         id="path4200"
         inkscape:connector-curvature="0" />
      <path
         d="m 908.93359,335.00262 -10.39062,0 0,25.64453 -3.86719,0 0,-25.64453 -10.39062,0 0,-3.4375 24.64843,0 0,3.4375 z"
         id="path4202"
         inkscape:connector-curvature="0" />
      <path
         d="m 924.85156,360.64715 -3.65234,0 0,-2.32422 q -0.48828,0.33203 -1.32813,0.9375 -0.82031,0.58594 -1.60156,0.9375 -0.91797,0.44922 -2.10937,0.74219 -1.19141,0.3125 -2.79297,0.3125 -2.94922,0 -5,-1.95313 -2.05078,-1.95312 -2.05078,-4.98047 0,-2.48046 1.05468,-4.0039 1.07422,-1.54297 3.04688,-2.42188 1.99219,-0.8789 4.78515,-1.1914 2.79297,-0.3125 5.9961,-0.46875 l 0,-0.56641 q 0,-1.25 -0.44922,-2.07031 -0.42969,-0.82031 -1.25,-1.28906 -0.78125,-0.44922 -1.875,-0.60547 -1.09375,-0.15625 -2.28516,-0.15625 -1.44531,0 -3.22265,0.39062 -1.77735,0.3711 -3.67188,1.09375 l -0.19531,0 0,-3.73047 q 1.07422,-0.29297 3.10547,-0.64453 2.03125,-0.35156 4.0039,-0.35156 2.30469,0 4.00391,0.39062 1.71875,0.3711 2.96875,1.28907 1.23047,0.89843 1.875,2.32422 0.64453,1.42578 0.64453,3.53515 l 0,14.80469 z m -3.65234,-5.37109 0,-6.07422 q -1.67969,0.0976 -3.96485,0.29297 -2.26562,0.19531 -3.59375,0.5664 -1.58203,0.44922 -2.55859,1.40625 -0.97656,0.9375 -0.97656,2.59766 0,1.875 1.13281,2.83203 1.13281,0.9375 3.45703,0.9375 1.9336,0 3.53516,-0.74219 1.60156,-0.76172 2.96875,-1.8164 z"
         id="path4204"
         inkscape:connector-curvature="0" />
      <path
         d="m 951.76562,360.64715 -4.84375,0 -8.75,-9.55078 -2.38281,2.26562 0,7.28516 -3.67187,0 0,-30.39063 3.67187,0 0,19.49219 10.60547,-10.91797 4.62891,0 -10.13672,10.07813 10.8789,11.73828 z"
         id="path4206"
         inkscape:connector-curvature="0" />
      <path
         d="m 973.50391,350.11981 -16.07422,0 q 0,2.01171 0.60547,3.51562 0.60546,1.48438 1.66015,2.44141 1.01563,0.9375 2.40235,1.40625 1.40625,0.46875 3.08593,0.46875 2.22657,0 4.47266,-0.87891 2.26562,-0.89844 3.22266,-1.75781 l 0.19531,0 0,4.0039 q -1.85547,0.78125 -3.78906,1.3086 -1.9336,0.52734 -4.0625,0.52734 -5.42969,0 -8.47657,-2.92969 -3.04687,-2.94921 -3.04687,-8.35937 0,-5.35156 2.91015,-8.49609 2.92969,-3.14454 7.69532,-3.14454 4.41406,0 6.79687,2.57813 2.40235,2.57812 2.40235,7.32422 l 0,1.99219 z m -3.57422,-2.8125 q -0.0195,-2.89063 -1.46485,-4.47266 -1.42578,-1.58203 -4.35547,-1.58203 -2.94921,0 -4.70703,1.73828 -1.73828,1.73828 -1.97265,4.31641 l 12.5,0 z"
         id="path4208"
         inkscape:connector-curvature="0" />
      <path
         d="m 1010.0859,360.64715 -3.6523,0 0,-2.32422 q -0.4883,0.33203 -1.3281,0.9375 -0.8203,0.58594 -1.6016,0.9375 -0.918,0.44922 -2.1094,0.74219 -1.1914,0.3125 -2.79294,0.3125 -2.94922,0 -5,-1.95313 -2.05078,-1.95312 -2.05078,-4.98047 0,-2.48046 1.05469,-4.0039 1.07422,-1.54297 3.04687,-2.42188 1.99219,-0.8789 4.78516,-1.1914 2.793,-0.3125 5.9961,-0.46875 l 0,-0.56641 q 0,-1.25 -0.4492,-2.07031 -0.4297,-0.82031 -1.25,-1.28906 -0.7813,-0.44922 -1.875,-0.60547 -1.0938,-0.15625 -2.2852,-0.15625 -1.44529,0 -3.22264,0.39062 -1.77734,0.3711 -3.67187,1.09375 l -0.19532,0 0,-3.73047 q 1.07422,-0.29297 3.10547,-0.64453 2.03125,-0.35156 4.00386,-0.35156 2.3047,0 4.004,0.39062 1.7187,0.3711 2.9687,1.28907 1.2305,0.89843 1.875,2.32422 0.6445,1.42578 0.6445,3.53515 l 0,14.80469 z m -3.6523,-5.37109 0,-6.07422 q -1.6797,0.0976 -3.9649,0.29297 -2.2656,0.19531 -3.5937,0.5664 -1.58203,0.44922 -2.55859,1.40625 -0.97657,0.9375 -0.97657,2.59766 0,1.875 1.13282,2.83203 1.13281,0.9375 3.45703,0.9375 1.93361,0 3.53511,-0.74219 1.6016,-0.76172 2.9688,-1.8164 z"
         id="path4210"
         inkscape:connector-curvature="0" />
      <path
         d="m 1046.8438,354.35809 q 0,2.98828 -2.4805,4.90234 -2.461,1.91406 -6.7383,1.91406 -2.4219,0 -4.4531,-0.5664 -2.0117,-0.58594 -3.3789,-1.26953 l 0,-4.1211 0.1953,0 q 1.7383,1.3086 3.8672,2.08985 2.1289,0.76171 4.082,0.76171 2.4219,0 3.7891,-0.78125 1.3672,-0.78125 1.3672,-2.46093 0,-1.28907 -0.7422,-1.95313 -0.7422,-0.66406 -2.8516,-1.13281 -0.7812,-0.17578 -2.0508,-0.41016 -1.25,-0.23437 -2.2851,-0.50781 -2.8711,-0.76172 -4.0821,-2.22656 -1.1914,-1.48438 -1.1914,-3.63281 0,-1.34766 0.5469,-2.53907 0.5664,-1.1914 1.6992,-2.1289 1.0938,-0.91797 2.7735,-1.44532 1.6992,-0.54687 3.789,-0.54687 1.9531,0 3.9453,0.48828 2.0118,0.46875 3.3399,1.15234 l 0,3.92579 -0.1953,0 q -1.4063,-1.03516 -3.418,-1.73829 -2.0117,-0.72265 -3.9453,-0.72265 -2.0117,0 -3.3985,0.78125 -1.3867,0.76172 -1.3867,2.28515 0,1.34766 0.8399,2.03125 0.8203,0.6836 2.6562,1.11329 1.0156,0.23437 2.2656,0.46875 1.2696,0.23437 2.1094,0.42968 2.5586,0.58594 3.9453,2.01172 1.3868,1.44531 1.3868,3.82813 z"
         id="path4212"
         inkscape:connector-curvature="0" />
      <path
         d="m 1070.3789,350.11981 -16.0742,0 q 0,2.01171 0.6055,3.51562 0.6054,1.48438 1.6601,2.44141 1.0156,0.9375 2.4024,1.40625 1.4062,0.46875 3.0859,0.46875 2.2266,0 4.4727,-0.87891 2.2656,-0.89844 3.2226,-1.75781 l 0.1953,0 0,4.0039 q -1.8554,0.78125 -3.789,1.3086 -1.9336,0.52734 -4.0625,0.52734 -5.4297,0 -8.4766,-2.92969 -3.0469,-2.94921 -3.0469,-8.35937 0,-5.35156 2.9102,-8.49609 2.9297,-3.14454 7.6953,-3.14454 4.4141,0 6.7969,2.57813 2.4023,2.57812 2.4023,7.32422 l 0,1.99219 z m -3.5742,-2.8125 q -0.019,-2.89063 -1.4649,-4.47266 -1.4257,-1.58203 -4.3554,-1.58203 -2.9492,0 -4.7071,1.73828 -1.7382,1.73828 -1.9726,4.31641 l 12.5,0 z"
         id="path4214"
         inkscape:connector-curvature="0" />
      <path
         d="m 1092.8984,360.64715 -3.6523,0 0,-2.32422 q -0.4883,0.33203 -1.3281,0.9375 -0.8203,0.58594 -1.6016,0.9375 -0.918,0.44922 -2.1094,0.74219 -1.1914,0.3125 -2.7929,0.3125 -2.9493,0 -5,-1.95313 -2.0508,-1.95312 -2.0508,-4.98047 0,-2.48046 1.0547,-4.0039 1.0742,-1.54297 3.0468,-2.42188 1.9922,-0.8789 4.7852,-1.1914 2.793,-0.3125 5.9961,-0.46875 l 0,-0.56641 q 0,-1.25 -0.4492,-2.07031 -0.4297,-0.82031 -1.25,-1.28906 -0.7813,-0.44922 -1.875,-0.60547 -1.0938,-0.15625 -2.2852,-0.15625 -1.4453,0 -3.2226,0.39062 -1.7774,0.3711 -3.6719,1.09375 l -0.1953,0 0,-3.73047 q 1.0742,-0.29297 3.1054,-0.64453 2.0313,-0.35156 4.004,-0.35156 2.3046,0 4.0039,0.39062 1.7187,0.3711 2.9687,1.28907 1.2305,0.89843 1.875,2.32422 0.6445,1.42578 0.6445,3.53515 l 0,14.80469 z m -3.6523,-5.37109 0,-6.07422 q -1.6797,0.0976 -3.9648,0.29297 -2.2657,0.19531 -3.5938,0.5664 -1.582,0.44922 -2.5586,1.40625 -0.9766,0.9375 -0.9766,2.59766 0,1.875 1.1329,2.83203 1.1328,0.9375 3.457,0.9375 1.9336,0 3.5351,-0.74219 1.6016,-0.76172 2.9688,-1.8164 z"
         id="path4216"
         inkscape:connector-curvature="0" />
      <path
         d="m 1111.3359,360.45184 q -1.0351,0.27343 -2.2656,0.44922 -1.2109,0.17578 -2.168,0.17578 -3.3398,0 -5.0781,-1.79688 -1.7383,-1.79687 -1.7383,-5.76172 l 0,-11.60156 -2.4804,0 0,-3.08594 2.4804,0 0,-6.26953 3.6719,0 0,6.26953 7.5781,0 0,3.08594 -7.5781,0 0,9.94141 q 0,1.71875 0.078,2.69531 0.078,0.95703 0.5469,1.79687 0.4297,0.78125 1.1719,1.15235 0.7617,0.35156 2.3047,0.35156 0.8984,0 1.875,-0.25391 0.9765,-0.27343 1.4062,-0.44921 l 0.1953,0 0,3.30078 z"
         id="path4218"
         inkscape:connector-curvature="0" />
      <path
         d="m 1123.4063,355.08074 -5.5079,12.79297 -2.8515,0 3.3984,-12.79297 4.961,0 z"
         id="path4220"
         inkscape:connector-curvature="0" />
      <path
         d="m 1162.625,360.64715 -3.6719,0 0,-12.42188 q 0,-1.5039 -0.1758,-2.8125 -0.1757,-1.32812 -0.6445,-2.07031 -0.4883,-0.82031 -1.4062,-1.21094 -0.918,-0.41015 -2.3828,-0.41015 -1.504,0 -3.1446,0.74219 -1.6406,0.74218 -3.1445,1.89453 l 0,16.28906 -3.6719,0 0,-30.39063 3.6719,0 0,10.9961 q 1.7187,-1.42578 3.5547,-2.22656 1.8359,-0.80079 3.7695,-0.80079 3.5352,0 5.3906,2.12891 1.8555,2.12891 1.8555,6.13281 l 0,14.16016 z"
         id="path4222"
         inkscape:connector-curvature="0" />
      <path
         d="m 1186.6484,360.64715 -3.6523,0 0,-2.32422 q -0.4883,0.33203 -1.3281,0.9375 -0.8203,0.58594 -1.6016,0.9375 -0.918,0.44922 -2.1094,0.74219 -1.1914,0.3125 -2.7929,0.3125 -2.9493,0 -5,-1.95313 -2.0508,-1.95312 -2.0508,-4.98047 0,-2.48046 1.0547,-4.0039 1.0742,-1.54297 3.0468,-2.42188 1.9922,-0.8789 4.7852,-1.1914 2.793,-0.3125 5.9961,-0.46875 l 0,-0.56641 q 0,-1.25 -0.4492,-2.07031 -0.4297,-0.82031 -1.25,-1.28906 -0.7813,-0.44922 -1.875,-0.60547 -1.0938,-0.15625 -2.2852,-0.15625 -1.4453,0 -3.2226,0.39062 -1.7774,0.3711 -3.6719,1.09375 l -0.1953,0 0,-3.73047 q 1.0742,-0.29297 3.1054,-0.64453 2.0313,-0.35156 4.004,-0.35156 2.3046,0 4.0039,0.39062 1.7187,0.3711 2.9687,1.28907 1.2305,0.89843 1.875,2.32422 0.6445,1.42578 0.6445,3.53515 l 0,14.80469 z m -3.6523,-5.37109 0,-6.07422 q -1.6797,0.0976 -3.9648,0.29297 -2.2657,0.19531 -3.5938,0.5664 -1.582,0.44922 -2.5586,1.40625 -0.9766,0.9375 -0.9766,2.59766 0,1.875 1.1329,2.83203 1.1328,0.9375 3.457,0.9375 1.9336,0 3.5351,-0.74219 1.6016,-0.76172 2.9688,-1.8164 z"
         id="path4224"
         inkscape:connector-curvature="0" />
      <path
         d="m 1212.3125,338.83074 -8.8281,21.81641 -3.6914,0 -8.7696,-21.81641 3.9844,0 6.7578,17.36328 6.6992,-17.36328 3.8477,0 z"
         id="path4226"
         inkscape:connector-curvature="0" />
      <path
         d="m 1235.0664,350.11981 -16.0742,0 q 0,2.01171 0.6055,3.51562 0.6054,1.48438 1.6601,2.44141 1.0156,0.9375 2.4024,1.40625 1.4062,0.46875 3.0859,0.46875 2.2266,0 4.4727,-0.87891 2.2656,-0.89844 3.2226,-1.75781 l 0.1953,0 0,4.0039 q -1.8554,0.78125 -3.789,1.3086 -1.9336,0.52734 -4.0625,0.52734 -5.4297,0 -8.4766,-2.92969 -3.0469,-2.94921 -3.0469,-8.35937 0,-5.35156 2.9102,-8.49609 2.9297,-3.14454 7.6953,-3.14454 4.4141,0 6.7969,2.57813 2.4023,2.57812 2.4023,7.32422 l 0,1.99219 z m -3.5742,-2.8125 q -0.019,-2.89063 -1.4649,-4.47266 -1.4257,-1.58203 -4.3554,-1.58203 -2.9492,0 -4.7071,1.73828 -1.7382,1.73828 -1.9726,4.31641 l 12.5,0 z"
         id="path4228"
         inkscape:connector-curvature="0" />
      <path
         d="m 1271.6484,360.64715 -3.6523,0 0,-2.32422 q -0.4883,0.33203 -1.3281,0.9375 -0.8203,0.58594 -1.6016,0.9375 -0.918,0.44922 -2.1094,0.74219 -1.1914,0.3125 -2.7929,0.3125 -2.9493,0 -5,-1.95313 -2.0508,-1.95312 -2.0508,-4.98047 0,-2.48046 1.0547,-4.0039 1.0742,-1.54297 3.0468,-2.42188 1.9922,-0.8789 4.7852,-1.1914 2.793,-0.3125 5.9961,-0.46875 l 0,-0.56641 q 0,-1.25 -0.4492,-2.07031 -0.4297,-0.82031 -1.25,-1.28906 -0.7813,-0.44922 -1.875,-0.60547 -1.0938,-0.15625 -2.2852,-0.15625 -1.4453,0 -3.2226,0.39062 -1.7774,0.3711 -3.6719,1.09375 l -0.1953,0 0,-3.73047 q 1.0742,-0.29297 3.1054,-0.64453 2.0313,-0.35156 4.004,-0.35156 2.3046,0 4.0039,0.39062 1.7187,0.3711 2.9687,1.28907 1.2305,0.89843 1.875,2.32422 0.6445,1.42578 0.6445,3.53515 l 0,14.80469 z m -3.6523,-5.37109 0,-6.07422 q -1.6797,0.0976 -3.9648,0.29297 -2.2657,0.19531 -3.5938,0.5664 -1.582,0.44922 -2.5586,1.40625 -0.9766,0.9375 -0.9766,2.59766 0,1.875 1.1329,2.83203 1.1328,0.9375 3.457,0.9375 1.9336,0 3.5351,-0.74219 1.6016,-0.76172 2.9688,-1.8164 z"
         id="path4230"
         inkscape:connector-curvature="0" />
      <path
         d="m 693.48437,404.35809 q 0,2.98828 -2.48046,4.90234 -2.46094,1.91406 -6.73829,1.91406 -2.42187,0 -4.45312,-0.5664 -2.01172,-0.58594 -3.37891,-1.26953 l 0,-4.1211 0.19532,0 q 1.73828,1.3086 3.86718,2.08985 2.12891,0.76171 4.08203,0.76171 2.42188,0 3.78907,-0.78125 1.36718,-0.78125 1.36718,-2.46093 0,-1.28907 -0.74218,-1.95313 -0.74219,-0.66406 -2.85157,-1.13281 -0.78125,-0.17578 -2.05078,-0.41016 -1.25,-0.23437 -2.28515,-0.50781 -2.8711,-0.76172 -4.08203,-2.22656 -1.19141,-1.48438 -1.19141,-3.63281 0,-1.34766 0.54687,-2.53907 0.56641,-1.1914 1.69922,-2.1289 1.09375,-0.91797 2.77344,-1.44532 1.69922,-0.54687 3.78906,-0.54687 1.95313,0 3.94532,0.48828 2.01171,0.46875 3.33984,1.15234 l 0,3.92579 -0.19531,0 q -1.40625,-1.03516 -3.41797,-1.73829 -2.01172,-0.72265 -3.94531,-0.72265 -2.01172,0 -3.39844,0.78125 -1.38672,0.76172 -1.38672,2.28515 0,1.34766 0.83984,2.03125 0.82032,0.6836 2.65625,1.11329 1.01563,0.23437 2.26563,0.46875 1.26953,0.23437 2.10937,0.42968 2.5586,0.58594 3.94532,2.01172 1.38671,1.44531 1.38671,3.82813 z"
         id="path4232"
         inkscape:connector-curvature="0" />
      <path
         d="m 717,410.64715 -3.67188,0 0,-12.42188 q 0,-1.5039 -0.17578,-2.8125 -0.17578,-1.32812 -0.64453,-2.07031 -0.48828,-0.82031 -1.40625,-1.21094 -0.91797,-0.41015 -2.38281,-0.41015 -1.50391,0 -3.14453,0.74219 -1.64063,0.74218 -3.14453,1.89453 l 0,16.28906 -3.67188,0 0,-21.81641 3.67188,0 0,2.42188 q 1.71875,-1.42578 3.55468,-2.22656 1.83594,-0.80079 3.76954,-0.80079 3.53515,0 5.39062,2.12891 Q 717,392.48309 717,396.48699 l 0,14.16016 z"
         id="path4234"
         inkscape:connector-curvature="0" />
      <path
         d="m 741.02344,410.64715 -3.65235,0 0,-2.32422 q -0.48828,0.33203 -1.32812,0.9375 -0.82031,0.58594 -1.60156,0.9375 -0.91797,0.44922 -2.10938,0.74219 -1.19141,0.3125 -2.79297,0.3125 -2.94922,0 -5,-1.95313 -2.05078,-1.95312 -2.05078,-4.98047 0,-2.48046 1.05469,-4.0039 1.07422,-1.54297 3.04687,-2.42188 1.99219,-0.8789 4.78516,-1.1914 2.79297,-0.3125 5.99609,-0.46875 l 0,-0.56641 q 0,-1.25 -0.44922,-2.07031 -0.42968,-0.82031 -1.25,-1.28906 -0.78125,-0.44922 -1.875,-0.60547 -1.09375,-0.15625 -2.28515,-0.15625 -1.44531,0 -3.22266,0.39062 -1.77734,0.3711 -3.67187,1.09375 l -0.19532,0 0,-3.73047 q 1.07422,-0.29297 3.10547,-0.64453 2.03125,-0.35156 4.00391,-0.35156 2.30469,0 4.00391,0.39062 1.71875,0.3711 2.96875,1.28907 1.23046,0.89843 1.875,2.32422 0.64453,1.42578 0.64453,3.53515 l 0,14.80469 z m -3.65235,-5.37109 0,-6.07422 q -1.67968,0.0976 -3.96484,0.29297 -2.26563,0.19531 -3.59375,0.5664 -1.58203,0.44922 -2.55859,1.40625 -0.97657,0.9375 -0.97657,2.59766 0,1.875 1.13282,2.83203 1.13281,0.9375 3.45703,0.9375 1.93359,0 3.53515,-0.74219 1.60157,-0.76172 2.96875,-1.8164 z"
         id="path4236"
         inkscape:connector-curvature="0" />
      <path
         d="m 764.26562,409.27996 q -1.83593,0.87891 -3.49609,1.36719 -1.64062,0.48828 -3.49609,0.48828 -2.36328,0 -4.33594,-0.68359 -1.97266,-0.70313 -3.37891,-2.10938 -1.42578,-1.40625 -2.20703,-3.55469 -0.78125,-2.14843 -0.78125,-5.01953 0,-5.35156 2.92969,-8.39843 2.94922,-3.04688 7.77344,-3.04688 1.875,0 3.67187,0.52734 1.81641,0.52735 3.32031,1.28907 l 0,4.08203 -0.19531,0 q -1.67969,-1.3086 -3.47656,-2.01172 -1.77734,-0.70313 -3.47656,-0.70313 -3.125,0 -4.94141,2.10938 -1.79687,2.08984 -1.79687,6.15234 0,3.94532 1.75781,6.07422 1.77734,2.10938 4.98047,2.10938 1.11328,0 2.26562,-0.29297 1.15235,-0.29297 2.07031,-0.76172 0.80079,-0.41016 1.50391,-0.85938 0.70313,-0.46875 1.11328,-0.80078 l 0.19531,0 0,4.04297 z"
         id="path4238"
         inkscape:connector-curvature="0" />
      <path
         d="m 788.79687,410.64715 -4.84375,0 -8.75,-9.55078 -2.38281,2.26562 0,7.28516 -3.67187,0 0,-30.39063 3.67187,0 0,19.49219 10.60547,-10.91797 4.62891,0 -10.13672,10.07813 10.8789,11.73828 z"
         id="path4240"
         inkscape:connector-curvature="0" />
      <path
         d="m 800.28125,405.08074 -5.50781,12.79297 -2.85157,0 3.39844,-12.79297 4.96094,0 z"
         id="path4242"
         inkscape:connector-curvature="0" />
      <path
         d="m 834.87109,392.83465 -0.19531,0 q -0.82031,-0.19531 -1.60156,-0.27344 -0.76172,-0.0977 -1.81641,-0.0977 -1.69922,0 -3.28125,0.76171 -1.58203,0.74219 -3.04687,1.9336 l 0,15.48828 -3.67188,0 0,-21.81641 3.67188,0 0,3.22266 q 2.1875,-1.75781 3.84765,-2.48047 1.67969,-0.74219 3.41797,-0.74219 0.95703,0 1.38672,0.0586 0.42969,0.0391 1.28906,0.17578 l 0,3.76953 z"
         id="path4244"
         inkscape:connector-curvature="0" />
      <path
         d="m 856.62891,400.11981 -16.07422,0 q 0,2.01171 0.60547,3.51562 0.60546,1.48438 1.66015,2.44141 1.01563,0.9375 2.40235,1.40625 1.40625,0.46875 3.08593,0.46875 2.22657,0 4.47266,-0.87891 2.26562,-0.89844 3.22266,-1.75781 l 0.19531,0 0,4.0039 q -1.85547,0.78125 -3.78906,1.3086 -1.9336,0.52734 -4.0625,0.52734 -5.42969,0 -8.47657,-2.92969 -3.04687,-2.94921 -3.04687,-8.35937 0,-5.35156 2.91015,-8.49609 2.92969,-3.14454 7.69532,-3.14454 4.41406,0 6.79687,2.57813 2.40235,2.57812 2.40235,7.32422 l 0,1.99219 z m -3.57422,-2.8125 q -0.0195,-2.89063 -1.46485,-4.47266 -1.42578,-1.58203 -4.35547,-1.58203 -2.94921,0 -4.70703,1.73828 -1.73828,1.73828 -1.97265,4.31641 l 12.5,0 z"
         id="path4246"
         inkscape:connector-curvature="0" />
      <path
         d="m 865.90625,410.64715 -3.67188,0 0,-30.39063 3.67188,0 0,30.39063 z"
         id="path4248"
         inkscape:connector-curvature="0" />
      <path
         d="m 890.00781,410.64715 -3.65234,0 0,-2.32422 q -0.48828,0.33203 -1.32813,0.9375 -0.82031,0.58594 -1.60156,0.9375 -0.91797,0.44922 -2.10937,0.74219 -1.19141,0.3125 -2.79297,0.3125 -2.94922,0 -5,-1.95313 -2.05078,-1.95312 -2.05078,-4.98047 0,-2.48046 1.05468,-4.0039 1.07422,-1.54297 3.04688,-2.42188 1.99219,-0.8789 4.78515,-1.1914 2.79297,-0.3125 5.9961,-0.46875 l 0,-0.56641 q 0,-1.25 -0.44922,-2.07031 -0.42969,-0.82031 -1.25,-1.28906 -0.78125,-0.44922 -1.875,-0.60547 -1.09375,-0.15625 -2.28516,-0.15625 -1.44531,0 -3.22265,0.39062 -1.77735,0.3711 -3.67188,1.09375 l -0.19531,0 0,-3.73047 q 1.07422,-0.29297 3.10547,-0.64453 2.03125,-0.35156 4.0039,-0.35156 2.30469,0 4.00391,0.39062 1.71875,0.3711 2.96875,1.28907 1.23047,0.89843 1.875,2.32422 0.64453,1.42578 0.64453,3.53515 l 0,14.80469 z m -3.65234,-5.37109 0,-6.07422 q -1.67969,0.0976 -3.96485,0.29297 -2.26562,0.19531 -3.59375,0.5664 -1.58203,0.44922 -2.55859,1.40625 -0.97656,0.9375 -0.97656,2.59766 0,1.875 1.13281,2.83203 1.13281,0.9375 3.45703,0.9375 1.9336,0 3.53516,-0.74219 1.60156,-0.76172 2.96875,-1.8164 z"
         id="path4250"
         inkscape:connector-curvature="0" />
      <path
         d="m 916.00391,410.64715 -4.62891,0 -6.19141,-8.37891 -6.23047,8.37891 -4.27734,0 8.51563,-10.87891 -8.4375,-10.9375 4.6289,0 6.15235,8.24219 6.17187,-8.24219 4.29688,0 -8.57422,10.74219 8.57422,11.07422 z"
         id="path4252"
         inkscape:connector-curvature="0" />
      <path
         d="m 951.80469,410.64715 -3.65235,0 0,-2.32422 q -0.48828,0.33203 -1.32812,0.9375 -0.82031,0.58594 -1.60156,0.9375 -0.91797,0.44922 -2.10938,0.74219 -1.19141,0.3125 -2.79297,0.3125 -2.94922,0 -5,-1.95313 -2.05078,-1.95312 -2.05078,-4.98047 0,-2.48046 1.05469,-4.0039 1.07422,-1.54297 3.04687,-2.42188 1.99219,-0.8789 4.78516,-1.1914 2.79297,-0.3125 5.99609,-0.46875 l 0,-0.56641 q 0,-1.25 -0.44922,-2.07031 -0.42968,-0.82031 -1.25,-1.28906 -0.78125,-0.44922 -1.875,-0.60547 -1.09375,-0.15625 -2.28515,-0.15625 -1.44531,0 -3.22266,0.39062 -1.77734,0.3711 -3.67187,1.09375 l -0.19532,0 0,-3.73047 q 1.07422,-0.29297 3.10547,-0.64453 2.03125,-0.35156 4.00391,-0.35156 2.30469,0 4.00391,0.39062 1.71875,0.3711 2.96875,1.28907 1.23046,0.89843 1.875,2.32422 0.64453,1.42578 0.64453,3.53515 l 0,14.80469 z m -3.65235,-5.37109 0,-6.07422 q -1.67968,0.0976 -3.96484,0.29297 -2.26563,0.19531 -3.59375,0.5664 -1.58203,0.44922 -2.55859,1.40625 -0.97657,0.9375 -0.97657,2.59766 0,1.875 1.13282,2.83203 1.13281,0.9375 3.45703,0.9375 1.93359,0 3.53515,-0.74219 1.60157,-0.76172 2.96875,-1.8164 z"
         id="path4254"
         inkscape:connector-curvature="0" />
      <path
         d="m 992.17578,399.57293 q 0,2.73438 -0.78125,4.92188 -0.76172,2.1875 -2.07031,3.67187 -1.38672,1.54297 -3.04688,2.32422 -1.66015,0.76172 -3.65234,0.76172 -1.85547,0 -3.24219,-0.44922 -1.38672,-0.42969 -2.73437,-1.17188 l -0.23438,1.01563 -3.4375,0 0,-30.39063 3.67188,0 0,10.85938 q 1.54297,-1.26953 3.28125,-2.07031 1.73828,-0.82032 3.90625,-0.82032 3.86718,0 6.09375,2.96875 2.24609,2.96875 2.24609,8.37891 z m -3.78906,0.0977 q 0,-3.90625 -1.28906,-5.91797 -1.28907,-2.03125 -4.16016,-2.03125 -1.60156,0 -3.24219,0.70312 -1.64062,0.6836 -3.04687,1.77735 l 0,12.5 q 1.5625,0.70312 2.67578,0.97656 1.13281,0.27344 2.55859,0.27344 3.04688,0 4.76563,-1.99219 1.73828,-2.01172 1.73828,-6.28906 z"
         id="path4256"
         inkscape:connector-curvature="0" />
      <path
         d="m 1001.8437,385.1784 -4.14058,0 0,-3.80859 4.14058,0 0,3.80859 z m -0.2343,25.46875 -3.6719,0 0,-21.81641 3.6719,0 0,21.81641 z"
         id="path4258"
         inkscape:connector-curvature="0" />
      <path
         d="m 1020.0859,410.45184 q -1.0351,0.27343 -2.2656,0.44922 -1.2109,0.17578 -2.168,0.17578 -3.3398,0 -5.0781,-1.79688 -1.7383,-1.79687 -1.7383,-5.76172 l 0,-11.60156 -2.4804,0 0,-3.08594 2.4804,0 0,-6.26953 3.6719,0 0,6.26953 7.5781,0 0,3.08594 -7.5781,0 0,9.94141 q 0,1.71875 0.078,2.69531 0.078,0.95703 0.5469,1.79687 0.4297,0.78125 1.1719,1.15235 0.7617,0.35156 2.3047,0.35156 0.8984,0 1.875,-0.25391 0.9765,-0.27343 1.4062,-0.44921 l 0.1953,0 0,3.30078 z"
         id="path4260"
         inkscape:connector-curvature="0" />
      <path
         d="m 1032.1563,405.08074 -5.5079,12.79297 -2.8515,0 3.3984,-12.79297 4.961,0 z"
         id="path4262"
         inkscape:connector-curvature="0" />
      <path
         d="m 1064.9883,387.38543 q 0,-1.85547 -1.1133,-2.91016 -1.0937,-1.07421 -2.8125,-1.07421 -1.7969,0 -2.9297,1.21093 -1.1328,1.19141 -1.1328,2.92969 0,1.46484 0.7617,2.59766 0.7813,1.13281 3.3399,2.67578 1.914,-0.6836 2.8906,-1.99219 0.9961,-1.32812 0.9961,-3.4375 z m 3.789,17.10938 -9.3359,-9.10157 q -0.6055,0.29297 -1.2109,0.78125 -0.6055,0.46875 -1.211,1.28907 -0.5468,0.76171 -0.8984,1.83593 -0.3516,1.07422 -0.3516,2.42188 0,2.85156 1.6602,4.60937 1.6797,1.73828 4.7461,1.73828 1.8164,0 3.5937,-0.8789 1.7969,-0.89844 3.0078,-2.69531 z m 5.879,-11.60157 0,1.875 q 0,1.875 -0.4883,4.21875 -0.4883,2.34375 -1.6602,4.47266 l 7.3828,7.1875 -4.8047,0 -4.4726,-4.375 q -2.2461,2.77344 -4.5899,3.88672 -2.3437,1.09375 -4.8242,1.09375 -4.0625,0 -6.7578,-2.36328 -2.6758,-2.38282 -2.6758,-6.23047 0,-1.79688 0.5078,-3.10547 0.5079,-1.30859 1.1914,-2.26563 0.6836,-0.91796 1.6993,-1.71875 1.0156,-0.82031 2.0507,-1.42578 -2.1484,-1.40625 -3.1054,-2.83203 -0.9375,-1.42578 -0.9375,-3.59375 0,-1.30859 0.5078,-2.48047 0.5273,-1.1914 1.5625,-2.16797 0.9766,-0.9375 2.5391,-1.52343 1.582,-0.58594 3.4765,-0.58594 3.3789,0 5.4688,1.71875 2.0898,1.69922 2.0898,4.31641 0,0.85937 -0.2344,1.95312 -0.2343,1.07422 -0.8007,1.93359 -0.625,0.95704 -1.7774,1.83594 -1.1523,0.87891 -2.9883,1.50391 l 7.2461,7.07031 q 0.2735,-0.78125 0.4102,-1.71875 0.1367,-0.9375 0.1562,-1.95312 0.039,-1.09375 0.02,-2.44141 0,-1.34766 0,-2.28516 l 3.8086,0 z"
         id="path4264"
         inkscape:connector-curvature="0" />
      <path
         d="m 1114.5195,400.11981 -16.0742,0 q 0,2.01171 0.6055,3.51562 0.6055,1.48438 1.6601,2.44141 1.0157,0.9375 2.4024,1.40625 1.4062,0.46875 3.0859,0.46875 2.2266,0 4.4727,-0.87891 2.2656,-0.89844 3.2226,-1.75781 l 0.1953,0 0,4.0039 q -1.8554,0.78125 -3.789,1.3086 -1.9336,0.52734 -4.0625,0.52734 -5.4297,0 -8.4766,-2.92969 -3.0469,-2.94921 -3.0469,-8.35937 0,-5.35156 2.9102,-8.49609 2.9297,-3.14454 7.6953,-3.14454 4.4141,0 6.7969,2.57813 2.4023,2.57812 2.4023,7.32422 l 0,1.99219 z m -3.5742,-2.8125 q -0.02,-2.89063 -1.4648,-4.47266 -1.4258,-1.58203 -4.3555,-1.58203 -2.9492,0 -4.707,1.73828 -1.7383,1.73828 -1.9727,4.31641 l 12.5,0 z"
         id="path4266"
         inkscape:connector-curvature="0" />
      <path
         d="m 1138.3281,410.64715 -3.6718,0 0,-12.42188 q 0,-1.5039 -0.1758,-2.8125 -0.1758,-1.32812 -0.6446,-2.07031 -0.4882,-0.82031 -1.4062,-1.21094 -0.918,-0.41015 -2.3828,-0.41015 -1.5039,0 -3.1446,0.74219 -1.6406,0.74218 -3.1445,1.89453 l 0,16.28906 -3.6719,0 0,-21.81641 3.6719,0 0,2.42188 q 1.7188,-1.42578 3.5547,-2.22656 1.8359,-0.80079 3.7695,-0.80079 3.5352,0 5.3907,2.12891 1.8554,2.12891 1.8554,6.13281 l 0,14.16016 z"
         id="path4268"
         inkscape:connector-curvature="0" />
      <path
         d="m 1152.1953,385.1784 -4.1406,0 0,-3.80859 4.1406,0 0,3.80859 z m -0.2344,25.99609 q 0,3.82813 -1.9531,5.78125 -1.9531,1.95313 -5.2344,1.95313 -0.7812,0 -2.0703,-0.15625 -1.2695,-0.15625 -2.1289,-0.39063 l 0,-3.49609 0.1953,0 q 0.5469,0.21484 1.4649,0.48828 0.9375,0.27344 1.8164,0.27344 1.4062,0 2.2656,-0.39063 0.8594,-0.39062 1.2891,-1.17187 0.4297,-0.78125 0.5468,-1.89453 0.1368,-1.09375 0.1368,-2.67578 l 0,-17.57813 -4.5508,0 0,-3.08594 8.2226,0 0,22.34375 z"
         id="path4270"
         inkscape:connector-curvature="0" />
      <path
         d="m 1177.7422,399.74871 q 0,5.33203 -2.7344,8.41797 -2.7344,3.08594 -7.3242,3.08594 -4.6289,0 -7.3633,-3.08594 -2.7148,-3.08594 -2.7148,-8.41797 0,-5.33203 2.7148,-8.41797 2.7344,-3.10547 7.3633,-3.10547 4.5898,0 7.3242,3.10547 2.7344,3.08594 2.7344,8.41797 z m -3.7891,0 q 0,-4.23828 -1.6601,-6.28906 -1.6602,-2.07031 -4.6094,-2.07031 -2.9883,0 -4.6484,2.07031 -1.6407,2.05078 -1.6407,6.28906 0,4.10156 1.6602,6.23047 1.6601,2.10938 4.6289,2.10938 2.9297,0 4.5898,-2.08985 1.6797,-2.10937 1.6797,-6.25 z"
         id="path4272"
         inkscape:connector-curvature="0" />
      <path
         d="m 1202,388.83074 -12.7344,29.86328 -3.9258,0 4.0625,-9.10156 -8.6914,-20.76172 3.9844,0 6.6992,16.17188 6.7578,-16.17188 3.8477,0 z"
         id="path4274"
         inkscape:connector-curvature="0" />
      <path
         d="m 1213.25,381.56512 -0.5078,21.07422 -3.3203,0 -0.5469,-21.07422 4.375,0 z m -0.1953,29.08203 -3.9844,0 0,-4.12109 3.9844,0 0,4.12109 z"
         id="path4276"
         inkscape:connector-curvature="0" />
    </g>
    <path
       style="fill:#241f1c"
       id="path6377"
       d="m 1147.0254,795.08656 c 1.4349,-13.41127 3.0923,-26.77646 3.7697,-40.25453 0.5897,-13.0092 -2.7851,-25.63648 -5.423,-38.25213 -2.5687,-12.33946 -4.0363,-24.86275 -5.7202,-37.34217 -0.8685,-3.72562 -0.5797,-8.01982 -1.9486,-11.55665 0.051,1.13535 -0.9749,-1.87837 -1.0271,-2.49867 0.067,-4.62941 3.8731,-3.12695 6.159,0.21196 5.0505,10.02016 8.8624,20.62535 13.0825,31.01362 5.917,13.78948 12.2343,27.38597 17.4478,41.46387 3.5477,10.15429 6.5299,20.49715 9.3679,30.86897 0.826,2.25464 4.9176,13.91659 -4.03,7.35525 -3.4094,-2.40161 -6.6572,-3.25522 -10.7816,-3.06952 -12.6383,1.36699 -24.2042,6.53619 -35.5902,11.85297 -15.2252,7.19394 -29.7091,15.82685 -44.1122,24.51893 -7.0103,3.49398 -12.7078,9.47602 -19.8444,12.70484 -1.0807,-1.49455 -2.8578,-2.67978 -3.2422,-4.48363 -0.223,-1.0467 1.0841,-1.84903 1.7076,-2.71887 4.7927,-6.68687 10.7196,-12.70796 15.9776,-19.02384 16.2548,-20.32879 33.5976,-39.7276 50.8055,-59.24167 17.7785,-20.48658 34.2109,-42.09829 50.098,-64.07009 2.1294,-4.70924 12.3249,-14.85494 12.7202,-20.19575 -0.4853,1.77553 0.6702,0.9706 1.3623,1.86966 0.1542,0.20035 -0.456,0.22355 -0.6621,0.37012 -1.2542,0.89231 -1.5309,1.30905 -2.7038,2.51447 -7.2487,7.25603 -11.4247,16.57712 -15.5903,25.78035 -10.2974,23.97422 -23.2874,46.60803 -36.668,68.95736 -7.619,15.03276 -19.7711,28.44768 -25.794,44.28356 0.012,0.2613 -0.01,1.04161 0.036,0.78392 0.067,-0.38107 0.02,-0.77341 0.03,-1.16011 -0.3875,-0.22135 -1.1856,-0.21839 -1.1625,-0.66404 0.022,-0.42297 0.8192,-0.22048 1.216,-0.36852 1.4796,-0.55199 1.6939,-0.74743 3.0888,-1.53508 4.2128,-2.89095 6.8674,-7.48368 9.5771,-11.7035 5.9734,-9.90269 11.8644,-19.85347 18.0938,-29.59832 7.6748,-10.5236 15.2317,-21.06311 22.197,-32.07145 0.094,-0.19853 2.9019,1.13466 2.8076,1.33318 l 0,0 c -6.1255,11.44961 -12.4535,22.75694 -20.1068,33.28083 -6.2665,9.74862 -12.5,19.51819 -18.7565,29.27335 -3.0749,4.71876 -5.9706,9.75601 -10.2871,13.46248 -4.6378,3.20071 -12.0508,6.33135 -12.6701,-2.42641 3.476,-16.7741 16.1609,-31.74772 23.6738,-46.80175 13.2342,-22.24435 26.5495,-44.47763 37.8811,-67.77491 4.9487,-9.56356 9.9113,-19.25174 17.914,-26.68059 3.3196,-3.02175 9.4768,-7.56382 11.7933,-0.93361 -0.2979,8.79426 -7.9422,16.0854 -11.5126,23.59477 -14.9822,22.90901 -31.2655,44.98016 -49.4468,65.47205 -17.4163,19.38653 -35.1239,38.51049 -52.289,58.12333 -4.6461,5.11585 -9.4279,10.04036 -14.2088,15.0241 -0.9055,0.94393 -1.7899,1.90825 -2.6628,2.88241 -0.5703,0.63643 -0.8141,1.88357 -1.6662,1.9485 -1.6579,0.12634 -3.1802,-0.97202 -4.7703,-1.45803 6.1846,-4.66591 12.1832,-9.59525 18.8251,-13.62587 14.4055,-9.08127 28.9726,-18.00686 44.4153,-25.23768 12.9911,-5.87519 26.4167,-11.46138 40.9472,-11.21862 4.7785,0.46331 8.9902,1.73936 12.7531,4.84792 1.9817,1.70681 2.2789,1.26315 -1.7542,3.88381 -0.1232,0.08 -2.4524,-6.58561 -2.505,-6.82007 -3.371,-10.11877 -6.4955,-20.32097 -10.1211,-30.35426 -5.2909,-14.02056 -11.7647,-27.51707 -17.5285,-41.34251 -3.9255,-10.24277 -7.4707,-20.62609 -11.4559,-30.84228 -1.889,-3.68306 2.662,-3.12231 1.9791,-2.35663 -0.081,1.07829 -1.2391,-1.2726 0.4721,0.62813 2.3442,3.81469 2.226,8.70034 3.3726,12.90835 2.0595,12.35502 3.5962,24.79428 5.9031,37.10919 2.4917,12.9936 5.7003,25.98605 5.4287,39.31129 -0.6313,13.63587 -2.2308,27.24588 -5.4362,40.53533 -0.034,0.24215 -3.459,-0.24496 -3.4245,-0.48711 z"
       inkscape:connector-curvature="0" />
    <path
       style="fill:#241f1c"
       id="path6379"
       d="m 1197.3203,628.24146 c 10.0679,-11.20461 21.5289,-21.00004 33.829,-29.65163 7.8532,-4.85334 15.5836,-9.75336 22.4443,-15.95315 4.5204,-4.34735 9.2758,-8.45278 13.5354,-13.06192 0.3213,-0.37071 0.6549,-0.73106 0.9638,-1.11213 0.286,-0.35293 0.3186,-1.06094 0.7682,-1.12575 0.1247,-0.018 -0.1851,0.28205 -0.092,0.36655 3.3168,3.00086 3.7672,1.05011 2.2329,3.79493 -3.2479,6.43338 -6.7434,12.722 -10.3348,18.96981 -8.5289,14.60641 -14.805,30.38444 -21.6235,45.82768 -5.5235,13.42755 -12.8287,25.96466 -19.4574,38.83736 -0.1146,0.34663 -0.124,1.33134 -0.3439,1.03988 -0.3933,-0.52139 -0.039,-1.34637 -0.3287,-1.93155 -0.1992,-0.40181 -1.2232,-0.43219 -1.0472,-0.84463 0.415,-0.97217 7.1872,-5.1616 8.192,-5.85182 7.9724,-4.72878 14.1426,-11.50247 20.1463,-18.4311 8.345,-10.23929 16.5344,-20.59258 25.1997,-30.56534 4.858,-4.69566 9.0158,-10.31835 14.4211,-14.44034 1.0864,1.28367 2.7004,2.26487 3.2592,3.85102 0.2559,0.72612 -0.821,1.30294 -1.2092,1.96778 -0.5456,0.93443 -1.0759,1.87788 -1.5916,2.82915 -2.5403,4.68596 -4.9246,9.45689 -7.3173,14.21883 -7.6728,15.47556 -15.6149,30.79681 -22.6981,46.55607 -5.7571,15.26307 -13.0704,31.51997 -11.351,48.20121 0.5091,0.96805 0.7936,2.093 1.5274,2.90415 4.4862,4.95947 15.3307,-2.60494 18.978,-4.84567 15.1457,-11.08558 25.6993,-26.82277 35.1742,-42.74106 5.1594,-9.83276 10.8363,-20.28559 10.8208,-31.67714 1.4837,-0.67327 -2.0671,-3.8192 -2.2612,-2.60917 -0.048,0.29567 0.7019,0.30621 0.6655,0.60345 -0.059,0.48429 -0.6324,0.74885 -0.8824,1.16783 -0.4844,0.81161 -0.876,1.67508 -1.3139,2.51262 -4.588,13.98706 -4.2959,29.10333 -4.4062,43.66825 1.1171,8.27487 -1.3478,22.23259 3.4164,29.49611 0.1481,0.2189 -2.9475,2.31314 -3.0956,2.09424 l 0,0 c -0.9053,-0.91211 -2.0253,-1.65252 -2.7158,-2.73634 -5.2606,-8.25727 -3.7742,-19.71794 -4.794,-28.8877 0.056,-15.46162 0.3026,-31.63082 6.503,-46.05998 0.7245,-1.15032 1.2948,-2.41371 2.1736,-3.45095 4.6972,-5.5438 11.1085,-2.26457 12.0778,4.08282 0.5737,12.35573 -4.6734,23.84087 -10.1365,34.65624 -9.6194,17.00634 -20.7762,33.47483 -37.1596,44.67957 -7.8817,4.57414 -20.7285,11.74947 -28.2664,2.28006 -1.0334,-1.29815 -1.5295,-2.94498 -2.2942,-4.41747 -0.3405,-1.93043 -0.9078,-3.83436 -1.0217,-5.7913 -0.9224,-15.85032 5.9342,-31.31666 11.487,-45.71703 7.3279,-15.79053 15.5121,-31.14403 23.7042,-46.50039 3.1886,-5.78538 6.2571,-11.77752 10.1618,-17.12833 0.4599,-0.63032 0.6816,-1.80043 1.4613,-1.82871 1.6998,-0.0616 3.2302,1.06666 4.8453,1.6 -4.0478,5.22347 -8.9539,9.74643 -13.1395,14.8546 -8.5186,10.13448 -16.7796,20.48082 -25.3679,30.55659 -6.4167,7.09743 -13.0102,14.07574 -21.2997,19.03216 -3.3716,2.21714 -16.163,12.83399 -15.2045,1.7977 4.9448,-13.56317 12.6783,-26.01265 18.0297,-39.41788 7.0837,-15.57788 13.9233,-31.38475 23.2304,-45.80218 3.82,-6.14172 7.5415,-12.33749 11.2037,-18.57385 3.617,-5.53673 8.1152,-1.2466 3.5169,2.43525 -4.1957,4.84878 -8.9738,9.119 -13.6463,13.49911 -7.0333,6.13542 -14.7697,11.21917 -22.5015,16.42721 -12.0203,8.84956 -23.2146,18.69333 -34.6853,28.23043 -0.1332,0.16846 -2.5155,-1.71569 -2.3823,-1.88415 z"
       inkscape:connector-curvature="0" />
    <path
       style="fill:#241f1c"
       id="path6381"
       d="m 1314.4362,595.80984 c 2.8393,-13.70864 5.8473,-27.37004 7.9313,-41.21879 1.3621,-9.32536 0.8885,-18.45845 -2.6927,-27.18433 -0.7376,-1.64345 -1.5769,-3.23583 -2.546,-4.75367 -0.1991,-0.31184 -1.0545,-0.91707 -0.6873,-0.8715 1.0497,0.13026 2.083,0.36912 3.1244,0.55369 4.3721,11.02236 6.9611,22.59207 9.4872,34.14182 4.4245,20.76725 6.5016,41.89851 7.9806,63.04652 1.1091,8.94147 0.1235,18.04258 0.9036,26.9901 -0.9107,-0.69637 -2.3166,-1.02063 -2.7322,-2.08911 -0.3521,-0.90552 0.5807,-1.85496 0.8334,-2.79311 0.368,-1.36629 0.7144,-2.73881 1.0285,-4.11852 1.3644,-5.99462 2.3522,-12.05504 3.3439,-18.11914 1.7821,-12.06889 2.7586,-24.23044 3.8481,-36.37475 0.5332,-3.01811 -1.0166,-9.71611 4.7874,-6.57245 0.2973,0.161 1.7224,4.91716 1.9425,5.61702 4.4897,16.00202 7.2977,32.41692 10.2512,48.75391 3.7456,20.70237 5.7081,41.64047 7.1441,62.60887 0.237,5.45824 0.7268,10.91417 0.6789,16.38264 -0.024,2.71444 -0.2562,3.54106 -0.3473,3.50611 -1.7516,-0.67195 -3.188,-1.97883 -4.7821,-2.96824 -1.546,-18.84446 -0.8182,-37.80886 -0.3124,-56.68515 0.865,-31.84857 2.689,-63.65699 5.5435,-95.38711 1.8072,-21.07564 5.6365,-41.88087 11.6985,-62.13519 0.744,-2.25458 1.4881,-4.50917 2.2321,-6.76375 0.073,-0.32277 4.6381,0.71547 4.5647,1.03824 l 0,0 c -0.4907,2.27292 -0.9814,4.54583 -1.4721,6.81875 -3.9238,20.38423 -7.1583,40.89884 -8.586,61.6309 -2.4171,31.67014 -4.5192,63.36357 -6.3182,95.07497 -1.1084,18.68359 -2.1585,37.3748 -2.5056,56.09115 -1.4378,1.01415 -2.7586,2.21877 -4.3134,3.04244 -0.054,0.0285 -0.1395,-0.85653 -0.3596,-3.02833 -0.5472,-5.39883 -1.0594,-10.80111 -1.5976,-16.20084 -2.0866,-20.75707 -4.3914,-41.50025 -7.7365,-62.09868 -2.6231,-16.26093 -4.9153,-32.58294 -8.0108,-48.76232 -0.5789,-2.83462 -2.8346,-6.27582 1.9326,-6.67787 0.099,-0.008 -0.058,6.28879 -0.034,6.9456 -0.4358,12.33455 -1.1749,24.67381 -3.1768,36.86951 -1.1046,6.20785 -2.2151,12.39867 -3.9692,18.46516 -0.1767,0.61131 -2.2146,7.00429 -2.6521,7.34665 -1.233,0.9649 -2.9892,0.93281 -4.4839,1.39922 -2.9045,-7.59154 -1.1328,-19.5135 -2.931,-27.43103 -1.8892,-20.92239 -4.0846,-41.83234 -7.8202,-62.51997 -2.0659,-11.57213 -4.1395,-23.14858 -7.3282,-34.47611 0.8049,-0.95434 1.4492,-2.07158 2.4148,-2.86301 0.3139,-0.25728 3.6846,5.62384 3.9853,6.29858 4.0528,9.12235 5.0328,18.82918 3.7588,28.73993 -1.8815,14.0198 -4.6251,27.98404 -9.3642,41.34627 -0.043,0.18779 -2.6991,-0.42729 -2.6557,-0.61508 z"
       inkscape:connector-curvature="0" />
    <path
       style="fill:#241f1c"
       id="path6383"
       d="m 1212.2703,751.44387 c 4.0815,7.9102 7.9849,16.07229 9.3495,24.93491 -0.884,8.43258 -4.8709,0.99137 -5.637,-2.50357 -0.3004,-7.28606 -0.3033,-14.53384 -1.2207,-21.78348 -1.0211,-5.36866 -1.5746,-11.05848 -3.6231,-16.12226 0.7536,0.46184 1.8015,0.63033 2.2607,1.38552 0.5022,0.82578 0.2087,1.9218 0.3333,2.88021 0.1602,1.2328 0.3342,2.46387 0.5213,3.69289 0.6713,4.41145 1.5944,8.75307 2.5319,13.11389 1.3183,5.42279 2.2595,10.88415 2.5817,16.44796 0.1721,0.52441 0.964,2.74915 -1.4968,-0.82302 -0.218,-0.31636 0.025,-0.76792 0.036,-1.15196 0.042,-1.56186 -0.3651,-1.46464 1.5178,-0.0228 -0.049,2.97023 -1.9969,0.95745 -1.3839,-1.22769 1.2573,0.46156 2.8183,4.52675 -0.3488,1.32968 0.062,-0.50189 0.253,-0.97076 0.419,-1.43648 0.017,-0.10566 1.5114,0.13657 1.4943,0.24223 l 0,0 c -0.021,0.49264 -0.021,0.99712 -0.1542,1.48419 -4.2429,2.04028 -1.0471,-1.43368 0.1793,-1.38673 -0.1534,2.06138 -2.8146,3.86291 -1.9613,0.77082 0.613,-0.36156 1.1589,-0.87526 1.839,-1.08469 0.4353,-0.13404 0.074,6.77751 -1.8568,3.6941 -2.392,-5.0653 -2.9927,-10.85572 -4.4618,-16.20681 -0.6938,-3.41575 -3.7897,-17.49586 -2.6041,-20.41309 0.4586,-1.12859 1.6201,-1.8197 2.4302,-2.72955 4.122,4.21645 3.4548,11.99363 5.0283,17.24033 0.7858,7.23103 0.672,14.42975 0.5344,21.69004 0.127,0.80387 1.4616,3.97117 1.4281,4.09594 -0.8749,3.26099 -1.3838,-0.17868 -1.1914,-0.7174 -2.0417,-8.48041 -5.8832,-16.35738 -8.9894,-24.47368 -0.065,-0.17286 2.3797,-1.09232 2.4447,-0.91946 z"
       inkscape:connector-curvature="0" />
    <path
       style="fill:#241f1c"
       id="path6385"
       d="m 1336.6877,677.23291 c 1.1085,9.71815 1.5565,19.53225 1.134,29.30744 -1.0481,-1.81033 0.269,2.3699 -0.3854,2.09463 -1.0044,-0.42251 -2.125,-0.88152 -2.7423,-1.7795 -0.443,-0.64435 -0.3659,-7.64774 -0.4029,-8.63018 -0.1708,-7.50662 -0.5866,-14.98999 -1.3778,-22.45695 -0.031,-4.09604 -1.8241,-8.41692 -1.1017,-12.52633 0.9209,0.23076 1.9989,0.12857 2.7628,0.69227 1.1459,0.84551 2.6463,12.74948 2.8938,14.38145 0.5686,6.02835 1.9716,11.97973 2.2522,18.03333 -3.1571,-1.09188 -1.4696,-2.70576 -1.9795,-5.57119 4.8541,2.5815 -0.9749,3.45393 0.04,0.13322 1.57,-2.47299 2.0499,0.96707 1.4332,2.48929 -4.3905,-3.86153 1.2494,-3.675 0.2794,-0.68567 -0.035,0.14809 -2.129,-0.34296 -2.0943,-0.49104 l 0,0 c 0.739,-3.09361 5.7245,-0.74956 -0.1174,0.7581 0.2391,-1.69039 2.5827,-4.55109 2.612,-1.62286 -0.6851,3.36119 -5.9233,1.73189 -0.1712,-1.07206 0.4028,1.10642 1.1476,4.73936 0.2707,5.64291 -0.6018,0.62021 -1.5626,0.73888 -2.3439,1.10833 -3.4891,-5.12781 -2.3104,-12.54665 -3.6647,-18.33247 -0.1133,-0.98395 -2.028,-13.89505 -1.9126,-14.07617 0.4404,-0.6916 1.4047,-0.84608 2.1071,-1.26913 0.5576,4.051 1.3822,8.06005 1.896,12.11916 0.8412,7.52912 1.26,15.08583 1.3395,22.66255 0.022,0.83984 0.4365,8.02381 0.091,8.57319 -0.5357,0.85239 -1.6431,1.17664 -2.5396,1.63463 -0.5344,0.27297 1.6761,-5.30097 -0.2154,-1.78718 -0.5953,-9.72205 -1,-19.46726 -0.8001,-29.20882 -0.01,-0.19349 2.7279,-0.31444 2.7365,-0.12095 z"
       inkscape:connector-curvature="0" />
    <path
       style="fill:#241f1c"
       id="path6387"
       d="m 1422.1799,598.4767 c 2.2015,9.41025 3.9328,19.11514 3.6386,28.81715 -0.089,0.39946 0.14,1.24633 -0.2664,1.19838 -1.0738,-0.12671 -2.2119,-0.6858 -2.8411,-1.56507 -0.9381,-1.31085 0.5394,-10.7959 0.7496,-12.57779 0.5136,-5.59635 1.1305,-11.25235 0.3482,-16.84783 0.5668,-0.0807 -1.8832,-4.87148 -1.7377,-4.86124 0.9444,0.0664 1.8667,0.31716 2.8,0.47573 1.8926,3.76826 3.1032,7.79968 3.8917,11.92802 0.2694,0.79001 0.4669,7.74024 -0.728,7.59778 -1.0568,-0.12598 -1.9698,-0.80659 -2.9546,-1.20988 -1.2943,-4.47304 -1.6457,-9.1706 -2.1128,-13.78902 -0.054,-3.09318 -1.3254,-6.45262 -0.5135,-9.52193 1.0378,0.22824 2.1949,0.15028 3.1134,0.68472 1.6774,0.97613 3.1349,9.30929 3.5126,11.188 0.2243,2.16642 0.5744,4.3055 1.0607,6.42643 0.105,0.45834 0.7811,1.42724 0.3138,1.37533 -0.713,-0.0792 -1.3871,-0.36651 -2.0806,-0.54977 -1.6894,-2.80608 1.6114,-3.48713 1.7216,-0.89312 -0.858,2.32075 -2.1391,-0.59629 -2.0795,-1.86113 5.1529,2.24191 0.049,3.60111 -0.033,0.66788 0.1787,-2.39169 2.2274,-0.10322 2.0774,1.71773 -5.1195,-2.07149 -0.016,-3.62396 0.045,-0.6056 0,0.14942 -0.01,0.29884 -0.014,0.44825 -0.011,0.0419 -0.022,0.0837 -0.033,0.12561 0.01,0.13197 -1.8589,0.23752 -1.8663,0.10555 l 0,0 c -0.017,-0.0403 -0.033,-0.0806 -0.05,-0.12094 -0.025,-0.14776 -0.049,-0.29552 -0.074,-0.44327 -0.3424,-2.98708 4.938,-2.04462 0.1258,0.5967 -0.3961,-1.8011 1.3336,-4.28147 1.8317,-1.94038 0.3121,2.89258 -4.9358,2.20158 -0.1333,-0.69128 0.3129,1.51672 -0.7596,4.67314 -1.8256,2.16238 -0.6345,-4.32579 3.2635,-1.80437 2.3953,0.51461 -0.6104,0.48758 -1.121,1.13702 -1.8311,1.46274 -0.4271,0.1959 -2.4047,-7.21788 -2.6445,-7.96245 -0.6512,-3.06267 -1.2749,-6.10775 -2.3782,-9.04528 -0.1883,-0.50145 -0.8221,-1.01216 -0.5898,-1.49481 0.3435,-0.71371 1.305,-0.89798 1.9576,-1.34697 0.1298,2.92193 0.5307,5.8364 0.9157,8.73792 0.4955,4.37079 0.9481,8.75519 1.7388,13.08436 -0.6523,0.31818 -1.2889,0.6709 -1.957,0.95453 -0.3226,0.13694 0.277,-0.65302 0.3232,-1.00039 0.2169,-1.62916 0.01,-3.26044 -0.2171,-4.87611 -0.8403,-4.02663 -2.0008,-7.96211 -3.5742,-11.76735 0.6599,-0.76318 1.181,-1.67304 1.9797,-2.28954 0.045,-0.035 0.9212,1.53702 1.2967,2.46814 0.5473,1.35743 0.598,1.70438 1.0169,3.18546 1.0429,5.79181 0.7483,11.71076 0.099,17.53695 -0.1223,0.93891 -1.0584,11.82367 -1.1518,11.9713 -2.5161,3.97766 -2.4206,1.96416 -2.5295,0.72917 -0.9644,-9.51689 -2.2591,-18.99749 -3.1308,-28.52379 -0.027,-0.16933 2.3681,-0.54522 2.3947,-0.37588 z"
       inkscape:connector-curvature="0" />
    <path
       style="fill:#241f1c"
       id="path6391"
       d="m 2.7305294,926.80016 c 6.895471,-10.0464 14.7685816,-19.3808 23.0595826,-28.294 5.02906,-4.0392 9.934185,-12.1015 16.963228,-12.7811 0.692532,0.4694 1.586456,0.731 2.077597,1.4083 1.802463,2.4856 -0.193265,11.9314 -0.58138,14.8133 -0.454709,5.5048 -2.497953,11.3901 -0.86031,16.8519 0.255523,0.1995 0.453518,0.5143 0.76657,0.5984 1.660911,0.4466 9.671888,-4.4408 11.04818,-5.2058 8.534527,-4.5184 16.156679,-10.4087 23.848394,-16.1839 6.956497,-4.8198 11.285933,-8.6263 19.95047,-6.4537 5.002289,3.7194 5.911869,10.2567 7.369039,15.9443 1.39222,4.8518 2.33634,9.3165 8.32899,7.8778 9.54035,-2.2726 17.58231,-8.0055 25.26317,-13.8375 7.63611,-6.2261 15.12127,-12.6605 24.06239,-16.9322 7.74369,-3.0706 11.13537,-0.8776 14.94967,5.8934 2.79667,6.2412 5.52475,12.4347 10.83297,16.9237 4.74793,2.7585 9.47559,0.5414 13.90183,-1.8055 9.18131,-6.3824 18.10269,-13.1093 27.54842,-19.1164 5.76362,-3.0489 13.56936,-9.57045 20.70977,-6.7043 0.97554,0.3916 1.64755,1.306 2.47133,1.959 4.24917,6.2942 5.29294,14.0714 7.30814,21.2654 0.93522,2.2634 1.7081,6.512 4.89403,6.7026 0.84849,0.051 1.6007,-0.5754 2.41594,-0.816 6.55113,-3.8778 11.68481,-9.7617 17.28493,-14.8529 7.14229,-6.1889 14.45245,-12.4009 23.07945,-16.4025 9.20614,-2.86805 9.27882,3.9413 9.31911,10.8703 0.0184,7.0843 -1.45861,14.7272 1.89,21.2757 4.05813,3.0556 10.64021,-2.0922 14.08767,-4.339 7.45025,-5.9175 13.61122,-13.2422 20.16346,-20.098 2.83634,-2.3832 7.28794,-8.46318 11.8816,-6.6213 0.69496,0.2787 1.05688,1.0609 1.58531,1.5913 2.23764,6.0278 2.12432,12.6815 3.07232,19.0154 0.66332,2.9616 1.27385,10.2675 5.94789,8.4298 8.17253,-2.4699 15.29165,-7.3207 21.95981,-12.509 5.72519,-4.7721 10.8135,-10.45 17.66963,-13.6051 7.71397,-2.04 9.78805,5.6186 11.50099,11.438 2.04531,6.5662 2.21695,14.2415 6.57373,19.8299 5.20232,2.2712 12.82791,-3.2119 17.29808,-5.5726 9.86215,-5.2431 18.1877,-12.6828 26.86846,-19.5857 4.82103,-3.4968 10.62493,-8.2897 16.92051,-5.2524 0.97724,0.4715 1.6619,1.3955 2.49285,2.0932 4.85482,6.2865 6.2871,14.3108 8.26043,21.8271 1.73973,5.4839 2.56569,9.914 9.08661,7.2835 9.26665,-3.4055 17.20708,-9.3231 24.49319,-15.8474 6.06795,-6.0569 12.00251,-12.3298 19.91344,-15.9009 8.64096,-2.54 11.08688,2.4422 13.56252,9.6319 2.01544,6.1378 2.07673,13.5717 6.70247,18.4587 6.07156,2.2975 13.17596,-2.294 18.34917,-5.1755 10.52429,-7.484 20.88636,-15.1516 31.84746,-22.0008 7.39331,-3.7235 15.66239,-9.98908 24.47864,-9.36567 1.4316,0.10124 2.81215,0.57503 4.21823,0.86254 0.82433,0.70642 1.8123,1.25784 2.47299,2.11925 3.76448,4.90818 3.20431,15.50488 3.54359,21.42818 0.73803,4.1719 -0.5991,14.8429 5.34069,15.8643 6.95786,-3.3357 12.75896,-8.6604 18.69549,-13.5321 9.80069,-7.8014 19.323,-15.9748 29.41677,-23.39893 6.89943,-4.42552 12.34661,-8.21219 18.47221,-0.5665 3.78419,7.33053 4.78719,15.68103 6.61386,23.63893 1.48081,5.1431 2.1005,9.7621 8.22594,6.8801 11.057,-5.2165 20.87087,-12.7408 30.80799,-19.7875 9.86996,-6.9703 18.73137,-15.17815 27.74737,-23.1795 8.16217,-6.67023 9.73436,0.45248 10.8193,7.49607 0.97379,9.57593 1.01435,19.20773 2.32629,28.75073 1.71054,7.5506 2.63889,5.5801 7.82725,2.1292 9.97327,-8.1966 19.4894,-16.9384 29.07962,-25.57673 7.75957,-7.01261 15.18948,-14.90957 25.20972,-18.54438 9.68227,-1.91194 11.08278,5.91081 12.74446,13.41087 1.53164,8.55324 1.77135,17.51844 5.80871,25.36684 1.10296,1.0284 1.44529,1.91 3.08241,1.626 2.18568,-0.3791 10.34903,-6.8385 11.99726,-8.1184 9.95954,-8.3364 18.75941,-17.91687 29.06587,-25.8397 4.20783,-2.55408 12.75676,-8.83701 17.54691,-3.80827 0.76469,0.80278 1.1259,1.91028 1.68884,2.86542 2.32028,9.86864 1.44108,20.18385 2.14093,30.26245 1.10307,6.6231 0.85517,14.2097 9.41197,13.2354 10.13089,-3.4048 18.42332,-10.0388 26.50775,-16.7966 8.6494,-7.6588 16.5466,-16.42282 27.2055,-21.26555 10.929,-2.83239 12.9558,4.7367 15.0732,13.44595 1.7723,7.9757 2.0326,16.7095 7.4665,23.2087 5.4654,3.9541 11.2824,0.4341 16.3324,-2.5083 10.1579,-7.2559 19.3027,-15.813 28.5706,-24.1462 5.6579,-4.18145 12.8181,-12.586 20.3421,-13.37014 1.3198,-0.13755 2.6505,0.13628 3.9757,0.20442 0.8201,0.63066 1.7896,1.10428 2.4603,1.89198 3.8741,4.55004 3.6958,14.56004 4.1761,20.20254 1.1286,4.9786 -0.5915,14.4586 4.628,17.5978 5.2556,-1.0769 9.5394,-6.3299 13.2321,-9.9608 9.2419,-9.4098 18.3243,-18.93675 28.6014,-27.22979 5.3737,-3.61128 13.7835,-10.66649 20.7311,-6.19036 0.9903,0.63803 1.4576,1.85104 2.1865,2.77656 2.8277,8.34071 2.0403,17.40669 2.88,26.10499 0.2465,1.2189 0.4125,2.4568 0.7393,3.6566 0.5958,2.1878 4.7254,8.699 4.6093,5.3063 6.6202,-4.7263 12.2803,-10.9206 18.2951,-16.4384 8.5118,-7.75425 17.3636,-15.25562 28.075,-19.70865 10.7637,-2.94103 12.0961,3.9011 12.8234,12.62154 0.3817,7.73781 -0.2281,15.83891 3.8248,22.73131 0.9755,0.7716 1.4488,1.57 2.8153,1.2564 0.2,-0.046 0.1608,-0.4042 0.3307,-0.5192 2.8412,-1.9224 5.4096,-3.7072 8.075,-5.9562 8.5308,-7.4533 17.2386,-14.6887 26.5084,-21.2065 4.7666,-2.9078 13.1602,-8.75069 18.481,-3.5093 0.8221,0.8098 1.2896,1.91395 1.9344,2.87093 2.8069,7.58387 2.1528,15.80817 2.5855,23.74887 -1.5494,0.6278 2.6407,8.7498 4.0228,5.0138 5.8124,-4.3181 10.571,-9.9562 15.7274,-15.0336 6.125,-5.6581 12.1462,-12.17341 20.2961,-14.74224 1.2141,0.0688 2.4972,-0.20283 3.6423,0.20651 4.9959,1.78595 3.3972,10.93793 3.1062,14.63573 -0.2179,5.1197 -1.6826,10.7398 0.2527,15.6932 0.8275,0.8593 3.5161,-1.6813 5.3515,-3.0926 5.4858,-4.6634 10.1814,-10.1326 14.9153,-15.5286 2.2762,-2.2416 5.6361,-8.56667 9.9065,-6.8563 0.8328,0.33353 1.1531,1.3745 1.7296,2.0618 2.2727,6.9608 3.08,14.337 3.968,21.581 1.1375,3.1147 -0.8087,12.4114 3.4087,13.6595 6.0138,-0.7879 11.7036,-3.5001 17.2511,-5.8664 1.0405,-0.5145 2.0811,-1.0291 3.1216,-1.5436 0.199,-0.1741 2.66,2.6394 2.4611,2.8134 l 0,0 c -0.9695,0.7355 -1.9389,1.471 -2.9084,2.2066 -6.6745,4.1464 -15.0514,8.3423 -23.016,5.815 -4.9619,-4.0387 -4.6893,-10.6227 -5.5288,-16.5462 -0.8354,-6.7509 -1.5324,-13.5298 -2.6797,-20.2358 0.667,-0.087 1.2795,-0.4767 1.951,-0.515 0.2742,-0.016 -0.5075,0.2293 -0.7147,0.4095 -0.4387,0.3817 -0.8263,0.82 -1.2054,1.2609 -1.2615,1.4667 -2.3524,3.075 -3.6349,4.5245 -4.7829,5.777 -9.6835,11.5101 -15.586,16.1924 -3.9713,2.8393 -9.5385,6.5897 -13.1528,1.1056 -2.2615,-5.562 -1.5221,-11.6984 -0.8883,-17.5301 0.2227,-2.0475 0.5244,-4.4267 0.5973,-6.5048 0.023,-0.6428 -0.4876,-2.83478 -0.3972,-3.55282 0.018,-0.14439 0.1925,-0.21831 0.2888,-0.32746 -7.4471,2.24298 -12.5499,9.27718 -18.3665,14.00708 -5.6879,5.3939 -11.0094,11.3969 -17.5688,15.7275 -1.2366,0.2891 -2.4428,0.7805 -3.7098,0.8673 -5.2847,0.3624 -7.1318,-5.5225 -7.6944,-9.6101 -0.6147,-7.3011 -0.014,-14.7635 -1.7689,-21.91604 -2.8218,-5.48505 -8.8658,0.40902 -12.3696,2.41479 -9.0891,6.61795 -17.7318,13.79795 -26.4794,20.85545 -5.7253,4.4719 -12.988,10.8678 -19.3924,3.7556 -4.484,-7.5188 -4.6451,-15.9988 -4.4494,-24.57296 -0.032,-0.96353 0.4216,-9.60857 -2.4373,-9.38221 -0.913,0.0723 -1.79,0.38916 -2.685,0.58374 -10.1073,4.52261 -18.3904,11.96483 -26.6893,19.15583 -6.6996,5.8593 -13.0671,12.5611 -20.8056,16.9869 -1.2285,0.056 -2.4663,0.3274 -3.6856,0.1668 -5.6827,-0.7483 -7.3001,-8.3796 -8.2752,-12.7597 -0.9071,-8.1053 -0.251,-16.31125 -1.6703,-24.32446 -0.2895,-0.46783 -0.5911,-0.92837 -0.8684,-1.4035 -0.1294,-0.22167 -0.1004,-0.62984 -0.351,-0.68541 -5.0736,-1.12498 -10.2361,4.62744 -14.0029,6.8584 -10.0132,8.43717 -19.0992,17.82447 -28.5374,26.88577 -5.4653,4.997 -12.074,12.704 -20.2606,9.7101 -5.8374,-4.9799 -5.9058,-13.1058 -6.5851,-20.2532 -0.3682,-5.3542 0.3575,-14.04009 -3.0912,-18.38934 -2.5839,-1.97808 -16.7448,10.69544 -18.75,12.60274 -9.4522,8.6131 -18.9299,17.3081 -29.566,24.4618 -7.4435,4.1878 -15.9947,7.5517 -23.3118,1.2412 -5.7415,-7.1403 -7.0636,-15.9542 -8.3498,-24.8306 -0.3964,-1.9395 -1.6649,-10.90655 -5.0007,-10.94317 -0.8809,-0.01 -1.7385,0.28635 -2.6077,0.42952 -10.1888,4.84495 -17.3855,13.92135 -25.8699,21.10005 -9.3812,7.8114 -19.24179,15.9191 -31.74413,17.5742 -1.28265,-0.1268 -2.60637,-0.034 -3.84794,-0.3804 -7.19825,-2.0064 -8.55047,-10.7949 -9.51355,-16.9715 -0.76089,-9.6525 0.0267,-19.31334 -0.87561,-28.9316 -2.09355,-5.4595 -8.88612,1.08537 -11.7577,2.70126 -10.09924,8.20455 -18.77016,17.98914 -29.0407,26.00374 -6.44774,4.6994 -15.81037,12.833 -22.78695,4.6983 -4.46253,-8.1377 -5.17826,-17.2999 -6.29669,-26.37954 -0.24133,-1.35613 -1.65078,-10.50763 -3.8679,-10.73704 -0.70125,-0.0726 -1.40571,0.1097 -2.10857,0.16455 -9.4466,3.54701 -15.96507,11.85463 -23.36359,18.33903 -9.68532,8.9221 -19.56052,17.6935 -30.18517,25.492 -8.04818,4.8871 -12.62691,5.3195 -15.25469,-4.8473 -1.71165,-9.5593 -1.74814,-19.2268 -2.14155,-28.90701 -0.5464,-6.25643 -5.9e-4,-1.06469 -0.71718,-5.99889 -0.0461,-0.31766 -0.24098,-0.67685 -0.0879,-0.95896 0.15588,-0.28715 1.18819,-0.48269 0.86184,-0.46693 -1.17717,0.0568 -2.63027,1.70097 -3.22126,2.21289 -8.58827,8.68953 -17.37194,17.2307 -27.37533,24.3146 -10.37772,7.2883 -20.82926,14.8767 -32.60027,19.7602 -10.09108,1.9066 -11.51674,-0.4836 -14.48637,-9.8525 -1.8418,-7.4813 -2.64974,-15.3107 -5.64961,-22.4418 -3.88044,-5.44227 -7.332,-1.27582 -11.83789,1.6827 -9.75663,7.7898 -19.20387,15.9643 -29.08006,23.6071 -4.73923,3.6882 -14.37751,12.2866 -20.38487,13.3886 -1.28363,0.2354 -2.60994,0.028 -3.91491,0.043 -7.59916,-3.5969 -7.19234,-11.5393 -7.9385,-18.9426 -0.19866,-4.1571 0.35239,-15.6515 -1.88451,-19.0455 -0.31454,-0.4772 -0.86209,-0.7507 -1.29314,-1.1261 -6.57867,-2.69296 -18.07003,5.9947 -23.63065,8.6814 -10.99597,6.9384 -21.44916,14.6395 -32.19069,21.9486 -7.34694,4.0283 -16.7134,9.0312 -24.67982,3.8307 -4.74485,-5.5512 -5.89143,-12.748 -7.46039,-19.7121 -1.13076,-3.7879 -2.15351,-8.8427 -7.10924,-7.3859 -7.54246,3.4102 -12.83027,9.9131 -18.64287,15.5941 -7.728,7.0567 -16.18896,13.4111 -26.28672,16.6371 -10.38041,1.6932 -11.89184,-0.6357 -15.15181,-10.1642 -1.87736,-6.8251 -2.99136,-14.1621 -7.00093,-20.1354 -0.73138,-0.6513 -1.21156,-1.7749 -2.16875,-1.9822 -4.07935,-0.8835 -7.89095,3.7303 -10.89391,5.5833 -8.70778,7.3071 -17.15774,15.0449 -27.36941,20.2672 -6.97494,3.4448 -16.14261,9.2166 -23.49488,3.8685 -4.65624,-6.0471 -5.66135,-13.6826 -7.31635,-20.9601 -0.8592,-3.3962 -1.5963,-6.2193 -3.65633,-9.0105 -0.0816,-0.1106 0.0257,-0.3742 -0.1097,-0.3974 -0.48225,-0.083 -0.97478,0.086 -1.46217,0.1283 -6.5668,3.0555 -11.037,9.1347 -16.59538,13.592 -7.16092,5.7605 -14.97679,10.8018 -23.99059,13.093 -1.32583,0.016 -2.66676,0.2487 -3.9775,0.048 -5.26494,-0.8041 -6.41759,-7.4882 -7.32818,-11.6244 -0.87851,-5.8558 -0.99494,-11.763 -1.82747,-17.6144 -0.0327,-0.2461 0.65696,-0.6657 0.41294,-0.6199 -3.21834,0.6043 -5.23985,4.3623 -7.55943,6.2436 -6.59402,7.2166 -12.88491,14.8408 -20.69906,20.7969 -6.02037,3.8876 -14.49755,9.1021 -20.60999,2.6551 -3.68952,-7.13 -3.00551,-15.073 -2.41477,-22.8726 0.0103,-0.2174 0.91594,-8.343 -0.79401,-8.1194 -0.69493,0.091 -1.35615,0.3544 -2.03423,0.5315 -8.13987,4.1408 -15.01087,10.3164 -22.02067,16.0836 -6.04028,5.3603 -11.76659,11.3874 -18.89479,15.2974 -7.72935,2.2919 -10.61563,-1.4337 -13.07129,-8.2695 -1.95895,-6.568 -2.90796,-13.5851 -6.06796,-19.6988 -0.25182,-0.2139 -1.53025,-1.5016 -2.18791,-1.4995 -5.60288,0.018 -10.45303,4.87 -15.10337,7.2361 -9.4623,6.2009 -18.75656,12.6583 -28.28353,18.7557 -6.2235,3.2145 -12.80609,5.4325 -19.21531,1.2128 -5.58171,-4.8039 -8.82678,-11.1399 -11.41931,-17.9626 -2.26118,-4.486 -4.02923,-6.645 -9.13795,-4.2325 -8.60454,4.3304 -15.67569,10.9241 -23.18371,16.8607 -8.18013,6.3775 -16.88971,12.3843 -27.26292,14.4257 -9.33204,0.1821 -10.7551,-2.1514 -13.33415,-10.7711 -1.16474,-4.5855 -1.58608,-10.3755 -5.324099,-13.651 -3.94164,-2.6385 -12.190548,4.2958 -15.188297,6.3069 -7.776985,5.9691 -15.532512,12.0453 -24.335106,16.4707 -4.864484,2.5046 -13.172931,8.1198 -17.472069,2.1445 -1.754675,-5.8953 -0.198169,-12.109 0.655306,-18.0485 0.154675,-0.9291 1.691486,-12.9629 1.730976,-13.0406 0.121609,-0.2393 0.497909,-0.2007 0.746863,-0.3011 -3.175129,-0.7388 -12.246834,10.6737 -14.573225,12.5206 -8.229367,8.9478 -15.910147,18.3677 -24.1068256,27.3421 -0.08822,0.1406 -2.0766,-1.107 -1.988384,-1.2476 z"
       inkscape:connector-curvature="0" />
  </g>
</svg>
